WEMIXPretendard.glyphspackage
{
color = 11;
glyphname = logoWemix;
layers = (
{
layerId = "CD0E3B44-F66A-4791-B84C-A1128DC61275";
shapes = (
{
closed = 1;
nodes = (
(1225,184,o),
(1249,211,o),
(1258,262,cs),
(1490,1798,ls),
(1496,1843,o),
(1463,1888,o),
(1415,1894,cs),
(1370,1901,o),
(1324,1867,o),
(1318,1822,cs),
(1173,839,l),
(1077,1493,ls),
(1071,1545,o),
(1035,1575,o),
(992,1575,cs),
(944,1578,o),
(908,1548,o),
(899,1496,cs),
(760,857,l),
(652,1201,ls),
(643,1237,o),
(609,1264,o),
(573,1270,cs),
(522,1276,o),
(492,1249,o),
(471,1216,cs),
(302,947,l),
(199,947,l),
(196,971,o),
(196,999,o),
(196,1026,cs),
(196,1716,o),
(757,2278,o),
(1448,2278,cs),
(2006,2278,o),
(2480,1913,o),
(2640,1409,c),
(2845,1409,l),
(2676,2024,o),
(2115,2474,o),
(1448,2474,cs),
(649,2474,o),
(0,1825,o),
(0,1026,cs),
(0,938,o),
(9,854,o),
(21,772,c),
(344,772,ls),
(386,772,o),
(410,784,o),
(425,811,cs),
(540,999,l),
(682,549,ls),
(697,504,o),
(730,483,o),
(775,480,cs),
(824,480,o),
(860,510,o),
(869,555,cs),
(974,1050,l),
(1089,262,ls),
(1095,211,o),
(1122,184,o),
(1173,184,cs)
);
},
{
closed = 1;
nodes = (
(2247,-422,o),
(2896,226,o),
(2896,1026,cs),
(2896,1113,o),
(2887,1198,o),
(2875,1279,c),
(2552,1279,ls),
(2510,1279,o),
(2486,1267,o),
(2471,1240,cs),
(2356,1053,l),
(2211,1502,ls),
(2199,1548,o),
(2163,1569,o),
(2121,1572,cs),
(2072,1572,o),
(2033,1542,o),
(2027,1496,c),
(1922,1002,l),
(1807,1789,ls),
(1801,1840,o),
(1774,1867,o),
(1723,1867,cs),
(1671,1867,o),
(1644,1840,o),
(1638,1789,cs),
(1406,253,ls),
(1400,208,o),
(1433,163,o),
(1478,157,cs),
(1526,151,o),
(1572,184,o),
(1578,229,cs),
(1723,1213,l),
(1816,558,ls),
(1825,507,o),
(1861,477,o),
(1904,477,cs),
(1952,474,o),
(1985,504,o),
(1997,555,cs),
(2136,1195,l),
(2244,851,ls),
(2253,815,o),
(2287,787,o),
(2323,781,cs),
(2374,775,o),
(2401,802,o),
(2422,836,cs),
(2594,1104,l),
(2697,1104,l),
(2700,1080,o),
(2700,1053,o),
(2700,1026,cs),
(2700,335,o),
(2139,-226,o),
(1448,-226,cs),
(890,-226,o),
(416,139,o),
(256,643,c),
(51,643,l),
(220,27,o),
(781,-422,o),
(1448,-422,cs)
);
}
);
width = 2896;
},
{
layerId = "B1F27B51-9973-4381-9301-4FE46FE1CA59";
shapes = (
{
closed = 1;
nodes = (
(1226,184,o),
(1250,212,o),
(1258,262,cs),
(1490,1798,ls),
(1496,1844,o),
(1464,1888,o),
(1416,1894,cs),
(1370,1902,o),
(1324,1868,o),
(1318,1822,cs),
(1174,840,l),
(1078,1494,ls),
(1072,1546,o),
(1036,1576,o),
(992,1576,cs),
(944,1578,o),
(908,1548,o),
(900,1496,cs),
(760,858,l),
(652,1202,ls),
(644,1238,o),
(610,1264,o),
(574,1270,cs),
(522,1276,o),
(492,1250,o),
(472,1216,cs),
(302,948,l),
(200,948,l),
(196,972,o),
(196,1000,o),
(196,1026,cs),
(196,1716,o),
(758,2278,o),
(1448,2278,cs),
(2006,2278,o),
(2480,1914,o),
(2640,1410,c),
(2846,1410,l),
(2676,2024,o),
(2116,2474,o),
(1448,2474,cs),
(650,2474,o),
(0,1826,o),
(0,1026,cs),
(0,938,o),
(10,854,o),
(22,772,c),
(344,772,ls),
(386,772,o),
(410,784,o),
(426,812,cs),
(540,1000,l),
(682,550,ls),
(698,504,o),
(730,484,o),
(776,480,cs),
(824,480,o),
(860,510,o),
(870,556,cs),
(974,1050,l),
(1090,262,ls),
(1096,212,o),
(1122,184,o),
(1174,184,cs)
);
},
{
closed = 1;
nodes = (
(2248,-422,o),
(2896,226,o),
(2896,1026,cs),
(2896,1114,o),
(2888,1198,o),
(2876,1280,c),
(2552,1280,ls),
(2510,1280,o),
(2486,1268,o),
(2472,1240,cs),
(2356,1054,l),
(2212,1502,ls),
(2200,1548,o),
(2164,1570,o),
(2122,1572,cs),
(2072,1572,o),
(2034,1542,o),
(2028,1496,c),
(1922,1002,l),
(1808,1790,ls),
(1802,1840,o),
(1774,1868,o),
(1724,1868,cs),
(1672,1868,o),
(1644,1840,o),
(1638,1790,cs),
(1406,254,ls),
(1400,208,o),
(1434,164,o),
(1478,158,cs),
(1526,152,o),
(1572,184,o),
(1578,230,cs),
(1724,1214,l),
(1816,558,ls),
(1826,508,o),
(1862,478,o),
(1904,478,cs),
(1952,474,o),
(1986,504,o),
(1998,556,cs),
(2136,1196,l),
(2244,852,ls),
(2254,816,o),
(2288,788,o),
(2324,782,cs),
(2374,776,o),
(2402,802,o),
(2422,836,cs),
(2594,1104,l),
(2698,1104,l),
(2700,1080,o),
(2700,1054,o),
(2700,1026,cs),
(2700,336,o),
(2140,-226,o),
(1448,-226,cs),
(890,-226,o),
(416,140,o),
(256,644,c),
(52,644,l),
(220,28,o),
(782,-422,o),
(1448,-422,cs)
);
}
);
width = 2896;
},
{
layerId = "5C20EF92-B63D-42A8-8878-93C2863E0093";
shapes = (
{
closed = 1;
nodes = (
(1226,184,o),
(1250,212,o),
(1258,262,cs),
(1490,1798,ls),
(1496,1844,o),
(1464,1888,o),
(1416,1894,cs),
(1370,1902,o),
(1324,1868,o),
(1318,1822,cs),
(1174,840,l),
(1078,1494,ls),
(1072,1546,o),
(1036,1576,o),
(992,1576,cs),
(944,1578,o),
(908,1548,o),
(900,1496,cs),
(760,858,l),
(652,1202,ls),
(644,1238,o),
(610,1264,o),
(574,1270,cs),
(522,1276,o),
(492,1250,o),
(472,1216,cs),
(302,948,l),
(200,948,l),
(196,972,o),
(196,1000,o),
(196,1026,cs),
(196,1716,o),
(758,2278,o),
(1448,2278,cs),
(2006,2278,o),
(2480,1914,o),
(2640,1410,c),
(2846,1410,l),
(2676,2024,o),
(2116,2474,o),
(1448,2474,cs),
(650,2474,o),
(0,1826,o),
(0,1026,cs),
(0,938,o),
(10,854,o),
(22,772,c),
(344,772,ls),
(386,772,o),
(410,784,o),
(426,812,cs),
(540,1000,l),
(682,550,ls),
(698,504,o),
(730,484,o),
(776,480,cs),
(824,480,o),
(860,510,o),
(870,556,cs),
(974,1050,l),
(1090,262,ls),
(1096,212,o),
(1122,184,o),
(1174,184,cs)
);
},
{
closed = 1;
nodes = (
(2248,-422,o),
(2896,226,o),
(2896,1026,cs),
(2896,1114,o),
(2888,1198,o),
(2876,1280,c),
(2552,1280,ls),
(2510,1280,o),
(2486,1268,o),
(2472,1240,cs),
(2356,1054,l),
(2212,1502,ls),
(2200,1548,o),
(2164,1570,o),
(2122,1572,cs),
(2072,1572,o),
(2034,1542,o),
(2028,1496,c),
(1922,1002,l),
(1808,1790,ls),
(1802,1840,o),
(1774,1868,o),
(1724,1868,cs),
(1672,1868,o),
(1644,1840,o),
(1638,1790,cs),
(1406,254,ls),
(1400,208,o),
(1434,164,o),
(1478,158,cs),
(1526,152,o),
(1572,184,o),
(1578,230,cs),
(1724,1214,l),
(1816,558,ls),
(1826,508,o),
(1862,478,o),
(1904,478,cs),
(1952,474,o),
(1986,504,o),
(1998,556,cs),
(2136,1196,l),
(2244,852,ls),
(2254,816,o),
(2288,788,o),
(2324,782,cs),
(2374,776,o),
(2402,802,o),
(2422,836,cs),
(2594,1104,l),
(2698,1104,l),
(2700,1080,o),
(2700,1054,o),
(2700,1026,cs),
(2700,336,o),
(2140,-226,o),
(1448,-226,cs),
(890,-226,o),
(416,140,o),
(256,644,c),
(52,644,l),
(220,28,o),
(782,-422,o),
(1448,-422,cs)
);
}
);
width = 2896;
}
);
metricWidth = symbolBase;
unicode = 1024000;
}
{
color = 11;
glyphname = logo40wonders;
layers = (
{
layerId = "CD0E3B44-F66A-4791-B84C-A1128DC61275";
shapes = (
{
closed = 1;
nodes = (
(1970,2181,ls),
(2030,2217,o),
(2048,2293,o),
(2015,2350,cs),
(1982,2410,o),
(1907,2431,o),
(1846,2395,cs),
(1394,2136,ls),
(1333,2100,o),
(1312,2024,o),
(1348,1967,cs),
(1382,1907,o),
(1457,1885,o),
(1517,1922,cs)
);
},
{
closed = 1;
nodes = (
(941,39,ls),
(1011,39,o),
(1065,94,o),
(1065,160,cs),
(1065,229,o),
(1011,284,o),
(941,284,cs),
(416,284,ls),
(350,284,o),
(296,229,o),
(296,160,cs),
(296,94,o),
(350,39,o),
(416,39,cs)
);
},
{
closed = 1;
nodes = (
(573,389,o),
(649,410,o),
(685,468,cs),
(718,528,o),
(697,603,o),
(640,637,cs),
(184,899,ls),
(127,932,o),
(51,914,o),
(15,854,cs),
(-18,796,o),
(3,718,o),
(60,685,cs),
(516,422,ls)
);
},
{
closed = 1;
nodes = (
(1502,-84,ls),
(1563,-48,o),
(1584,27,o),
(1548,84,cs),
(1514,145,o),
(1439,166,o),
(1379,130,cs),
(926,-130,ls),
(866,-166,o),
(848,-241,o),
(881,-299,cs),
(914,-359,o),
(989,-380,o),
(1050,-344,cs)
);
},
{
closed = 1;
nodes = (
(567,959,o),
(588,1035,o),
(552,1095,cs),
(293,1548,ls),
(256,1608,o),
(181,1626,o),
(124,1593,cs),
(63,1560,o),
(42,1484,o),
(78,1424,cs),
(338,971,ls),
(374,911,o),
(449,890,o),
(507,926,cs)
);
},
{
closed = 1;
nodes = (
(1680,-440,o),
(1756,-419,o),
(1789,-362,cs),
(2051,94,ls),
(2085,151,o),
(2063,226,o),
(2006,262,cs),
(1946,296,o),
(1870,275,o),
(1837,217,cs),
(1575,-238,ls),
(1542,-296,o),
(1560,-371,o),
(1620,-404,cs)
);
},
{
closed = 1;
nodes = (
(652,1409,o),
(706,1463,o),
(706,1532,cs),
(706,2054,ls),
(706,2124,o),
(652,2178,o),
(582,2178,cs),
(516,2178,o),
(459,2124,o),
(459,2054,cs),
(459,1532,ls),
(459,1463,o),
(516,1409,o),
(582,1409,cs)
);
},
{
closed = 1;
nodes = (
(2380,-127,o),
(2434,-72,o),
(2434,-3,cs),
(2434,519,ls),
(2434,588,o),
(2380,643,o),
(2314,643,cs),
(2244,643,o),
(2190,588,o),
(2190,519,cs),
(2190,-3,ls),
(2190,-72,o),
(2244,-127,o),
(2314,-127,cs)
);
},
{
closed = 1;
nodes = (
(950,1756,o),
(1026,1777,o),
(1059,1834,cs),
(1321,2290,ls),
(1354,2347,o),
(1336,2422,o),
(1276,2456,cs),
(1216,2492,o),
(1140,2471,o),
(1107,2413,cs),
(845,1958,ls),
(811,1901,o),
(833,1825,o),
(890,1789,cs)
);
},
{
closed = 1;
nodes = (
(2833,492,o),
(2854,567,o),
(2818,627,cs),
(2558,1080,ls),
(2522,1140,o),
(2447,1161,o),
(2389,1125,cs),
(2329,1092,o),
(2308,1017,o),
(2344,956,cs),
(2603,504,ls),
(2640,443,o),
(2715,425,o),
(2772,459,cs)
);
},
{
closed = 1;
nodes = (
(2769,1119,o),
(2845,1137,o),
(2878,1198,cs),
(2914,1258,o),
(2893,1333,o),
(2836,1367,cs),
(2380,1629,ls),
(2323,1662,o),
(2247,1641,o),
(2211,1584,cs),
(2178,1523,o),
(2199,1448,o),
(2256,1415,cs),
(2712,1152,ls)
);
},
{
closed = 1;
nodes = (
(2477,1768,ls),
(2546,1768,o),
(2600,1822,o),
(2600,1891,cs),
(2600,1958,o),
(2546,2015,o),
(2477,2015,cs),
(1955,2015,ls),
(1885,2015,o),
(1831,1958,o),
(1831,1891,cs),
(1831,1822,o),
(1885,1768,o),
(1955,1768,cs)
);
}
);
width = 2896;
},
{
layerId = "B1F27B51-9973-4381-9301-4FE46FE1CA59";
shapes = (
{
closed = 1;
nodes = (
(1970,2182,ls),
(2030,2218,o),
(2048,2294,o),
(2016,2350,cs),
(1982,2410,o),
(1908,2432,o),
(1846,2396,cs),
(1394,2136,ls),
(1334,2100,o),
(1312,2024,o),
(1348,1968,cs),
(1382,1908,o),
(1458,1886,o),
(1518,1922,cs)
);
},
{
closed = 1;
nodes = (
(942,40,ls),
(1012,40,o),
(1066,94,o),
(1066,160,cs),
(1066,230,o),
(1012,284,o),
(942,284,cs),
(416,284,ls),
(350,284,o),
(296,230,o),
(296,160,cs),
(296,94,o),
(350,40,o),
(416,40,cs)
);
},
{
closed = 1;
nodes = (
(574,390,o),
(650,410,o),
(686,468,cs),
(718,528,o),
(698,604,o),
(640,638,cs),
(184,900,ls),
(128,932,o),
(52,914,o),
(16,854,cs),
(-18,796,o),
(4,718,o),
(60,686,cs),
(516,422,ls)
);
},
{
closed = 1;
nodes = (
(1502,-84,ls),
(1564,-48,o),
(1584,28,o),
(1548,84,cs),
(1514,146,o),
(1440,166,o),
(1380,130,cs),
(926,-130,ls),
(866,-166,o),
(848,-240,o),
(882,-298,cs),
(914,-358,o),
(990,-380,o),
(1050,-344,cs)
);
},
{
closed = 1;
nodes = (
(568,960,o),
(588,1036,o),
(552,1096,cs),
(294,1548,ls),
(256,1608,o),
(182,1626,o),
(124,1594,cs),
(64,1560,o),
(42,1484,o),
(78,1424,cs),
(338,972,ls),
(374,912,o),
(450,890,o),
(508,926,cs)
);
},
{
closed = 1;
nodes = (
(1680,-440,o),
(1756,-418,o),
(1790,-362,cs),
(2052,94,ls),
(2086,152,o),
(2064,226,o),
(2006,262,cs),
(1946,296,o),
(1870,276,o),
(1838,218,cs),
(1576,-238,ls),
(1542,-296,o),
(1560,-370,o),
(1620,-404,cs)
);
},
{
closed = 1;
nodes = (
(652,1410,o),
(706,1464,o),
(706,1532,cs),
(706,2054,ls),
(706,2124,o),
(652,2178,o),
(582,2178,cs),
(516,2178,o),
(460,2124,o),
(460,2054,cs),
(460,1532,ls),
(460,1464,o),
(516,1410,o),
(582,1410,cs)
);
},
{
closed = 1;
nodes = (
(2380,-126,o),
(2434,-72,o),
(2434,-2,cs),
(2434,520,ls),
(2434,588,o),
(2380,644,o),
(2314,644,cs),
(2244,644,o),
(2190,588,o),
(2190,520,cs),
(2190,-2,ls),
(2190,-72,o),
(2244,-126,o),
(2314,-126,cs)
);
},
{
closed = 1;
nodes = (
(950,1756,o),
(1026,1778,o),
(1060,1834,cs),
(1322,2290,ls),
(1354,2348,o),
(1336,2422,o),
(1276,2456,cs),
(1216,2492,o),
(1140,2472,o),
(1108,2414,cs),
(846,1958,ls),
(812,1902,o),
(834,1826,o),
(890,1790,cs)
);
},
{
closed = 1;
nodes = (
(2834,492,o),
(2854,568,o),
(2818,628,cs),
(2558,1080,ls),
(2522,1140,o),
(2448,1162,o),
(2390,1126,cs),
(2330,1092,o),
(2308,1018,o),
(2344,956,cs),
(2604,504,ls),
(2640,444,o),
(2716,426,o),
(2772,460,cs)
);
},
{
closed = 1;
nodes = (
(2770,1120,o),
(2846,1138,o),
(2878,1198,cs),
(2914,1258,o),
(2894,1334,o),
(2836,1368,cs),
(2380,1630,ls),
(2324,1662,o),
(2248,1642,o),
(2212,1584,cs),
(2178,1524,o),
(2200,1448,o),
(2256,1416,cs),
(2712,1152,ls)
);
},
{
closed = 1;
nodes = (
(2478,1768,ls),
(2546,1768,o),
(2600,1822,o),
(2600,1892,cs),
(2600,1958,o),
(2546,2016,o),
(2478,2016,cs),
(1956,2016,ls),
(1886,2016,o),
(1832,1958,o),
(1832,1892,cs),
(1832,1822,o),
(1886,1768,o),
(1956,1768,cs)
);
}
);
width = 2896;
},
{
layerId = "5C20EF92-B63D-42A8-8878-93C2863E0093";
shapes = (
{
closed = 1;
nodes = (
(1970,2182,ls),
(2030,2218,o),
(2048,2294,o),
(2016,2350,cs),
(1982,2410,o),
(1908,2432,o),
(1846,2396,cs),
(1394,2136,ls),
(1334,2100,o),
(1312,2024,o),
(1348,1968,cs),
(1382,1908,o),
(1458,1886,o),
(1518,1922,cs)
);
},
{
closed = 1;
nodes = (
(942,40,ls),
(1012,40,o),
(1066,94,o),
(1066,160,cs),
(1066,230,o),
(1012,284,o),
(942,284,cs),
(416,284,ls),
(350,284,o),
(296,230,o),
(296,160,cs),
(296,94,o),
(350,40,o),
(416,40,cs)
);
},
{
closed = 1;
nodes = (
(574,390,o),
(650,410,o),
(686,468,cs),
(718,528,o),
(698,604,o),
(640,638,cs),
(184,900,ls),
(128,932,o),
(52,914,o),
(16,854,cs),
(-18,796,o),
(4,718,o),
(60,686,cs),
(516,422,ls)
);
},
{
closed = 1;
nodes = (
(1502,-84,ls),
(1564,-48,o),
(1584,28,o),
(1548,84,cs),
(1514,146,o),
(1440,166,o),
(1380,130,cs),
(926,-130,ls),
(866,-166,o),
(848,-240,o),
(882,-298,cs),
(914,-358,o),
(990,-380,o),
(1050,-344,cs)
);
},
{
closed = 1;
nodes = (
(568,960,o),
(588,1036,o),
(552,1096,cs),
(294,1548,ls),
(256,1608,o),
(182,1626,o),
(124,1594,cs),
(64,1560,o),
(42,1484,o),
(78,1424,cs),
(338,972,ls),
(374,912,o),
(450,890,o),
(508,926,cs)
);
},
{
closed = 1;
nodes = (
(1680,-440,o),
(1756,-418,o),
(1790,-362,cs),
(2052,94,ls),
(2086,152,o),
(2064,226,o),
(2006,262,cs),
(1946,296,o),
(1870,276,o),
(1838,218,cs),
(1576,-238,ls),
(1542,-296,o),
(1560,-370,o),
(1620,-404,cs)
);
},
{
closed = 1;
nodes = (
(652,1410,o),
(706,1464,o),
(706,1532,cs),
(706,2054,ls),
(706,2124,o),
(652,2178,o),
(582,2178,cs),
(516,2178,o),
(460,2124,o),
(460,2054,cs),
(460,1532,ls),
(460,1464,o),
(516,1410,o),
(582,1410,cs)
);
},
{
closed = 1;
nodes = (
(2380,-126,o),
(2434,-72,o),
(2434,-2,cs),
(2434,520,ls),
(2434,588,o),
(2380,644,o),
(2314,644,cs),
(2244,644,o),
(2190,588,o),
(2190,520,cs),
(2190,-2,ls),
(2190,-72,o),
(2244,-126,o),
(2314,-126,cs)
);
},
{
closed = 1;
nodes = (
(950,1756,o),
(1026,1778,o),
(1060,1834,cs),
(1322,2290,ls),
(1354,2348,o),
(1336,2422,o),
(1276,2456,cs),
(1216,2492,o),
(1140,2472,o),
(1108,2414,cs),
(846,1958,ls),
(812,1902,o),
(834,1826,o),
(890,1790,cs)
);
},
{
closed = 1;
nodes = (
(2834,492,o),
(2854,568,o),
(2818,628,cs),
(2558,1080,ls),
(2522,1140,o),
(2448,1162,o),
(2390,1126,cs),
(2330,1092,o),
(2308,1018,o),
(2344,956,cs),
(2604,504,ls),
(2640,444,o),
(2716,426,o),
(2772,460,cs)
);
},
{
closed = 1;
nodes = (
(2770,1120,o),
(2846,1138,o),
(2878,1198,cs),
(2914,1258,o),
(2894,1334,o),
(2836,1368,cs),
(2380,1630,ls),
(2324,1662,o),
(2248,1642,o),
(2212,1584,cs),
(2178,1524,o),
(2200,1448,o),
(2256,1416,cs),
(2712,1152,ls)
);
},
{
closed = 1;
nodes = (
(2478,1768,ls),
(2546,1768,o),
(2600,1822,o),
(2600,1892,cs),
(2600,1958,o),
(2546,2016,o),
(2478,2016,cs),
(1956,2016,ls),
(1886,2016,o),
(1832,1958,o),
(1832,1892,cs),
(1832,1822,o),
(1886,1768,o),
(1956,1768,cs)
);
}
);
width = 2896;
}
);
metricWidth = symbolBase;
unicode = 1024001;
}
{
color = 11;
glyphname = logoWemixdollar;
layers = (
{
layerId = "CD0E3B44-F66A-4791-B84C-A1128DC61275";
shapes = (
{
closed = 1;
nodes = (
(2247,-422,o),
(2896,226,o),
(2896,1026,cs),
(2896,1825,o),
(2247,2474,o),
(1448,2474,cs),
(649,2474,o),
(0,1825,o),
(0,1026,cs),
(0,226,o),
(649,-422,o),
(1448,-422,cs)
);
},
{
closed = 1;
nodes = (
(1421,-220,o),
(1394,-220,o),
(1367,-217,c),
(1367,223,l),
(1140,244,o),
(974,353,o),
(869,543,c),
(1122,742,l),
(1189,621,o),
(1321,401,o),
(1385,302,c),
(1514,299,o),
(1632,422,o),
(1629,552,cs),
(1629,649,o),
(1557,727,o),
(1481,784,cs),
(1321,905,o),
(1086,1002,o),
(977,1177,cs),
(896,1300,o),
(899,1481,o),
(986,1605,cs),
(1065,1726,o),
(1219,1801,o),
(1367,1819,c),
(1367,2109,l),
(805,2066,o),
(362,1599,o),
(362,1026,cs),
(362,510,o),
(724,75,o),
(1207,-33,c),
(1207,-199,l),
(634,-84,o),
(202,419,o),
(202,1026,cs),
(202,1713,o),
(760,2272,o),
(1448,2272,cs),
(1526,2272,l),
(1526,1831,l),
(1735,1825,o),
(1870,1759,o),
(2003,1614,c),
(2003,1611,l),
(1747,1409,l),
(1668,1529,o),
(1593,1644,o),
(1514,1750,c),
(1388,1753,o),
(1300,1674,o),
(1303,1551,cs),
(1306,1448,o),
(1376,1367,o),
(1454,1306,cs),
(1617,1180,o),
(1861,1068,o),
(1967,890,cs),
(2048,763,o),
(2045,591,o),
(1967,462,cs),
(1879,317,o),
(1707,238,o),
(1529,223,c),
(1529,-57,l),
(2091,-15,o),
(2534,453,o),
(2534,1026,cs),
(2534,1542,o),
(2172,1976,o),
(1689,2085,c),
(1689,2250,l),
(2263,2136,o),
(2694,1632,o),
(2694,1026,cs),
(2694,338,o),
(2136,-220,o),
(1448,-220,cs)
);
}
);
width = 2896;
},
{
layerId = "B1F27B51-9973-4381-9301-4FE46FE1CA59";
shapes = (
{
closed = 1;
nodes = (
(2248,-422,o),
(2896,226,o),
(2896,1026,cs),
(2896,1826,o),
(2248,2474,o),
(1448,2474,cs),
(650,2474,o),
(0,1826,o),
(0,1026,cs),
(0,226,o),
(650,-422,o),
(1448,-422,cs)
);
},
{
closed = 1;
nodes = (
(1422,-220,o),
(1394,-220,o),
(1368,-216,c),
(1368,224,l),
(1140,244,o),
(974,354,o),
(870,544,c),
(1122,742,l),
(1190,622,o),
(1322,402,o),
(1386,302,c),
(1514,300,o),
(1632,422,o),
(1630,552,cs),
(1630,650,o),
(1558,728,o),
(1482,784,cs),
(1322,906,o),
(1086,1002,o),
(978,1178,cs),
(896,1300,o),
(900,1482,o),
(986,1606,cs),
(1066,1726,o),
(1220,1802,o),
(1368,1820,c),
(1368,2110,l),
(806,2066,o),
(362,1600,o),
(362,1026,cs),
(362,510,o),
(724,76,o),
(1208,-32,c),
(1208,-198,l),
(634,-84,o),
(202,420,o),
(202,1026,cs),
(202,1714,o),
(760,2272,o),
(1448,2272,cs),
(1526,2272,l),
(1526,1832,l),
(1736,1826,o),
(1870,1760,o),
(2004,1614,c),
(2004,1612,l),
(1748,1410,l),
(1668,1530,o),
(1594,1644,o),
(1514,1750,c),
(1388,1754,o),
(1300,1674,o),
(1304,1552,cs),
(1306,1448,o),
(1376,1368,o),
(1454,1306,cs),
(1618,1180,o),
(1862,1068,o),
(1968,890,cs),
(2048,764,o),
(2046,592,o),
(1968,462,cs),
(1880,318,o),
(1708,238,o),
(1530,224,c),
(1530,-56,l),
(2092,-14,o),
(2534,454,o),
(2534,1026,cs),
(2534,1542,o),
(2172,1976,o),
(1690,2086,c),
(1690,2250,l),
(2264,2136,o),
(2694,1632,o),
(2694,1026,cs),
(2694,338,o),
(2136,-220,o),
(1448,-220,cs)
);
}
);
width = 2896;
},
{
layerId = "5C20EF92-B63D-42A8-8878-93C2863E0093";
shapes = (
{
closed = 1;
nodes = (
(2248,-422,o),
(2896,226,o),
(2896,1026,cs),
(2896,1826,o),
(2248,2474,o),
(1448,2474,cs),
(650,2474,o),
(0,1826,o),
(0,1026,cs),
(0,226,o),
(650,-422,o),
(1448,-422,cs)
);
},
{
closed = 1;
nodes = (
(1422,-220,o),
(1394,-220,o),
(1368,-216,c),
(1368,224,l),
(1140,244,o),
(974,354,o),
(870,544,c),
(1122,742,l),
(1190,622,o),
(1322,402,o),
(1386,302,c),
(1514,300,o),
(1632,422,o),
(1630,552,cs),
(1630,650,o),
(1558,728,o),
(1482,784,cs),
(1322,906,o),
(1086,1002,o),
(978,1178,cs),
(896,1300,o),
(900,1482,o),
(986,1606,cs),
(1066,1726,o),
(1220,1802,o),
(1368,1820,c),
(1368,2110,l),
(806,2066,o),
(362,1600,o),
(362,1026,cs),
(362,510,o),
(724,76,o),
(1208,-32,c),
(1208,-198,l),
(634,-84,o),
(202,420,o),
(202,1026,cs),
(202,1714,o),
(760,2272,o),
(1448,2272,cs),
(1526,2272,l),
(1526,1832,l),
(1736,1826,o),
(1870,1760,o),
(2004,1614,c),
(2004,1612,l),
(1748,1410,l),
(1668,1530,o),
(1594,1644,o),
(1514,1750,c),
(1388,1754,o),
(1300,1674,o),
(1304,1552,cs),
(1306,1448,o),
(1376,1368,o),
(1454,1306,cs),
(1618,1180,o),
(1862,1068,o),
(1968,890,cs),
(2048,764,o),
(2046,592,o),
(1968,462,cs),
(1880,318,o),
(1708,238,o),
(1530,224,c),
(1530,-56,l),
(2092,-14,o),
(2534,454,o),
(2534,1026,cs),
(2534,1542,o),
(2172,1976,o),
(1690,2086,c),
(1690,2250,l),
(2264,2136,o),
(2694,1632,o),
(2694,1026,cs),
(2694,338,o),
(2136,-220,o),
(1448,-220,cs)
);
}
);
width = 2896;
}
);
metricWidth = symbolBase;
unicode = 1024004;
}
{
color = 11;
glyphname = logoWemixplay;
layers = (
{
layerId = "CD0E3B44-F66A-4791-B84C-A1128DC61275";
shapes = (
{
closed = 1;
nodes = (
(2637,1140,l),
(259,2561,l),
(259,1852,l),
(2088,760,l)
);
},
{
closed = 1;
nodes = (
(869,1300,l),
(259,1662,l),
(259,-145,l),
(869,-510,l)
);
},
{
closed = 1;
nodes = (
(1940,658,l),
(1370,999,l),
(1029,763,l),
(1029,24,l)
);
}
);
width = 2896;
},
{
layerId = "B1F27B51-9973-4381-9301-4FE46FE1CA59";
shapes = (
{
closed = 1;
nodes = (
(2638,1140,l),
(260,2562,l),
(260,1852,l),
(2088,760,l)
);
},
{
closed = 1;
nodes = (
(870,1300,l),
(260,1662,l),
(260,-144,l),
(870,-510,l)
);
},
{
closed = 1;
nodes = (
(1940,658,l),
(1370,1000,l),
(1030,764,l),
(1030,24,l)
);
}
);
width = 2896;
},
{
layerId = "5C20EF92-B63D-42A8-8878-93C2863E0093";
shapes = (
{
closed = 1;
nodes = (
(2638,1140,l),
(260,2562,l),
(260,1852,l),
(2088,760,l)
);
},
{
closed = 1;
nodes = (
(870,1300,l),
(260,1662,l),
(260,-144,l),
(870,-510,l)
);
},
{
closed = 1;
nodes = (
(1940,658,l),
(1370,1000,l),
(1030,764,l),
(1030,24,l)
);
}
);
width = 2896;
}
);
metricWidth = symbolBase;
unicode = 1024007;
}
{
color = 11;
glyphname = logoBtcFill;
layers = (
{
layerId = "CD0E3B44-F66A-4791-B84C-A1128DC61275";
shapes = (
{
closed = 1;
nodes = (
(1873,-573,o),
(2658,-100,o),
(2854,676,cs),
(3047,1451,o),
(2573,2238,o),
(1798,2431,cs),
(1023,2625,o),
(238,2151,o),
(42,1376,cs),
(-151,600,o),
(323,-187,o),
(1098,-380,cs)
);
},
{
closed = 1;
nodes = (
(1394,612,o),
(1677,543,o),
(1723,724,cs),
(1771,908,o),
(1496,968,o),
(1361,999,cs),
(1321,1008,l),
(1234,661,l),
(1264,652,ls)
);
},
{
closed = 1;
nodes = (
(1246,175,l),
(1309,434,l),
(1183,468,l),
(1116,208,l),
(959,247,l),
(1026,510,l),
(902,543,o),
(830,561,o),
(706,591,c),
(784,772,l),
(899,745,ls),
(944,733,o),
(965,763,o),
(971,781,cs),
(1149,1496,ls),
(1158,1529,o),
(1140,1575,o),
(1077,1590,cs),
(959,1617,l),
(1002,1789,l),
(1324,1707,l),
(1388,1970,l),
(1548,1931,l),
(1484,1674,l),
(1611,1644,l),
(1674,1897,l),
(1834,1858,l),
(1768,1599,l),
(1970,1529,o),
(2115,1424,o),
(2088,1231,cs),
(2066,1092,o),
(1988,1023,o),
(1882,999,c),
(2027,923,o),
(2100,811,o),
(2030,612,cs),
(1943,368,o),
(1741,347,o),
(1469,398,c),
(1403,136,l)
);
},
{
closed = 1;
nodes = (
(1496,1134,o),
(1732,1071,o),
(1774,1234,cs),
(1813,1403,o),
(1587,1454,o),
(1469,1481,cs),
(1442,1487,l),
(1361,1170,l),
(1394,1161,ls)
);
}
);
width = 2896;
},
{
layerId = "B1F27B51-9973-4381-9301-4FE46FE1CA59";
shapes = (
{
closed = 1;
nodes = (
(1874,-572,o),
(2658,-100,o),
(2854,676,cs),
(3048,1452,o),
(2574,2238,o),
(1798,2432,cs),
(1024,2626,o),
(238,2152,o),
(42,1376,cs),
(-150,600,o),
(324,-186,o),
(1098,-380,cs)
);
},
{
closed = 1;
nodes = (
(1394,612,o),
(1678,544,o),
(1724,724,cs),
(1772,908,o),
(1496,968,o),
(1362,1000,cs),
(1322,1008,l),
(1234,662,l),
(1264,652,ls)
);
},
{
closed = 1;
nodes = (
(1246,176,l),
(1310,434,l),
(1184,468,l),
(1116,208,l),
(960,248,l),
(1026,510,l),
(902,544,o),
(830,562,o),
(706,592,c),
(784,772,l),
(900,746,ls),
(944,734,o),
(966,764,o),
(972,782,cs),
(1150,1496,ls),
(1158,1530,o),
(1140,1576,o),
(1078,1590,cs),
(960,1618,l),
(1002,1790,l),
(1324,1708,l),
(1388,1970,l),
(1548,1932,l),
(1484,1674,l),
(1612,1644,l),
(1674,1898,l),
(1834,1858,l),
(1768,1600,l),
(1970,1530,o),
(2116,1424,o),
(2088,1232,cs),
(2066,1092,o),
(1988,1024,o),
(1882,1000,c),
(2028,924,o),
(2100,812,o),
(2030,612,cs),
(1944,368,o),
(1742,348,o),
(1470,398,c),
(1404,136,l)
);
},
{
closed = 1;
nodes = (
(1496,1134,o),
(1732,1072,o),
(1774,1234,cs),
(1814,1404,o),
(1588,1454,o),
(1470,1482,cs),
(1442,1488,l),
(1362,1170,l),
(1394,1162,ls)
);
}
);
width = 2896;
},
{
layerId = "5C20EF92-B63D-42A8-8878-93C2863E0093";
shapes = (
{
closed = 1;
nodes = (
(1874,-572,o),
(2658,-100,o),
(2854,676,cs),
(3048,1452,o),
(2574,2238,o),
(1798,2432,cs),
(1024,2626,o),
(238,2152,o),
(42,1376,cs),
(-150,600,o),
(324,-186,o),
(1098,-380,cs)
);
},
{
closed = 1;
nodes = (
(1394,612,o),
(1678,544,o),
(1724,724,cs),
(1772,908,o),
(1496,968,o),
(1362,1000,cs),
(1322,1008,l),
(1234,662,l),
(1264,652,ls)
);
},
{
closed = 1;
nodes = (
(1246,176,l),
(1310,434,l),
(1184,468,l),
(1116,208,l),
(960,248,l),
(1026,510,l),
(902,544,o),
(830,562,o),
(706,592,c),
(784,772,l),
(900,746,ls),
(944,734,o),
(966,764,o),
(972,782,cs),
(1150,1496,ls),
(1158,1530,o),
(1140,1576,o),
(1078,1590,cs),
(960,1618,l),
(1002,1790,l),
(1324,1708,l),
(1388,1970,l),
(1548,1932,l),
(1484,1674,l),
(1612,1644,l),
(1674,1898,l),
(1834,1858,l),
(1768,1600,l),
(1970,1530,o),
(2116,1424,o),
(2088,1232,cs),
(2066,1092,o),
(1988,1024,o),
(1882,1000,c),
(2028,924,o),
(2100,812,o),
(2030,612,cs),
(1944,368,o),
(1742,348,o),
(1470,398,c),
(1404,136,l)
);
},
{
closed = 1;
nodes = (
(1496,1134,o),
(1732,1072,o),
(1774,1234,cs),
(1814,1404,o),
(1588,1454,o),
(1470,1482,cs),
(1442,1488,l),
(1362,1170,l),
(1394,1162,ls)
);
}
);
width = 2896;
}
);
metricWidth = symbolBase;
unicode = 1024013;
}
{
color = 11;
glyphname = logoKleva;
layers = (
{
layerId = "CD0E3B44-F66A-4791-B84C-A1128DC61275";
shapes = (
{
closed = 1;
nodes = (
(2580,-96,ls),
(2592,-96,o),
(2600,-80,o),
(2594,-68,cs),
(2264,498,ls),
(2256,510,o),
(2242,510,o),
(2232,502,cs),
(1882,122,ls),
(1874,112,o),
(1862,122,o),
(1868,130,cs),
(2602,1386,ls),
(2608,1396,o),
(2608,1406,o),
(2602,1416,cs),
(2188,2122,ls),
(2182,2134,o),
(2164,2134,o),
(2158,2122,cs),
(1304,668,ls),
(1298,658,o),
(1298,646,o),
(1304,638,cs),
(1726,-80,ls),
(1732,-90,o),
(1742,-96,o),
(1750,-96,cs)
);
},
{
closed = 1;
nodes = (
(716,-80,o),
(734,-80,o),
(740,-68,cs),
(1594,1386,ls),
(1600,1394,o),
(1600,1406,o),
(1594,1416,cs),
(1170,2134,ls),
(1164,2142,o),
(1156,2148,o),
(1146,2148,cs),
(318,2148,ls),
(306,2148,o),
(296,2134,o),
(302,2122,cs),
(634,1554,ls),
(640,1542,o),
(658,1542,o),
(664,1552,c),
(1014,1934,l),
(1024,1940,o),
(1036,1932,o),
(1030,1922,cs),
(294,668,ls),
(288,658,o),
(288,646,o),
(294,638,cs),
(710,-68,ls)
);
}
);
width = 2896;
},
{
layerId = "B1F27B51-9973-4381-9301-4FE46FE1CA59";
shapes = (
{
closed = 1;
nodes = (
(2580,-96,ls),
(2592,-96,o),
(2600,-80,o),
(2594,-68,cs),
(2264,498,ls),
(2256,510,o),
(2242,510,o),
(2232,502,cs),
(1882,122,ls),
(1874,112,o),
(1862,122,o),
(1868,130,cs),
(2602,1386,ls),
(2608,1396,o),
(2608,1406,o),
(2602,1416,cs),
(2188,2122,ls),
(2182,2134,o),
(2164,2134,o),
(2158,2122,cs),
(1304,668,ls),
(1298,658,o),
(1298,646,o),
(1304,638,cs),
(1726,-80,ls),
(1732,-90,o),
(1742,-96,o),
(1750,-96,cs)
);
},
{
closed = 1;
nodes = (
(716,-80,o),
(734,-80,o),
(740,-68,cs),
(1594,1386,ls),
(1600,1394,o),
(1600,1406,o),
(1594,1416,cs),
(1170,2134,ls),
(1164,2142,o),
(1156,2148,o),
(1146,2148,cs),
(318,2148,ls),
(306,2148,o),
(296,2134,o),
(302,2122,cs),
(634,1554,ls),
(640,1542,o),
(658,1542,o),
(664,1552,c),
(1014,1934,l),
(1024,1940,o),
(1036,1932,o),
(1030,1922,cs),
(294,668,ls),
(288,658,o),
(288,646,o),
(294,638,cs),
(710,-68,ls)
);
}
);
width = 2896;
},
{
layerId = "5C20EF92-B63D-42A8-8878-93C2863E0093";
shapes = (
{
closed = 1;
nodes = (
(2580,-96,ls),
(2592,-96,o),
(2600,-80,o),
(2594,-68,cs),
(2264,498,ls),
(2256,510,o),
(2242,510,o),
(2232,502,cs),
(1882,122,ls),
(1874,112,o),
(1862,122,o),
(1868,130,cs),
(2602,1386,ls),
(2608,1396,o),
(2608,1406,o),
(2602,1416,cs),
(2188,2122,ls),
(2182,2134,o),
(2164,2134,o),
(2158,2122,cs),
(1304,668,ls),
(1298,658,o),
(1298,646,o),
(1304,638,cs),
(1726,-80,ls),
(1732,-90,o),
(1742,-96,o),
(1750,-96,cs)
);
},
{
closed = 1;
nodes = (
(716,-80,o),
(734,-80,o),
(740,-68,cs),
(1594,1386,ls),
(1600,1394,o),
(1600,1406,o),
(1594,1416,cs),
(1170,2134,ls),
(1164,2142,o),
(1156,2148,o),
(1146,2148,cs),
(318,2148,ls),
(306,2148,o),
(296,2134,o),
(302,2122,cs),
(634,1554,ls),
(640,1542,o),
(658,1542,o),
(664,1552,c),
(1014,1934,l),
(1024,1940,o),
(1036,1932,o),
(1030,1922,cs),
(294,668,ls),
(288,658,o),
(288,646,o),
(294,638,cs),
(710,-68,ls)
);
}
);
width = 2896;
}
);
metricWidth = symbolBase;
unicode = 1024016;
}
{
color = 11;
glyphname = logoWcd;
layers = (
{
layerId = "B1F27B51-9973-4381-9301-4FE46FE1CA59";
shapes = (
{
closed = 1;
nodes = (
(1575,3,l),
(2896,1759,l),
(2368,1759,l),
(1047,3,l)
);
},
{
closed = 1;
nodes = (
(781,1056,l),
(516,1406,l),
(781,1759,l),
(253,1759,l),
(-12,1406,l),
(253,1056,l)
);
},
{
closed = 1;
nodes = (
(1309,356,l),
(1047,706,l),
(1837,1759,l),
(1309,1759,l),
(516,706,l),
(781,356,l)
);
}
);
width = 2896;
},
{
layerId = "CD0E3B44-F66A-4791-B84C-A1128DC61275";
shapes = (
{
closed = 1;
nodes = (
(1575,3,l),
(2896,1759,l),
(2368,1759,l),
(1047,3,l)
);
},
{
closed = 1;
nodes = (
(781,1056,l),
(516,1406,l),
(781,1759,l),
(253,1759,l),
(-12,1406,l),
(253,1056,l)
);
},
{
closed = 1;
nodes = (
(1309,356,l),
(1047,706,l),
(1837,1759,l),
(1309,1759,l),
(516,706,l),
(781,356,l)
);
}
);
width = 2896;
},
{
layerId = "5C20EF92-B63D-42A8-8878-93C2863E0093";
shapes = (
{
closed = 1;
nodes = (
(1575,3,l),
(2896,1759,l),
(2368,1759,l),
(1047,3,l)
);
},
{
closed = 1;
nodes = (
(781,1056,l),
(516,1406,l),
(781,1759,l),
(253,1759,l),
(-12,1406,l),
(253,1056,l)
);
},
{
closed = 1;
nodes = (
(1309,356,l),
(1047,706,l),
(1837,1759,l),
(1309,1759,l),
(516,706,l),
(781,356,l)
);
}
);
width = 2896;
}
);
metricWidth = symbolBase;
unicode = 1024022;
}
{
color = 11;
glyphname = logoWcdFill;
layers = (
{
layerId = "CD0E3B44-F66A-4791-B84C-A1128DC61275";
shapes = (
{
closed = 1;
nodes = (
(2247,-422,o),
(2896,226,o),
(2896,1026,cs),
(2896,1825,o),
(2247,2474,o),
(1448,2474,cs),
(649,2474,o),
(0,1825,o),
(0,1026,cs),
(0,226,o),
(649,-422,o),
(1448,-422,cs)
);
},
{
closed = 1;
nodes = (
(754,751,l),
(950,1011,l),
(558,1011,l),
(362,1273,l),
(558,1532,l),
(950,1532,l),
(754,1273,l),
(950,1011,l),
(1342,1532,l),
(1738,1532,l),
(1146,751,l),
(1342,489,l),
(950,489,l)
);
},
{
closed = 1;
nodes = (
(2130,1532,l),
(2522,1532,l),
(1542,229,l),
(1146,229,l)
);
}
);
width = 2896;
},
{
layerId = "B1F27B51-9973-4381-9301-4FE46FE1CA59";
shapes = (
{
closed = 1;
nodes = (
(2248,-422,o),
(2896,226,o),
(2896,1026,cs),
(2896,1826,o),
(2248,2474,o),
(1448,2474,cs),
(650,2474,o),
(0,1826,o),
(0,1026,cs),
(0,226,o),
(650,-422,o),
(1448,-422,cs)
);
},
{
closed = 1;
nodes = (
(754,752,l),
(950,1012,l),
(558,1012,l),
(362,1274,l),
(558,1532,l),
(950,1532,l),
(754,1274,l),
(950,1012,l),
(1342,1532,l),
(1738,1532,l),
(1146,752,l),
(1342,490,l),
(950,490,l)
);
},
{
closed = 1;
nodes = (
(2130,1532,l),
(2522,1532,l),
(1542,230,l),
(1146,230,l)
);
}
);
width = 2896;
},
{
layerId = "5C20EF92-B63D-42A8-8878-93C2863E0093";
shapes = (
{
closed = 1;
nodes = (
(2248,-422,o),
(2896,226,o),
(2896,1026,cs),
(2896,1826,o),
(2248,2474,o),
(1448,2474,cs),
(650,2474,o),
(0,1826,o),
(0,1026,cs),
(0,226,o),
(650,-422,o),
(1448,-422,cs)
);
},
{
closed = 1;
nodes = (
(754,752,l),
(950,1012,l),
(558,1012,l),
(362,1274,l),
(558,1532,l),
(950,1532,l),
(754,1274,l),
(950,1012,l),
(1342,1532,l),
(1738,1532,l),
(1146,752,l),
(1342,490,l),
(950,490,l)
);
},
{
closed = 1;
nodes = (
(2130,1532,l),
(2522,1532,l),
(1542,230,l),
(1146,230,l)
);
}
);
width = 2896;
}
);
metricWidth = symbolBase;
unicode = 1024023;
}
{
color = 11;
glyphname = iconArrowClockwiseNumber;
layers = (
{
layerId = "CD0E3B44-F66A-4791-B84C-A1128DC61275";
shapes = (
{
closed = 1;
nodes = (
(1795,-181,o),
(2103,-39,o),
(2323,190,cs),
(2380,247,o),
(2431,314,o),
(2474,383,cs),
(2510,437,o),
(2492,513,o),
(2434,549,cs),
(2380,585,o),
(2305,567,o),
(2269,510,cs),
(2235,456,o),
(2193,404,o),
(2148,356,cs),
(1973,175,o),
(1726,60,o),
(1454,60,cs),
(920,60,o),
(489,492,o),
(489,1026,cs),
(489,1560,o),
(920,1991,o),
(1454,1991,cs),
(1707,1991,o),
(1940,1891,o),
(2112,1732,cs),
(2211,1638,o),
(2290,1523,o),
(2344,1397,cs),
(2371,1336,o),
(2440,1306,o),
(2501,1333,cs),
(2564,1358,o),
(2591,1427,o),
(2567,1490,cs),
(2501,1650,o),
(2401,1792,o),
(2278,1907,cs),
(2060,2109,o),
(1771,2232,o),
(1454,2232,cs),
(787,2232,o),
(247,1692,o),
(247,1026,cs),
(247,359,o),
(787,-181,o),
(1454,-181,cs)
);
},
{
closed = 1;
nodes = (
(1282,591,o),
(1400,736,o),
(1400,986,cs),
(1400,1237,o),
(1282,1382,o),
(1089,1382,cs),
(899,1382,o),
(781,1240,o),
(781,986,cs),
(781,736,o),
(899,591,o),
(1089,591,cs)
);
},
{
closed = 1;
nodes = (
(1002,724,o),
(944,811,o),
(944,986,cs),
(944,1161,o),
(1002,1252,o),
(1089,1252,cs),
(1180,1252,o),
(1234,1161,o),
(1234,986,cs),
(1237,811,o),
(1180,724,o),
(1089,724,cs)
);
},
{
closed = 1;
nodes = (
(2000,591,o),
(2115,736,o),
(2115,986,cs),
(2115,1237,o),
(2000,1382,o),
(1807,1382,cs),
(1614,1382,o),
(1499,1240,o),
(1499,986,cs),
(1499,736,o),
(1614,591,o),
(1807,591,cs)
);
},
{
closed = 1;
nodes = (
(1716,724,o),
(1659,811,o),
(1662,986,cs),
(1662,1161,o),
(1716,1252,o),
(1807,1252,cs),
(1894,1252,o),
(1952,1161,o),
(1952,986,cs),
(1952,811,o),
(1894,724,o),
(1807,724,cs)
);
},
{
closed = 1;
nodes = (
(2594,1267,ls),
(2661,1267,o),
(2715,1321,o),
(2715,1388,cs),
(2715,1750,ls),
(2715,1816,o),
(2661,1870,o),
(2594,1870,cs),
(2528,1870,o),
(2474,1816,o),
(2474,1750,cs),
(2474,1508,l),
(2232,1508,ls),
(2166,1508,o),
(2112,1454,o),
(2112,1388,cs),
(2112,1321,o),
(2166,1267,o),
(2232,1267,cs)
);
}
);
width = 2896;
},
{
layerId = "B1F27B51-9973-4381-9301-4FE46FE1CA59";
shapes = (
{
closed = 1;
nodes = (
(1774,-112,o),
(2066,24,o),
(2274,238,cs),
(2324,294,o),
(2372,356,o),
(2414,418,cs),
(2428,444,o),
(2422,474,o),
(2400,490,cs),
(2374,506,o),
(2344,498,o),
(2328,476,cs),
(2292,414,o),
(2248,358,o),
(2200,310,cs),
(2012,112,o),
(1746,-10,o),
(1454,-10,cs),
(882,-10,o),
(418,454,o),
(418,1026,cs),
(418,1598,o),
(882,2060,o),
(1454,2060,cs),
(1726,2060,o),
(1974,1954,o),
(2160,1780,cs),
(2266,1684,o),
(2352,1562,o),
(2406,1424,cs),
(2420,1400,o),
(2448,1388,o),
(2476,1396,cs),
(2502,1406,o),
(2514,1438,o),
(2500,1462,cs),
(2438,1612,o),
(2346,1746,o),
(2228,1858,cs),
(2026,2046,o),
(1754,2162,o),
(1454,2162,cs),
(826,2162,o),
(318,1654,o),
(318,1026,cs),
(318,398,o),
(826,-112,o),
(1454,-112,cs)
);
},
{
closed = 1;
nodes = (
(1292,588,o),
(1394,734,o),
(1394,986,cs),
(1394,1238,o),
(1288,1382,o),
(1116,1382,cs),
(942,1382,o),
(836,1236,o),
(836,986,cs),
(836,734,o),
(938,588,o),
(1116,588,cs)
);
},
{
closed = 1;
nodes = (
(1008,688,o),
(946,792,o),
(946,986,cs),
(946,1182,o),
(1010,1288,o),
(1116,1288,cs),
(1220,1288,o),
(1286,1182,o),
(1286,986,cs),
(1284,792,o),
(1220,688,o),
(1116,688,cs)
);
},
{
closed = 1;
nodes = (
(1958,588,o),
(2060,734,o),
(2060,986,cs),
(2060,1238,o),
(1954,1382,o),
(1780,1382,cs),
(1608,1382,o),
(1502,1236,o),
(1502,986,cs),
(1502,734,o),
(1604,588,o),
(1780,588,cs)
);
},
{
closed = 1;
nodes = (
(1676,688,o),
(1612,792,o),
(1610,986,cs),
(1610,1182,o),
(1676,1288,o),
(1780,1288,cs),
(1886,1288,o),
(1950,1182,o),
(1950,986,cs),
(1950,792,o),
(1888,688,o),
(1780,688,cs)
);
},
{
closed = 1;
nodes = (
(2594,1336,ls),
(2622,1336,o),
(2646,1360,o),
(2646,1388,cs),
(2646,1750,ls),
(2646,1778,o),
(2622,1800,o),
(2594,1800,cs),
(2566,1800,o),
(2544,1778,o),
(2544,1750,cs),
(2544,1438,l),
(2232,1438,ls),
(2204,1438,o),
(2182,1416,o),
(2182,1388,cs),
(2182,1360,o),
(2204,1336,o),
(2232,1336,cs)
);
}
);
width = 2896;
},
{
layerId = "5C20EF92-B63D-42A8-8878-93C2863E0093";
shapes = (
{
closed = 1;
nodes = (
(1814,-246,o),
(2138,-94,o),
(2370,146,cs),
(2428,208,o),
(2484,276,o),
(2528,348,cs),
(2584,434,o),
(2556,548,o),
(2470,604,cs),
(2384,656,o),
(2270,632,o),
(2214,546,cs),
(2184,494,o),
(2144,446,o),
(2104,400,cs),
(1938,230,o),
(1708,126,o),
(1454,126,cs),
(956,126,o),
(554,528,o),
(554,1026,cs),
(554,1524,o),
(956,1926,o),
(1454,1926,cs),
(1690,1926,o),
(1908,1834,o),
(2066,1682,cs),
(2160,1596,o),
(2234,1490,o),
(2286,1372,cs),
(2324,1278,o),
(2430,1232,o),
(2526,1272,cs),
(2622,1312,o),
(2666,1420,o),
(2624,1516,cs),
(2556,1682,o),
(2450,1834,o),
(2320,1956,cs),
(2094,2166,o),
(1788,2298,o),
(1454,2298,cs),
(752,2298,o),
(182,1728,o),
(182,1026,cs),
(182,324,o),
(752,-246,o),
(1454,-246,cs)
);
},
{
closed = 1;
nodes = (
(1292,658,o),
(1406,784,o),
(1406,1006,cs),
(1406,1228,o),
(1292,1352,o),
(1110,1352,cs),
(926,1352,o),
(812,1230,o),
(812,1006,cs),
(812,784,o),
(926,658,o),
(1110,658,cs)
);
},
{
closed = 1;
nodes = (
(1046,804,o),
(998,862,o),
(998,1006,cs),
(1002,1144,o),
(1046,1210,o),
(1110,1210,cs),
(1172,1210,o),
(1220,1144,o),
(1220,1006,cs),
(1220,862,o),
(1172,804,o),
(1110,804,cs)
);
},
{
closed = 1;
nodes = (
(1970,658,o),
(2084,784,o),
(2084,1006,cs),
(2084,1228,o),
(1970,1352,o),
(1788,1352,cs),
(1604,1352,o),
(1490,1230,o),
(1490,1006,cs),
(1490,784,o),
(1604,658,o),
(1788,658,cs)
);
},
{
closed = 1;
nodes = (
(1724,804,o),
(1676,862,o),
(1676,1006,cs),
(1678,1144,o),
(1724,1210,o),
(1788,1210,cs),
(1850,1210,o),
(1898,1144,o),
(1898,1006,cs),
(1898,862,o),
(1850,804,o),
(1788,804,cs)
);
},
{
closed = 1;
nodes = (
(2594,1202,ls),
(2696,1202,o),
(2780,1286,o),
(2780,1388,cs),
(2780,1750,ls),
(2780,1852,o),
(2696,1936,o),
(2594,1936,cs),
(2492,1936,o),
(2408,1852,o),
(2408,1750,cs),
(2408,1574,l),
(2232,1574,ls),
(2130,1574,o),
(2046,1490,o),
(2046,1388,cs),
(2046,1286,o),
(2130,1202,o),
(2232,1202,cs)
);
}
);
width = 2896;
}
);
metricWidth = symbolBase;
unicode = 1024025;
}
{
color = 11;
glyphname = iconArrowLongLeft;
layers = (
{
layerId = "B1F27B51-9973-4381-9301-4FE46FE1CA59";
shapes = (
{
closed = 1;
nodes = (
(1128,278,o),
(1164,278,o),
(1189,302,cs),
(1213,323,o),
(1213,362,o),
(1189,386,cs),
(609,965,l),
(2431,965,ls),
(2465,965,o),
(2492,992,o),
(2492,1026,cs),
(2492,1059,o),
(2465,1086,o),
(2431,1086,cs),
(609,1086,l),
(1189,1665,ls),
(1213,1689,o),
(1213,1729,o),
(1189,1750,cs),
(1164,1774,o),
(1128,1774,o),
(1104,1750,cs),
(422,1068,ls),
(410,1056,o),
(404,1041,o),
(404,1026,cs),
(404,1011,o),
(410,996,o),
(422,983,cs),
(1104,302,ls)
);
}
);
width = 2896;
},
{
layerId = "CD0E3B44-F66A-4791-B84C-A1128DC61275";
shapes = (
{
closed = 1;
nodes = (
(1107,211,o),
(1186,211,o),
(1231,256,cs),
(1279,305,o),
(1279,380,o),
(1231,428,cs),
(754,905,l),
(2431,905,ls),
(2498,905,o),
(2552,959,o),
(2552,1026,cs),
(2552,1092,o),
(2498,1146,o),
(2431,1146,cs),
(754,1146,l),
(1231,1623,ls),
(1279,1671,o),
(1279,1747,o),
(1231,1795,cs),
(1186,1840,o),
(1107,1840,o),
(1062,1795,cs),
(377,1110,ls),
(356,1089,o),
(344,1059,o),
(344,1026,cs),
(344,992,o),
(356,962,o),
(377,941,cs),
(1062,256,ls)
);
}
);
width = 2896;
},
{
layerId = "5C20EF92-B63D-42A8-8878-93C2863E0093";
shapes = (
{
closed = 1;
nodes = (
(1089,145,o),
(1204,145,o),
(1273,214,cs),
(1345,287,o),
(1345,401,o),
(1273,471,cs),
(902,845,l),
(2431,845,ls),
(2531,845,o),
(2612,926,o),
(2612,1026,cs),
(2612,1125,o),
(2531,1207,o),
(2431,1207,cs),
(899,1207,l),
(1273,1581,ls),
(1345,1650,o),
(1345,1765,o),
(1273,1837,cs),
(1204,1907,o),
(1089,1907,o),
(1020,1837,cs),
(335,1152,ls),
(302,1119,o),
(284,1074,o),
(284,1026,cs),
(284,977,o),
(302,932,o),
(335,899,cs),
(1020,214,ls)
);
}
);
width = 2896;
}
);
metricWidth = symbolBase;
unicode = 1024029;
}
{
color = 11;
glyphname = iconArrowRight;
layers = (
{
layerId = "B1F27B51-9973-4381-9301-4FE46FE1CA59";
shapes = (
{
closed = 1;
nodes = (
(1361,106,o),
(1397,106,o),
(1421,130,cs),
(2275,983,ls),
(2299,1008,o),
(2299,1044,o),
(2275,1068,cs),
(1421,1922,ls),
(1397,1946,o),
(1361,1946,o),
(1336,1922,cs),
(1312,1897,o),
(1312,1861,o),
(1336,1837,cs),
(2088,1086,l),
(664,1086,ls),
(630,1086,o),
(603,1059,o),
(603,1026,cs),
(603,992,o),
(630,965,o),
(664,965,cs),
(2088,965,l),
(1336,214,ls),
(1312,190,o),
(1312,154,o),
(1336,130,cs)
);
}
);
width = 2896;
},
{
layerId = "CD0E3B44-F66A-4791-B84C-A1128DC61275";
shapes = (
{
closed = 1;
nodes = (
(1339,39,o),
(1418,39,o),
(1463,87,cs),
(2317,941,ls),
(2365,986,o),
(2365,1065,o),
(2317,1110,cs),
(1463,1964,ls),
(1418,2012,o),
(1339,2012,o),
(1294,1964,cs),
(1246,1919,o),
(1246,1840,o),
(1294,1795,cs),
(1940,1146,l),
(664,1146,ls),
(597,1146,o),
(543,1092,o),
(543,1026,cs),
(543,959,o),
(597,905,o),
(664,905,cs),
(1940,905,l),
(1294,256,ls),
(1246,211,o),
(1246,133,o),
(1294,87,cs)
);
}
);
width = 2896;
},
{
layerId = "5C20EF92-B63D-42A8-8878-93C2863E0093";
shapes = (
{
closed = 1;
nodes = (
(1321,-27,o),
(1436,-27,o),
(1508,45,cs),
(2359,899,ls),
(2431,968,o),
(2431,1083,o),
(2359,1152,cs),
(1508,2006,ls),
(1436,2078,o),
(1321,2078,o),
(1252,2006,cs),
(1180,1937,o),
(1180,1822,o),
(1252,1750,cs),
(1795,1207,l),
(664,1207,ls),
(564,1207,o),
(483,1125,o),
(483,1026,cs),
(483,926,o),
(564,845,o),
(664,845,cs),
(1795,845,l),
(1252,302,ls),
(1180,229,o),
(1180,115,o),
(1252,45,cs)
);
}
);
width = 2896;
}
);
metricWidth = symbolBase;
unicode = 1024032;
}
{
color = 11;
glyphname = iconChevronDown;
layers = (
{
layerId = "CD0E3B44-F66A-4791-B84C-A1128DC61275";
shapes = (
{
closed = 1;
nodes = (
(1409,410,o),
(1487,410,o),
(1532,459,cs),
(2386,1312,ls),
(2434,1358,o),
(2434,1436,o),
(2386,1481,cs),
(2338,1529,o),
(2263,1529,o),
(2217,1481,cs),
(1448,715,l),
(679,1481,ls),
(634,1529,o),
(555,1529,o),
(510,1481,cs),
(462,1436,o),
(462,1358,o),
(510,1312,cs),
(1364,459,ls)
);
}
);
width = 2896;
},
{
layerId = "B1F27B51-9973-4381-9301-4FE46FE1CA59";
shapes = (
{
closed = 1;
nodes = (
(1434,488,o),
(1462,488,o),
(1484,508,cs),
(2338,1360,ls),
(2358,1382,o),
(2358,1412,o),
(2338,1432,cs),
(2318,1452,o),
(2284,1452,o),
(2266,1432,cs),
(1448,614,l),
(630,1432,ls),
(608,1452,o),
(580,1452,o),
(558,1432,cs),
(538,1412,o),
(538,1382,o),
(558,1360,cs),
(1412,508,ls)
);
}
);
width = 2896;
},
{
layerId = "5C20EF92-B63D-42A8-8878-93C2863E0093";
shapes = (
{
closed = 1;
nodes = (
(1390,340,o),
(1506,340,o),
(1578,414,cs),
(2430,1264,ls),
(2506,1338,o),
(2506,1456,o),
(2430,1526,cs),
(2360,1600,o),
(2242,1600,o),
(2170,1526,cs),
(1448,804,l),
(726,1526,ls),
(654,1600,o),
(536,1600,o),
(466,1526,cs),
(390,1456,o),
(390,1338,o),
(466,1264,cs),
(1318,414,ls)
);
}
);
width = 2896;
}
);
metricWidth = symbolBase;
unicode = 1024035;
}
{
color = 11;
glyphname = iconChevronDown.medium;
layers = (
{
layerId = "CD0E3B44-F66A-4791-B84C-A1128DC61275";
metricWidth = "=baseSymbol.medium";
shapes = (
{
closed = 1;
nodes = (
(1771,281,o),
(1849,281,o),
(1901,332,cs),
(2968,1397,ls),
(3020,1448,o),
(3020,1529,o),
(2968,1581,cs),
(2908,1638,o),
(2830,1626,o),
(2784,1581,cs),
(1810,609,l),
(836,1581,ls),
(784,1632,o),
(703,1632,o),
(652,1581,cs),
(600,1529,o),
(600,1448,o),
(652,1397,cs),
(1720,332,ls)
);
}
);
userData = {
RMXScaler = {
height = 125;
verticalShift = -85;
width = 125;
};
};
width = 3620;
},
{
layerId = "B1F27B51-9973-4381-9301-4FE46FE1CA59";
metricWidth = "=baseSymbol.medium";
shapes = (
{
closed = 1;
nodes = (
(1795,355,o),
(1831,358,o),
(1854,381,cs),
(2919,1446,ls),
(2942,1469,o),
(2949,1505,o),
(2922,1532,cs),
(2900,1555,o),
(2861,1559,o),
(2834,1532,cs),
(1810,508,l),
(786,1532,ls),
(760,1558,o),
(724,1555,o),
(701,1532,cs),
(675,1504,o),
(678,1469,o),
(701,1446,cs),
(1769,381,ls)
);
}
);
userData = {
RMXScaler = {
height = 125;
verticalShift = -85;
width = 125;
};
};
width = 3620;
},
{
layerId = "5C20EF92-B63D-42A8-8878-93C2863E0093";
metricWidth = "=baseSymbol.medium";
shapes = (
{
closed = 1;
nodes = (
(1755,194,o),
(1881,209,o),
(1952,281,cs),
(3020,1345,ls),
(3100,1426,o),
(3100,1552,o),
(3020,1632,cs),
(2940,1712,o),
(2814,1712,o),
(2733,1632,cs),
(1810,712,l),
(887,1632,ls),
(800,1718,o),
(671,1702,o),
(600,1632,cs),
(523,1556,o),
(517,1429,o),
(600,1345,cs),
(1668,281,ls)
);
}
);
userData = {
RMXScaler = {
height = 125;
verticalShift = -85;
width = 125;
};
};
width = 3620;
}
);
unicode = 1024035;
userData = {
RMXScaler = {
source = iconChevronDown.small;
};
};
}
{
color = 11;
glyphname = iconChevronLeft;
layers = (
{
layerId = "CD0E3B44-F66A-4791-B84C-A1128DC61275";
shapes = (
{
closed = 1;
nodes = (
(1659,39,o),
(1738,39,o),
(1783,87,cs),
(1831,133,o),
(1831,211,o),
(1783,256,cs),
(1017,1026,l),
(1783,1795,ls),
(1831,1840,o),
(1831,1916,o),
(1783,1964,cs),
(1738,2012,o),
(1659,2012,o),
(1614,1964,cs),
(760,1110,ls),
(712,1065,o),
(712,986,o),
(760,941,cs),
(1614,87,ls)
);
}
);
width = 2896;
},
{
layerId = "B1F27B51-9973-4381-9301-4FE46FE1CA59";
shapes = (
{
closed = 1;
nodes = (
(1684,116,o),
(1712,116,o),
(1734,136,cs),
(1754,158,o),
(1754,186,o),
(1734,208,cs),
(916,1026,l),
(1734,1844,ls),
(1754,1860,o),
(1754,1894,o),
(1734,1916,cs),
(1712,1936,o),
(1684,1936,o),
(1662,1916,cs),
(808,1062,ls),
(788,1040,o),
(788,1012,o),
(808,990,cs),
(1662,136,ls)
);
}
);
width = 2896;
},
{
layerId = "5C20EF92-B63D-42A8-8878-93C2863E0093";
shapes = (
{
closed = 1;
nodes = (
(1640,-32,o),
(1758,-32,o),
(1828,42,cs),
(1902,114,o),
(1902,230,o),
(1828,306,cs),
(1106,1026,l),
(1828,1748,ls),
(1902,1820,o),
(1902,1938,o),
(1828,2008,cs),
(1758,2082,o),
(1640,2082,o),
(1566,2008,cs),
(716,1154,ls),
(642,1084,o),
(642,966,o),
(716,896,cs),
(1566,42,ls)
);
}
);
width = 2896;
}
);
metricWidth = symbolBase;
unicode = 1024036;
}
{
color = 11;
glyphname = iconCircleCheck;
layers = (
{
layerId = "B1F27B51-9973-4381-9301-4FE46FE1CA59";
shapes = (
{
closed = 1;
nodes = (
(2115,-181,o),
(2655,359,o),
(2655,1026,cs),
(2655,1692,o),
(2115,2232,o),
(1448,2232,cs),
(781,2232,o),
(241,1692,o),
(241,1026,cs),
(241,359,o),
(781,-181,o),
(1448,-181,cs)
);
},
{
closed = 1;
nodes = (
(848,-60,o),
(362,425,o),
(362,1026,cs),
(362,1626,o),
(848,2112,o),
(1448,2112,cs),
(2048,2112,o),
(2534,1626,o),
(2534,1026,cs),
(2534,425,o),
(2048,-60,o),
(1448,-60,cs)
);
},
{
closed = 1;
nodes = (
(1249,537,o),
(1285,537,o),
(1309,561,cs),
(2033,1285,ls),
(2057,1309,o),
(2057,1345,o),
(2033,1370,cs),
(2009,1394,o),
(1973,1394,o),
(1949,1370,cs),
(1267,688,l),
(947,1008,ls),
(923,1032,o),
(887,1032,o),
(863,1008,cs),
(839,983,o),
(839,947,o),
(863,923,cs),
(1225,561,ls)
);
}
);
width = 2896;
},
{
layerId = "CD0E3B44-F66A-4791-B84C-A1128DC61275";
shapes = (
{
closed = 1;
nodes = (
(2115,-181,o),
(2655,359,o),
(2655,1026,cs),
(2655,1692,o),
(2115,2232,o),
(1448,2232,cs),
(781,2232,o),
(241,1692,o),
(241,1026,cs),
(241,359,o),
(781,-181,o),
(1448,-181,cs)
);
},
{
closed = 1;
nodes = (
(914,60,o),
(483,492,o),
(483,1026,cs),
(483,1560,o),
(914,1991,o),
(1448,1991,cs),
(1982,1991,o),
(2413,1560,o),
(2413,1026,cs),
(2413,492,o),
(1982,60,o),
(1448,60,cs)
);
},
{
closed = 1;
nodes = (
(1228,471,o),
(1306,471,o),
(1351,519,cs),
(2075,1243,ls),
(2124,1288,o),
(2124,1367,o),
(2075,1412,cs),
(2030,1460,o),
(1952,1460,o),
(1907,1412,cs),
(1267,775,l),
(989,1050,ls),
(944,1098,o),
(866,1098,o),
(821,1050,cs),
(772,1005,o),
(772,926,o),
(821,881,cs),
(1183,519,ls)
);
}
);
width = 2896;
},
{
layerId = "5C20EF92-B63D-42A8-8878-93C2863E0093";
shapes = (
{
closed = 1;
nodes = (
(2115,-181,o),
(2655,359,o),
(2655,1026,cs),
(2655,1692,o),
(2115,2232,o),
(1448,2232,cs),
(781,2232,o),
(241,1692,o),
(241,1026,cs),
(241,359,o),
(781,-181,o),
(1448,-181,cs)
);
},
{
closed = 1;
nodes = (
(980,181,o),
(603,558,o),
(603,1026,cs),
(603,1493,o),
(980,1870,o),
(1448,1870,cs),
(1916,1870,o),
(2293,1493,o),
(2293,1026,cs),
(2293,558,o),
(1916,181,o),
(1448,181,cs)
);
},
{
closed = 1;
nodes = (
(1270,465,o),
(1385,465,o),
(1454,537,cs),
(2057,1140,ls),
(2130,1210,o),
(2130,1324,o),
(2057,1394,cs),
(1988,1466,o),
(1873,1466,o),
(1804,1394,cs),
(1327,920,l),
(1092,1152,ls),
(1023,1225,o),
(908,1225,o),
(839,1152,cs),
(766,1083,o),
(766,968,o),
(839,899,cs),
(1201,537,ls)
);
}
);
width = 2896;
}
);
metricWidth = symbolBase;
unicode = 1024039;
}
{
color = 11;
glyphname = iconCircleCheckFill;
layers = (
{
layerId = "CD0E3B44-F66A-4791-B84C-A1128DC61275";
shapes = (
{
closed = 1;
nodes = (
(2115,-181,o),
(2655,359,o),
(2655,1026,cs),
(2655,1692,o),
(2115,2232,o),
(1448,2232,cs),
(781,2232,o),
(241,1692,o),
(241,1026,cs),
(241,359,o),
(781,-181,o),
(1448,-181,cs)
);
},
{
closed = 1;
nodes = (
(821,881,ls),
(772,926,o),
(772,1005,o),
(821,1050,cs),
(866,1098,o),
(944,1098,o),
(989,1050,cs),
(1267,775,l),
(1907,1412,ls),
(1952,1460,o),
(2030,1460,o),
(2075,1412,cs),
(2124,1367,o),
(2124,1288,o),
(2075,1243,cs),
(1351,519,ls),
(1306,471,o),
(1228,471,o),
(1183,519,cs)
);
}
);
width = 2896;
},
{
layerId = "B1F27B51-9973-4381-9301-4FE46FE1CA59";
shapes = (
{
closed = 1;
nodes = (
(2116,-180,o),
(2656,360,o),
(2656,1026,cs),
(2656,1692,o),
(2116,2232,o),
(1448,2232,cs),
(782,2232,o),
(242,1692,o),
(242,1026,cs),
(242,360,o),
(782,-180,o),
(1448,-180,cs)
);
},
{
closed = 1;
nodes = (
(870,930,ls),
(850,950,o),
(850,980,o),
(870,1002,cs),
(890,1022,o),
(920,1022,o),
(940,1002,cs),
(1268,674,l),
(1956,1364,ls),
(1976,1384,o),
(2006,1384,o),
(2026,1364,cs),
(2046,1342,o),
(2046,1312,o),
(2026,1292,cs),
(1302,568,ls),
(1282,548,o),
(1252,548,o),
(1232,568,cs)
);
}
);
width = 2896;
},
{
layerId = "5C20EF92-B63D-42A8-8878-93C2863E0093";
shapes = (
{
closed = 1;
nodes = (
(2116,-180,o),
(2656,360,o),
(2656,1026,cs),
(2656,1692,o),
(2116,2232,o),
(1448,2232,cs),
(782,2232,o),
(242,1692,o),
(242,1026,cs),
(242,360,o),
(782,-180,o),
(1448,-180,cs)
);
},
{
closed = 1;
nodes = (
(776,836,ls),
(702,906,o),
(702,1024,o),
(776,1094,cs),
(846,1168,o),
(964,1168,o),
(1034,1094,cs),
(1268,866,l),
(1862,1456,ls),
(1932,1530,o),
(2050,1530,o),
(2120,1456,cs),
(2194,1386,o),
(2194,1268,o),
(2120,1198,cs),
(1396,474,ls),
(1326,400,o),
(1208,400,o),
(1138,474,cs)
);
}
);
width = 2896;
}
);
metricWidth = symbolBase;
unicode = 1024040;
}
{
color = 11;
glyphname = iconCircleCheckFill.medium;
layers = (
{
layerId = "CD0E3B44-F66A-4791-B84C-A1128DC61275";
metricWidth = "=baseSymbol.medium";
shapes = (
{
closed = 1;
nodes = (
(2643,-483,o),
(3318,193,o),
(3318,1026,cs),
(3318,1858,o),
(2643,2534,o),
(1810,2534,cs),
(977,2534,o),
(302,1858,o),
(302,1026,cs),
(302,193,o),
(977,-483,o),
(1810,-483,cs)
);
},
{
closed = 1;
nodes = (
(1041,860,ls),
(992,908,o),
(986,989,o),
(1038,1041,cs),
(1086,1092,o),
(1170,1092,o),
(1222,1041,cs),
(1584,685,l),
(2398,1493,ls),
(2447,1542,o),
(2531,1548,o),
(2582,1493,cs),
(2637,1436,o),
(2621,1354,o),
(2579,1312,cs),
(1674,407,ls),
(1623,356,o),
(1545,356,o),
(1493,407,cs)
);
}
);
userData = {
RMXScaler = {
height = 125;
verticalShift = -85;
width = 125;
};
};
width = 3620;
},
{
layerId = "B1F27B51-9973-4381-9301-4FE46FE1CA59";
metricWidth = "=baseSymbol.medium";
shapes = (
{
closed = 1;
nodes = (
(2643,-483,o),
(3318,193,o),
(3318,1026,cs),
(3318,1858,o),
(2643,2534,o),
(1810,2534,cs),
(977,2534,o),
(302,1858,o),
(302,1026,cs),
(302,193,o),
(977,-483,o),
(1810,-483,cs)
);
},
{
closed = 1;
nodes = (
(1090,909,ls),
(1067,932,o),
(1064,968,o),
(1087,992,cs),
(1117,1025,o),
(1156,1008,o),
(1173,992,cs),
(1584,583,l),
(2447,1444,ls),
(2475,1471,o),
(2510,1467,o),
(2533,1444,cs),
(2559,1415,o),
(2551,1383,o),
(2530,1361,cs),
(1625,456,ls),
(1599,430,o),
(1566,433,o),
(1542,456,cs)
);
}
);
userData = {
RMXScaler = {
height = 125;
verticalShift = -85;
width = 125;
};
};
width = 3620;
},
{
layerId = "5C20EF92-B63D-42A8-8878-93C2863E0093";
metricWidth = "=baseSymbol.medium";
shapes = (
{
closed = 1;
nodes = (
(2643,-483,o),
(3318,193,o),
(3318,1026,cs),
(3318,1858,o),
(2643,2534,o),
(1810,2534,cs),
(977,2534,o),
(302,1858,o),
(302,1026,cs),
(302,193,o),
(977,-483,o),
(1810,-483,cs)
);
},
{
closed = 1;
nodes = (
(989,808,ls),
(912,886,o),
(909,1012,o),
(986,1092,cs),
(1060,1165,o),
(1187,1175,o),
(1273,1092,cs),
(1584,787,l),
(2347,1545,ls),
(2427,1625,o),
(2557,1622,o),
(2634,1545,cs),
(2717,1458,o),
(2702,1332,o),
(2631,1261,cs),
(1726,356,ls),
(1642,273,o),
(1518,279,o),
(1442,356,cs)
);
}
);
userData = {
RMXScaler = {
height = 125;
verticalShift = -85;
width = 125;
};
};
width = 3620;
}
);
unicode = 1024040;
userData = {
RMXScaler = {
source = iconCircleCheckFill.small;
};
};
}
{
color = 11;
glyphname = iconClose;
layers = (
{
layerId = "CD0E3B44-F66A-4791-B84C-A1128DC61275";
shapes = (
{
closed = 1;
nodes = (
(624,109,o),
(703,109,o),
(748,157,cs),
(1448,854,l),
(2148,157,ls),
(2193,109,o),
(2272,109,o),
(2317,157,cs),
(2365,202,o),
(2365,281,o),
(2317,326,cs),
(1620,1026,l),
(2317,1726,ls),
(2365,1771,o),
(2365,1849,o),
(2317,1894,cs),
(2272,1943,o),
(2193,1943,o),
(2148,1894,cs),
(1448,1198,l),
(748,1894,ls),
(703,1943,o),
(624,1943,o),
(579,1894,cs),
(531,1849,o),
(531,1771,o),
(579,1726,cs),
(1276,1026,l),
(579,326,ls),
(531,281,o),
(531,202,o),
(579,157,cs)
);
}
);
width = 2896;
},
{
layerId = "B1F27B51-9973-4381-9301-4FE46FE1CA59";
shapes = (
{
closed = 1;
nodes = (
(650,186,o),
(678,186,o),
(700,206,cs),
(1448,954,l),
(2196,206,ls),
(2218,186,o),
(2246,186,o),
(2268,206,cs),
(2288,226,o),
(2288,256,o),
(2268,278,cs),
(1518,1026,l),
(2268,1774,ls),
(2288,1796,o),
(2288,1824,o),
(2268,1846,cs),
(2246,1866,o),
(2218,1866,o),
(2196,1846,cs),
(1448,1096,l),
(700,1846,ls),
(678,1866,o),
(650,1866,o),
(628,1846,cs),
(608,1824,o),
(608,1796,o),
(628,1774,cs),
(1378,1026,l),
(628,278,ls),
(608,256,o),
(608,226,o),
(628,206,cs)
);
}
);
width = 2896;
},
{
layerId = "5C20EF92-B63D-42A8-8878-93C2863E0093";
shapes = (
{
closed = 1;
nodes = (
(604,38,o),
(722,38,o),
(792,112,cs),
(1448,764,l),
(2104,112,ls),
(2174,38,o),
(2292,38,o),
(2362,112,cs),
(2436,182,o),
(2436,300,o),
(2362,370,cs),
(1710,1026,l),
(2362,1680,ls),
(2436,1752,o),
(2436,1868,o),
(2362,1940,cs),
(2292,2014,o),
(2174,2014,o),
(2104,1940,cs),
(1448,1288,l),
(792,1940,ls),
(722,2014,o),
(604,2014,o),
(534,1940,cs),
(460,1868,o),
(460,1752,o),
(534,1680,cs),
(1186,1026,l),
(534,370,ls),
(460,300,o),
(460,182,o),
(534,112,cs)
);
}
);
width = 2896;
}
);
metricWidth = symbolBase;
unicode = 1024041;
}
{
color = 11;
glyphname = iconCopy;
layers = (
{
layerId = "CD0E3B44-F66A-4791-B84C-A1128DC61275";
shapes = (
{
closed = 1;
nodes = (
(2142,-90,ls),
(2208,-90,o),
(2263,-36,o),
(2263,30,cs),
(2263,1720,ls),
(2263,1786,o),
(2208,1840,o),
(2142,1840,cs),
(453,1840,ls),
(386,1840,o),
(332,1786,o),
(332,1720,cs),
(332,30,ls),
(332,-36,o),
(386,-90,o),
(453,-90,cs)
);
},
{
closed = 1;
nodes = (
(573,1599,l),
(2021,1599,l),
(2021,151,l),
(573,151,l)
);
},
{
closed = 1;
nodes = (
(2570,513,o),
(2625,567,o),
(2625,634,cs),
(2625,2082,ls),
(2625,2148,o),
(2570,2202,o),
(2504,2202,cs),
(1056,2202,ls),
(989,2202,o),
(935,2148,o),
(935,2082,cs),
(935,2015,o),
(989,1961,o),
(1056,1961,cs),
(2383,1961,l),
(2383,634,ls),
(2383,567,o),
(2437,513,o),
(2504,513,cs)
);
}
);
width = 2896;
},
{
layerId = "B1F27B51-9973-4381-9301-4FE46FE1CA59";
shapes = (
{
closed = 1;
nodes = (
(2146,-20,ls),
(2174,-20,o),
(2196,2,o),
(2196,30,cs),
(2196,1724,ls),
(2196,1752,o),
(2174,1774,o),
(2146,1774,cs),
(454,1774,ls),
(424,1774,o),
(402,1752,o),
(402,1724,cs),
(402,30,ls),
(402,2,o),
(424,-20,o),
(454,-20,cs)
);
},
{
closed = 1;
nodes = (
(504,1672,l),
(2096,1672,l),
(2096,82,l),
(504,82,l)
);
},
{
closed = 1;
nodes = (
(2532,582,o),
(2554,606,o),
(2554,634,cs),
(2554,2082,ls),
(2554,2110,o),
(2532,2132,o),
(2504,2132,cs),
(1056,2132,ls),
(1028,2132,o),
(1006,2110,o),
(1006,2082,cs),
(1006,2054,o),
(1028,2030,o),
(1056,2030,cs),
(2454,2030,l),
(2454,634,ls),
(2454,606,o),
(2476,582,o),
(2504,582,cs)
);
}
);
width = 2896;
},
{
layerId = "5C20EF92-B63D-42A8-8878-93C2863E0093";
shapes = (
{
closed = 1;
nodes = (
(2016,-156,ls),
(2118,-156,o),
(2200,-72,o),
(2200,30,cs),
(2200,1594,ls),
(2200,1694,o),
(2118,1778,o),
(2016,1778,cs),
(454,1778,ls),
(350,1778,o),
(268,1694,o),
(268,1594,cs),
(268,30,ls),
(268,-72,o),
(350,-156,o),
(454,-156,cs)
);
},
{
closed = 1;
nodes = (
(638,1408,l),
(1830,1408,l),
(1830,216,l),
(638,216,l)
);
},
{
closed = 1;
nodes = (
(2606,448,o),
(2690,532,o),
(2690,634,cs),
(2690,2082,ls),
(2690,2184,o),
(2606,2268,o),
(2504,2268,cs),
(1056,2268,ls),
(954,2268,o),
(870,2184,o),
(870,2082,cs),
(870,1980,o),
(954,1896,o),
(1056,1896,cs),
(2318,1896,l),
(2318,634,ls),
(2318,532,o),
(2402,448,o),
(2504,448,cs)
);
}
);
width = 2896;
}
);
metricWidth = symbolBase;
unicode = 1024042;
}
{
color = 11;
glyphname = iconDivider;
layers = (
{
layerId = "B1F27B51-9973-4381-9301-4FE46FE1CA59";
shapes = (
{
closed = 1;
nodes = (
(1466,30,o),
(1478,42,o),
(1478,60,cs),
(1478,1991,ls),
(1478,2009,o),
(1466,2021,o),
(1448,2021,cs),
(1430,2021,o),
(1418,2009,o),
(1418,1991,cs),
(1418,60,ls),
(1418,42,o),
(1430,30,o),
(1448,30,cs)
);
}
);
width = 2896;
},
{
layerId = "CD0E3B44-F66A-4791-B84C-A1128DC61275";
shapes = (
{
closed = 1;
nodes = (
(1481,0,o),
(1508,27,o),
(1508,60,cs),
(1508,1991,ls),
(1508,2024,o),
(1481,2051,o),
(1448,2051,cs),
(1415,2051,o),
(1388,2024,o),
(1388,1991,cs),
(1388,60,ls),
(1388,27,o),
(1415,0,o),
(1448,0,cs)
);
}
);
width = 2896;
},
{
layerId = "5C20EF92-B63D-42A8-8878-93C2863E0093";
shapes = (
{
closed = 1;
nodes = (
(1514,-60,o),
(1569,-6,o),
(1569,60,cs),
(1569,1991,ls),
(1569,2057,o),
(1514,2112,o),
(1448,2112,cs),
(1382,2112,o),
(1327,2057,o),
(1327,1991,cs),
(1327,60,ls),
(1327,-6,o),
(1382,-60,o),
(1448,-60,cs)
);
}
);
width = 2896;
}
);
metricWidth = symbolBase;
unicode = 1024043;
}
{
color = 11;
glyphname = iconDot2;
layers = (
{
layerId = "CD0E3B44-F66A-4791-B84C-A1128DC61275";
shapes = (
{
closed = 1;
nodes = (
(1713,543,o),
(1931,760,o),
(1931,1026,cs),
(1931,1291,o),
(1713,1508,o),
(1448,1508,cs),
(1183,1508,o),
(965,1291,o),
(965,1026,cs),
(965,760,o),
(1183,543,o),
(1448,543,cs)
);
}
);
width = 2896;
},
{
layerId = "B1F27B51-9973-4381-9301-4FE46FE1CA59";
shapes = (
{
closed = 1;
nodes = (
(1714,544,o),
(1932,760,o),
(1932,1026,cs),
(1932,1292,o),
(1714,1508,o),
(1448,1508,cs),
(1184,1508,o),
(966,1292,o),
(966,1026,cs),
(966,760,o),
(1184,544,o),
(1448,544,cs)
);
}
);
width = 2896;
},
{
layerId = "5C20EF92-B63D-42A8-8878-93C2863E0093";
shapes = (
{
closed = 1;
nodes = (
(1714,544,o),
(1932,760,o),
(1932,1026,cs),
(1932,1292,o),
(1714,1508,o),
(1448,1508,cs),
(1184,1508,o),
(966,1292,o),
(966,1026,cs),
(966,760,o),
(1184,544,o),
(1448,544,cs)
);
}
);
width = 2896;
}
);
metricWidth = symbolBase;
unicode = 1024044;
}
{
color = 11;
glyphname = iconExchangeRate;
layers = (
{
layerId = "CD0E3B44-F66A-4791-B84C-A1128DC61275";
shapes = (
{
closed = 1;
nodes = (
(2114,-182,o),
(2654,356,o),
(2654,1024,cs),
(2654,1690,o),
(2114,2230,o),
(1448,2230,cs),
(782,2230,o),
(242,1690,o),
(242,1024,cs),
(244,356,o),
(782,-182,o),
(1448,-182,cs)
);
},
{
closed = 1;
nodes = (
(914,58,o),
(482,490,o),
(482,1024,cs),
(482,1558,o),
(914,1990,o),
(1448,1990,cs),
(1982,1990,o),
(2414,1558,o),
(2414,1024,cs),
(2414,490,o),
(1982,58,o),
(1448,58,cs)
);
},
{
closed = 1;
nodes = (
(1212,354,o),
(1270,354,o),
(1306,390,cs),
(1340,424,o),
(1340,482,o),
(1306,516,cs),
(1098,724,l),
(1306,932,ls),
(1340,968,o),
(1340,1024,o),
(1306,1060,cs),
(1270,1096,o),
(1212,1096,o),
(1178,1060,cs),
(906,788,ls),
(870,752,o),
(870,696,o),
(906,660,cs),
(1178,390,ls)
);
},
{
closed = 1;
nodes = (
(1936,634,ls),
(1986,634,o),
(2026,674,o),
(2026,724,cs),
(2026,774,o),
(1986,816,o),
(1936,816,cs),
(1060,816,ls),
(1010,816,o),
(970,776,o),
(970,724,cs),
(970,674,o),
(1010,634,o),
(1060,634,cs)
);
},
{
closed = 1;
nodes = (
(1834,1238,ls),
(1886,1238,o),
(1926,1276,o),
(1926,1328,cs),
(1926,1380,o),
(1886,1418,o),
(1834,1418,cs),
(960,1418,ls),
(908,1418,o),
(870,1378,o),
(870,1328,cs),
(870,1278,o),
(908,1238,o),
(960,1238,cs)
);
},
{
closed = 1;
nodes = (
(1626,956,o),
(1682,956,o),
(1718,992,cs),
(1990,1264,ls),
(2026,1300,o),
(2026,1356,o),
(1990,1392,cs),
(1718,1664,ls),
(1682,1698,o),
(1626,1698,o),
(1590,1664,cs),
(1554,1628,o),
(1554,1570,o),
(1590,1536,cs),
(1798,1328,l),
(1590,1120,ls),
(1554,1084,o),
(1554,1028,o),
(1590,992,cs)
);
}
);
width = 2896;
},
{
layerId = "B1F27B51-9973-4381-9301-4FE46FE1CA59";
shapes = (
{
closed = 1;
nodes = (
(2114,-182,o),
(2654,356,o),
(2654,1024,cs),
(2654,1690,o),
(2114,2230,o),
(1448,2230,cs),
(782,2230,o),
(242,1690,o),
(242,1024,cs),
(244,356,o),
(782,-182,o),
(1448,-182,cs)
);
},
{
closed = 1;
nodes = (
(840,-80,o),
(344,414,o),
(344,1024,cs),
(344,1632,o),
(840,2128,o),
(1448,2128,cs),
(2058,2128,o),
(2552,1632,o),
(2552,1024,cs),
(2552,414,o),
(2058,-80,o),
(1448,-80,cs)
);
},
{
closed = 1;
nodes = (
(1222,356,o),
(1258,356,o),
(1282,380,cs),
(1306,404,o),
(1306,440,o),
(1282,466,cs),
(1022,724,l),
(1282,984,ls),
(1306,1008,o),
(1306,1044,o),
(1282,1068,cs),
(1258,1092,o),
(1222,1092,o),
(1196,1068,cs),
(896,766,ls),
(872,742,o),
(872,706,o),
(896,682,cs),
(1196,380,ls)
);
},
{
closed = 1;
nodes = (
(1964,664,ls),
(1996,664,o),
(2024,692,o),
(2024,724,cs),
(2024,758,o),
(1996,784,o),
(1964,784,cs),
(1028,784,ls),
(994,784,o),
(968,758,o),
(968,724,cs),
(968,692,o),
(994,664,o),
(1028,664,cs)
);
},
{
closed = 1;
nodes = (
(1866,1268,ls),
(1900,1268,o),
(1928,1294,o),
(1928,1328,cs),
(1928,1362,o),
(1900,1388,o),
(1866,1388,cs),
(932,1388,ls),
(898,1388,o),
(872,1362,o),
(872,1328,cs),
(872,1294,o),
(898,1268,o),
(932,1268,cs)
);
},
{
closed = 1;
nodes = (
(1638,960,o),
(1674,960,o),
(1698,984,cs),
(2000,1286,ls),
(2024,1310,o),
(2024,1346,o),
(2000,1370,cs),
(1698,1672,ls),
(1674,1696,o),
(1638,1696,o),
(1614,1672,cs),
(1590,1648,o),
(1590,1612,o),
(1614,1588,cs),
(1872,1328,l),
(1614,1068,ls),
(1590,1044,o),
(1590,1008,o),
(1614,984,cs)
);
}
);
width = 2896;
},
{
layerId = "5C20EF92-B63D-42A8-8878-93C2863E0093";
shapes = (
{
closed = 1;
nodes = (
(2114,-182,o),
(2654,358,o),
(2654,1024,cs),
(2654,1690,o),
(2114,2230,o),
(1448,2230,cs),
(782,2230,o),
(242,1690,o),
(242,1024,cs),
(242,358,o),
(782,-182,o),
(1448,-182,cs)
);
},
{
closed = 1;
nodes = (
(984,186,o),
(610,560,o),
(610,1024,cs),
(612,1488,o),
(984,1862,o),
(1448,1862,cs),
(1912,1862,o),
(2286,1488,o),
(2286,1024,cs),
(2286,560,o),
(1912,186,o),
(1448,186,cs)
);
},
{
closed = 1;
nodes = (
(1204,350,o),
(1282,350,o),
(1328,398,cs),
(1376,444,o),
(1376,522,o),
(1328,568,cs),
(1174,724,l),
(1328,882,ls),
(1376,926,o),
(1376,1006,o),
(1328,1050,cs),
(1282,1098,o),
(1204,1098,o),
(1158,1050,cs),
(918,808,ls),
(870,760,o),
(870,688,o),
(918,640,cs),
(1158,398,ls)
);
},
{
closed = 1;
nodes = (
(1906,604,ls),
(1974,604,o),
(2026,658,o),
(2026,724,cs),
(2026,790,o),
(1974,846,o),
(1906,846,cs),
(1092,846,ls),
(1026,846,o),
(972,790,o),
(972,724,cs),
(972,658,o),
(1026,604,o),
(1092,604,cs)
);
},
{
closed = 1;
nodes = (
(1802,1208,ls),
(1870,1208,o),
(1924,1262,o),
(1924,1328,cs),
(1924,1394,o),
(1870,1448,o),
(1802,1448,cs),
(990,1448,ls),
(924,1448,o),
(870,1394,o),
(870,1328,cs),
(870,1262,o),
(924,1208,o),
(990,1208,cs)
);
},
{
closed = 1;
nodes = (
(1612,954,o),
(1692,954,o),
(1736,1002,cs),
(1978,1244,ls),
(2026,1292,o),
(2026,1364,o),
(1978,1412,cs),
(1736,1654,ls),
(1692,1702,o),
(1612,1702,o),
(1568,1654,cs),
(1520,1608,o),
(1520,1530,o),
(1568,1484,cs),
(1722,1328,l),
(1568,1170,ls),
(1520,1126,o),
(1520,1048,o),
(1568,1002,cs)
);
}
);
width = 2896;
}
);
metricWidth = symbolBase;
unicode = 1024045;
}
{
color = 11;
glyphname = iconExclamFill;
layers = (
{
layerId = "CD0E3B44-F66A-4791-B84C-A1128DC61275";
shapes = (
{
closed = 1;
nodes = (
(2114,-182,o),
(2654,358,o),
(2654,1024,cs),
(2654,1690,o),
(2114,2230,o),
(1448,2230,cs),
(782,2230,o),
(242,1690,o),
(242,1024,cs),
(242,358,o),
(782,-182,o),
(1448,-182,cs)
);
},
{
closed = 1;
nodes = (
(1358,302,o),
(1282,377,o),
(1282,468,cs),
(1282,558,o),
(1358,634,o),
(1448,634,cs),
(1539,634,o),
(1614,558,o),
(1614,468,cs),
(1614,377,o),
(1539,302,o),
(1448,302,cs)
);
},
{
closed = 1;
nodes = (
(1327,1750,l),
(1569,1750,l),
(1569,784,l),
(1327,784,l)
);
}
);
width = 2896;
},
{
layerId = "B1F27B51-9973-4381-9301-4FE46FE1CA59";
shapes = (
{
closed = 1;
nodes = (
(2114,-182,o),
(2654,358,o),
(2654,1024,cs),
(2654,1690,o),
(2114,2230,o),
(1448,2230,cs),
(782,2230,o),
(242,1690,o),
(242,1024,cs),
(242,358,o),
(782,-182,o),
(1448,-182,cs)
);
},
{
closed = 1;
nodes = (
(1396,372,o),
(1352,416,o),
(1352,468,cs),
(1352,520,o),
(1396,564,o),
(1448,564,cs),
(1500,564,o),
(1544,520,o),
(1544,468,cs),
(1544,416,o),
(1500,372,o),
(1448,372,cs)
);
},
{
closed = 1;
nodes = (
(1398,1748,l),
(1498,1748,l),
(1498,780,l),
(1398,780,l)
);
}
);
width = 2896;
},
{
layerId = "5C20EF92-B63D-42A8-8878-93C2863E0093";
shapes = (
{
closed = 1;
nodes = (
(2114,-182,o),
(2654,358,o),
(2654,1024,cs),
(2654,1690,o),
(2114,2230,o),
(1448,2230,cs),
(782,2230,o),
(242,1690,o),
(242,1024,cs),
(242,358,o),
(782,-182,o),
(1448,-182,cs)
);
},
{
closed = 1;
nodes = (
(1322,236,o),
(1218,342,o),
(1218,468,cs),
(1218,594,o),
(1322,698,o),
(1448,698,cs),
(1574,698,o),
(1678,594,o),
(1678,468,cs),
(1678,342,o),
(1574,236,o),
(1448,236,cs)
);
},
{
closed = 1;
nodes = (
(1262,1812,l),
(1634,1812,l),
(1634,880,l),
(1262,880,l)
);
}
);
width = 2896;
}
);
metricWidth = symbolBase;
unicode = 1024047;
}
{
color = 11;
glyphname = iconExternal;
layers = (
{
layerId = "B1F27B51-9973-4381-9301-4FE46FE1CA59";
shapes = (
{
closed = 1;
nodes = (
(2220,-121,ls),
(2293,-121,o),
(2353,-60,o),
(2353,12,cs),
(2353,1128,ls),
(2353,1161,o),
(2326,1189,o),
(2293,1189,cs),
(2259,1189,o),
(2232,1161,o),
(2232,1128,cs),
(2232,12,ls),
(2232,6,o),
(2226,0,o),
(2220,0,cs),
(434,0,ls),
(428,0,o),
(422,6,o),
(422,12,cs),
(422,1798,ls),
(422,1804,o),
(428,1810,o),
(434,1810,cs),
(1551,1810,ls),
(1584,1810,o),
(1611,1837,o),
(1611,1870,cs),
(1611,1904,o),
(1584,1931,o),
(1551,1931,cs),
(434,1931,ls),
(362,1931,o),
(302,1870,o),
(302,1798,cs),
(302,12,ls),
(302,-60,o),
(362,-121,o),
(434,-121,cs)
);
},
{
closed = 1;
nodes = (
(1297,839,o),
(1336,839,o),
(1358,863,cs),
(2425,1931,l),
(2425,1424,ls),
(2425,1391,o),
(2453,1364,o),
(2486,1364,cs),
(2519,1364,o),
(2546,1391,o),
(2546,1424,cs),
(2546,2075,ls),
(2546,2091,o),
(2540,2106,o),
(2528,2118,cs),
(2519,2130,o),
(2501,2136,o),
(2486,2136,cs),
(1834,2136,ls),
(1801,2136,o),
(1774,2109,o),
(1774,2075,cs),
(1774,2042,o),
(1801,2015,o),
(1834,2015,cs),
(2341,2015,l),
(1273,947,ls),
(1249,923,o),
(1249,887,o),
(1273,863,cs)
);
}
);
width = 2896;
},
{
background = {
shapes = (
{
closed = 1;
nodes = (
);
}
);
};
layerId = "CD0E3B44-F66A-4791-B84C-A1128DC61275";
shapes = (
{
closed = 1;
nodes = (
(2220,-181,ls),
(2326,-181,o),
(2413,-94,o),
(2413,12,cs),
(2413,1008,ls),
(2413,1074,o),
(2359,1128,o),
(2293,1128,cs),
(2226,1128,o),
(2172,1074,o),
(2172,1008,cs),
(2172,60,ls),
(2172,60,o),
(2172,60,o),
(2172,60,cs),
(483,60,ls),
(483,60,o),
(483,60,o),
(483,60,cs),
(483,1750,ls),
(483,1750,o),
(483,1750,o),
(483,1750,cs),
(1430,1750,ls),
(1496,1750,o),
(1551,1804,o),
(1551,1870,cs),
(1551,1937,o),
(1496,1991,o),
(1430,1991,cs),
(434,1991,ls),
(329,1991,o),
(241,1904,o),
(241,1798,cs),
(241,12,ls),
(241,-94,o),
(329,-181,o),
(434,-181,cs)
);
},
{
closed = 1;
nodes = (
(1279,772,o),
(1354,772,o),
(1403,821,cs),
(2365,1783,l),
(2365,1424,ls),
(2365,1358,o),
(2419,1303,o),
(2486,1303,cs),
(2552,1303,o),
(2606,1358,o),
(2606,1424,cs),
(2606,2075,ls),
(2606,2106,o),
(2594,2139,o),
(2570,2160,cs),
(2549,2184,o),
(2519,2196,o),
(2486,2196,cs),
(1834,2196,ls),
(1768,2196,o),
(1713,2142,o),
(1713,2075,cs),
(1713,2009,o),
(1768,1955,o),
(1834,1955,cs),
(2196,1955,l),
(1231,989,ls),
(1183,944,o),
(1183,866,o),
(1231,821,cs)
);
}
);
width = 2896;
},
{
layerId = "5C20EF92-B63D-42A8-8878-93C2863E0093";
shapes = (
{
closed = 1;
nodes = (
(2220,-241,ls),
(2359,-241,o),
(2474,-127,o),
(2474,12,cs),
(2474,1008,ls),
(2474,1107,o),
(2392,1189,o),
(2293,1189,cs),
(2193,1189,o),
(2112,1107,o),
(2112,1008,cs),
(2112,121,ls),
(2112,121,o),
(2112,121,o),
(2112,121,cs),
(543,121,ls),
(543,121,o),
(543,121,o),
(543,121,cs),
(543,1689,ls),
(543,1689,o),
(543,1689,o),
(543,1689,cs),
(1430,1689,ls),
(1529,1689,o),
(1611,1771,o),
(1611,1870,cs),
(1611,1970,o),
(1529,2051,o),
(1430,2051,cs),
(434,2051,ls),
(296,2051,o),
(181,1937,o),
(181,1798,cs),
(181,12,ls),
(181,-127,o),
(296,-241,o),
(434,-241,cs)
);
},
{
closed = 1;
nodes = (
(1258,706,o),
(1373,706,o),
(1445,778,cs),
(2305,1638,l),
(2305,1424,ls),
(2305,1324,o),
(2386,1243,o),
(2486,1243,cs),
(2585,1243,o),
(2667,1324,o),
(2667,1424,cs),
(2667,2075,ls),
(2667,2124,o),
(2649,2169,o),
(2615,2202,cs),
(2579,2238,o),
(2534,2256,o),
(2486,2256,cs),
(1834,2256,ls),
(1735,2256,o),
(1653,2175,o),
(1653,2075,cs),
(1653,1976,o),
(1735,1894,o),
(1834,1894,cs),
(2048,1894,l),
(1189,1032,ls),
(1116,962,o),
(1116,848,o),
(1189,778,cs)
);
}
);
width = 2896;
}
);
metricWidth = symbolBase;
unicode = 1024048;
}
{
color = 11;
glyphname = iconEye;
layers = (
{
layerId = "CD0E3B44-F66A-4791-B84C-A1128DC61275";
shapes = (
{
closed = 1;
nodes = (
(1819,181,o),
(2145,308,o),
(2395,582,cs),
(2579,781,o),
(2646,980,o),
(2649,986,cs),
(2658,1014,o),
(2658,1038,o),
(2649,1065,cs),
(2646,1071,o),
(2579,1270,o),
(2395,1469,cs),
(2145,1744,o),
(1819,1870,o),
(1448,1870,cs),
(1077,1870,o),
(751,1744,o),
(501,1469,cs),
(317,1270,o),
(250,1071,o),
(247,1065,cs),
(238,1038,o),
(238,1014,o),
(247,986,cs),
(250,980,o),
(317,781,o),
(501,582,cs),
(751,308,o),
(1077,181,o),
(1448,181,cs)
);
},
{
closed = 1;
nodes = (
(1152,422,o),
(884,525,o),
(685,739,cs),
(576,851,o),
(519,968,o),
(492,1026,c),
(519,1083,o),
(576,1201,o),
(685,1312,cs),
(884,1526,o),
(1152,1629,o),
(1448,1629,cs),
(1744,1629,o),
(2012,1526,o),
(2211,1312,cs),
(2320,1201,o),
(2377,1083,o),
(2404,1026,c),
(2377,968,o),
(2320,851,o),
(2211,739,cs),
(2012,525,o),
(1744,422,o),
(1448,422,cs)
);
},
{
closed = 1;
nodes = (
(1713,543,o),
(1931,760,o),
(1931,1026,cs),
(1931,1291,o),
(1713,1508,o),
(1448,1508,cs),
(1183,1508,o),
(965,1291,o),
(965,1026,cs),
(965,760,o),
(1183,543,o),
(1448,543,cs)
);
},
{
closed = 1;
nodes = (
(1315,784,o),
(1207,893,o),
(1207,1026,cs),
(1207,1158,o),
(1315,1267,o),
(1448,1267,cs),
(1581,1267,o),
(1689,1158,o),
(1689,1026,cs),
(1689,893,o),
(1581,784,o),
(1448,784,cs)
);
}
);
width = 2896;
},
{
layerId = "B1F27B51-9973-4381-9301-4FE46FE1CA59";
shapes = (
{
closed = 1;
nodes = (
(1794,250,o),
(2104,368,o),
(2346,628,cs),
(2516,816,o),
(2578,1002,o),
(2582,1012,cs),
(2584,1022,o),
(2584,1030,o),
(2582,1040,cs),
(2578,1050,o),
(2516,1234,o),
(2346,1424,cs),
(2104,1684,o),
(1794,1800,o),
(1448,1800,cs),
(1102,1800,o),
(792,1684,o),
(550,1424,cs),
(380,1234,o),
(318,1050,o),
(314,1040,cs),
(312,1030,o),
(312,1022,o),
(314,1012,cs),
(318,1002,o),
(380,816,o),
(550,628,cs),
(792,368,o),
(1102,250,o),
(1448,250,cs)
);
},
{
closed = 1;
nodes = (
(1128,352,o),
(846,458,o),
(630,694,cs),
(500,836,o),
(434,978,o),
(414,1026,c),
(434,1072,o),
(500,1216,o),
(630,1358,cs),
(846,1594,o),
(1128,1698,o),
(1448,1698,cs),
(1768,1698,o),
(2050,1594,o),
(2266,1358,cs),
(2396,1216,o),
(2462,1072,o),
(2482,1026,c),
(2462,978,o),
(2396,836,o),
(2266,694,cs),
(2050,458,o),
(1768,352,o),
(1448,352,cs)
);
},
{
closed = 1;
nodes = (
(1676,610,o),
(1862,798,o),
(1862,1026,cs),
(1862,1254,o),
(1676,1440,o),
(1448,1440,cs),
(1220,1440,o),
(1034,1254,o),
(1034,1026,cs),
(1034,798,o),
(1220,610,o),
(1448,610,cs)
);
},
{
closed = 1;
nodes = (
(1276,712,o),
(1134,854,o),
(1134,1026,cs),
(1134,1198,o),
(1276,1338,o),
(1448,1338,cs),
(1620,1338,o),
(1762,1198,o),
(1762,1026,cs),
(1762,854,o),
(1620,712,o),
(1448,712,cs)
);
}
);
width = 2896;
},
{
layerId = "5C20EF92-B63D-42A8-8878-93C2863E0093";
shapes = (
{
closed = 1;
nodes = (
(1956,116,o),
(2272,352,o),
(2442,538,cs),
(2632,742,o),
(2700,946,o),
(2710,966,cs),
(2722,1004,o),
(2722,1048,o),
(2710,1084,cs),
(2700,1106,o),
(2632,1308,o),
(2442,1514,cs),
(2272,1700,o),
(1956,1936,o),
(1448,1936,cs),
(940,1936,o),
(624,1700,o),
(454,1514,cs),
(264,1308,o),
(196,1106,o),
(186,1084,cs),
(174,1048,o),
(174,1004,o),
(186,966,cs),
(196,946,o),
(264,742,o),
(454,538,cs),
(624,352,o),
(940,116,o),
(1448,116,cs)
);
},
{
closed = 1;
nodes = (
(1156,488,o),
(916,586,o),
(734,778,cs),
(648,874,o),
(592,964,o),
(562,1026,c),
(590,1084,o),
(642,1172,o),
(724,1260,cs),
(906,1462,o),
(1150,1564,o),
(1448,1564,cs),
(1740,1564,o),
(1980,1466,o),
(2162,1274,cs),
(2248,1178,o),
(2304,1086,o),
(2334,1026,c),
(2306,968,o),
(2254,880,o),
(2172,790,cs),
(1990,588,o),
(1746,488,o),
(1448,488,cs)
);
},
{
closed = 1;
nodes = (
(1714,542,o),
(1932,760,o),
(1932,1026,cs),
(1932,1292,o),
(1714,1510,o),
(1448,1510,cs),
(1182,1510,o),
(964,1292,o),
(964,1026,cs),
(964,760,o),
(1182,542,o),
(1448,542,cs)
);
},
{
closed = 1;
nodes = (
(1386,912,o),
(1334,962,o),
(1333.994,1026,cs),
(1334,1088,o),
(1386,1138,o),
(1448,1138,cs),
(1510,1138,o),
(1562,1088,o),
(1562.006,1026,cs),
(1562,962,o),
(1510,912,o),
(1448,912,cs)
);
}
);
width = 2896;
}
);
metricWidth = symbolBase;
unicode = 1024049;
}
{
color = 11;
glyphname = iconHeart;
layers = (
{
layerId = "CD0E3B44-F66A-4791-B84C-A1128DC61275";
shapes = (
{
closed = 1;
nodes = (
(1481,0,o),
(1511,12,o),
(1532,36,cs),
(2329,839,ls),
(2507,1017,o),
(2534,1240,o),
(2534,1442,cs),
(2534,1777,o),
(2266,2051,o),
(1931,2051,cs),
(1732,2051,o),
(1557,1955,o),
(1448,1807,c),
(1339,1955,o),
(1164,2051,o),
(965,2051,cs),
(630,2051,o),
(362,1777,o),
(362,1442,cs),
(362,1240,o),
(389,1017,o),
(567,839,cs),
(1364,36,ls),
(1385,12,o),
(1415,0,o),
(1448,0,cs)
);
},
{
closed = 1;
nodes = (
(739,1008,ls),
(630,1116,o),
(603,1258,o),
(603,1442,cs),
(603,1647,o),
(766,1810,o),
(965,1810,cs),
(1164,1810,o),
(1327,1647,o),
(1327,1442,cs),
(1327,1376,o),
(1382,1321,o),
(1448,1321,cs),
(1514,1321,o),
(1569,1376,o),
(1569,1442,cs),
(1569,1647,o),
(1732,1810,o),
(1931,1810,cs),
(2130,1810,o),
(2293,1647,o),
(2293,1442,cs),
(2293,1258,o),
(2266,1116,o),
(2157,1008,cs),
(1448,293,l)
);
}
);
width = 2896;
},
{
layerId = "B1F27B51-9973-4381-9301-4FE46FE1CA59";
shapes = (
{
closed = 1;
nodes = (
(1460,70,o),
(1472,74,o),
(1484,84,cs),
(2276,888,ls),
(2438,1048,o),
(2464,1244,o),
(2464,1442,cs),
(2464,1742,o),
(2226,1982,o),
(1932,1982,cs),
(1718,1982,o),
(1536,1856,o),
(1448,1678,c),
(1360,1856,o),
(1178,1982,o),
(966,1982,cs),
(670,1982,o),
(432,1742,o),
(432,1442,cs),
(432,1244,o),
(458,1048,o),
(620,888,cs),
(1412,84,ls),
(1424,74,o),
(1436,70,o),
(1448,70,cs)
);
},
{
closed = 1;
nodes = (
(690,958,ls),
(560,1088,o),
(534,1252,o),
(534,1442,cs),
(534,1686,o),
(728,1880,o),
(966,1880,cs),
(1204,1880,o),
(1398,1686,o),
(1398,1442,cs),
(1398,1414,o),
(1420,1392,o),
(1448,1392,cs),
(1476,1392,o),
(1498,1414,o),
(1498,1442,cs),
(1498,1686,o),
(1692,1880,o),
(1932,1880,cs),
(2168,1880,o),
(2362,1686,o),
(2362,1442,cs),
(2362,1252,o),
(2336,1088,o),
(2206,958,cs),
(1448,192,l)
);
}
);
width = 2896;
},
{
layerId = "5C20EF92-B63D-42A8-8878-93C2863E0093";
shapes = (
{
closed = 1;
nodes = (
(1498,-64,o),
(1544,-46,o),
(1582,-8,cs),
(2374,794,ls),
(2572,990,o),
(2598,1234,o),
(2598,1442,cs),
(2598,1812,o),
(2302,2116,o),
(1932,2116,cs),
(1742,2116,o),
(1570,2036,o),
(1448,1910,c),
(1326,2036,o),
(1154,2116,o),
(966,2116,cs),
(594,2116,o),
(298,1812,o),
(298,1442,cs),
(298,1234,o),
(324,990,o),
(522,794,cs),
(1314,-8,ls),
(1352,-46,o),
(1398,-64,o),
(1448,-64,cs)
);
},
{
closed = 1;
nodes = (
(784,1052,ls),
(696,1144,o),
(668,1264,o),
(668,1442,cs),
(668,1612,o),
(802,1746,o),
(966,1746,cs),
(1128,1746,o),
(1262,1612,o),
(1262,1442,cs),
(1262,1340,o),
(1346,1256,o),
(1448,1256,cs),
(1550,1256,o),
(1634,1340,o),
(1634,1442,cs),
(1634,1612,o),
(1768,1746,o),
(1932,1746,cs),
(2094,1746,o),
(2228,1612,o),
(2228,1442,cs),
(2228,1264,o),
(2200,1144,o),
(2112,1052,cs),
(1448,382,l)
);
}
);
width = 2896;
}
);
metricWidth = symbolBase;
unicode = 1024050;
}
{
color = 11;
glyphname = iconMessage;
layers = (
{
layerId = "CD0E3B44-F66A-4791-B84C-A1128DC61275";
shapes = (
{
closed = 1;
nodes = (
(1421,-75,o),
(1496,-69,o),
(1539,-18,cs),
(1922,422,l),
(2534,422,ls),
(2600,422,o),
(2655,477,o),
(2655,543,cs),
(2655,1991,ls),
(2655,2057,o),
(2600,2112,o),
(2534,2112,cs),
(362,2112,ls),
(296,2112,o),
(241,2057,o),
(241,1991,cs),
(241,543,ls),
(241,477,o),
(296,422,o),
(362,422,cs),
(1198,422,ls),
(1264,422,o),
(1318,477,o),
(1318,543,cs),
(1318,609,o),
(1264,664,o),
(1198,664,cs),
(483,664,l),
(483,1870,l),
(2413,1870,l),
(2413,664,l),
(1864,664,ls),
(1831,664,o),
(1798,649,o),
(1774,621,cs),
(1358,139,ls),
(1312,87,o),
(1318,12,o),
(1370,-30,cs)
);
},
{
closed = 1;
nodes = (
(1071,1146,o),
(1125,1201,o),
(1125,1267,cs),
(1125,1333,o),
(1071,1388,o),
(1005,1388,cs),
(938,1388,o),
(884,1333,o),
(884,1267,cs),
(884,1201,o),
(938,1146,o),
(1005,1146,cs)
);
},
{
closed = 1;
nodes = (
(1514,1146,o),
(1569,1201,o),
(1569,1267,cs),
(1569,1333,o),
(1514,1388,o),
(1448,1388,cs),
(1382,1388,o),
(1327,1333,o),
(1327,1267,cs),
(1327,1201,o),
(1382,1146,o),
(1448,1146,cs)
);
},
{
closed = 1;
nodes = (
(1958,1146,o),
(2012,1201,o),
(2012,1267,cs),
(2012,1333,o),
(1958,1388,o),
(1891,1388,cs),
(1825,1388,o),
(1771,1333,o),
(1771,1267,cs),
(1771,1201,o),
(1825,1146,o),
(1891,1146,cs)
);
}
);
width = 2896;
},
{
layerId = "B1F27B51-9973-4381-9301-4FE46FE1CA59";
shapes = (
{
closed = 1;
nodes = (
(1436,6,o),
(1468,8,o),
(1486,28,cs),
(1890,492,l),
(2534,492,ls),
(2562,492,o),
(2584,516,o),
(2584,544,cs),
(2584,1992,ls),
(2584,2018,o),
(2562,2042,o),
(2534,2042,cs),
(362,2042,ls),
(334,2042,o),
(312,2018,o),
(312,1992,cs),
(312,544,ls),
(312,516,o),
(334,492,o),
(362,492,cs),
(1198,492,ls),
(1226,492,o),
(1248,516,o),
(1248,544,cs),
(1248,570,o),
(1226,594,o),
(1198,594,cs),
(412,594,l),
(412,1940,l),
(2484,1940,l),
(2484,594,l),
(1864,594,ls),
(1852,594,o),
(1836,586,o),
(1826,576,cs),
(1410,94,ls),
(1394,72,o),
(1396,40,o),
(1416,22,cs)
);
},
{
closed = 1;
nodes = (
(1072,1146,o),
(1126,1202,o),
(1126,1268,cs),
(1126,1334,o),
(1072,1388,o),
(1006,1388,cs),
(938,1388,o),
(884,1334,o),
(884,1268,cs),
(884,1202,o),
(938,1146,o),
(1006,1146,cs)
);
},
{
closed = 1;
nodes = (
(1514,1146,o),
(1570,1202,o),
(1570,1268,cs),
(1570,1334,o),
(1514,1388,o),
(1448,1388,cs),
(1382,1388,o),
(1328,1334,o),
(1328,1268,cs),
(1328,1202,o),
(1382,1146,o),
(1448,1146,cs)
);
},
{
closed = 1;
nodes = (
(1958,1146,o),
(2012,1202,o),
(2012,1268,cs),
(2012,1334,o),
(1958,1388,o),
(1892,1388,cs),
(1826,1388,o),
(1772,1334,o),
(1772,1268,cs),
(1772,1202,o),
(1826,1146,o),
(1892,1146,cs)
);
}
);
width = 2896;
},
{
layerId = "5C20EF92-B63D-42A8-8878-93C2863E0093";
shapes = (
{
closed = 1;
nodes = (
(1406,-146,o),
(1522,-138,o),
(1588,-60,cs),
(1950,358,l),
(2534,358,ls),
(2636,358,o),
(2720,440,o),
(2720,544,cs),
(2720,1992,ls),
(2720,2094,o),
(2636,2176,o),
(2534,2176,cs),
(362,2176,ls),
(260,2176,o),
(176,2094,o),
(176,1992,cs),
(176,544,ls),
(176,440,o),
(260,358,o),
(362,358,cs),
(1198,358,ls),
(1300,358,o),
(1384,440,o),
(1384,544,cs),
(1384,646,o),
(1300,728,o),
(1198,728,cs),
(548,728,l),
(548,1806,l),
(2348,1806,l),
(2348,728,l),
(1864,728,ls),
(1812,728,o),
(1762,704,o),
(1726,664,cs),
(1308,180,ls),
(1242,104,o),
(1250,-14,o),
(1328,-78,cs)
);
},
{
closed = 1;
nodes = (
(1072,1146,o),
(1126,1202,o),
(1126,1268,cs),
(1126,1334,o),
(1072,1388,o),
(1006,1388,cs),
(938,1388,o),
(884,1334,o),
(884,1268,cs),
(884,1202,o),
(938,1146,o),
(1006,1146,cs)
);
},
{
closed = 1;
nodes = (
(1514,1146,o),
(1570,1202,o),
(1570,1268,cs),
(1570,1334,o),
(1514,1388,o),
(1448,1388,cs),
(1382,1388,o),
(1328,1334,o),
(1328,1268,cs),
(1328,1202,o),
(1382,1146,o),
(1448,1146,cs)
);
},
{
closed = 1;
nodes = (
(1958,1146,o),
(2012,1202,o),
(2012,1268,cs),
(2012,1334,o),
(1958,1388,o),
(1892,1388,cs),
(1826,1388,o),
(1772,1334,o),
(1772,1268,cs),
(1772,1202,o),
(1826,1146,o),
(1892,1146,cs)
);
}
);
width = 2896;
}
);
metricWidth = symbolBase;
unicode = 1024051;
}
{
color = 11;
glyphname = iconPen;
layers = (
{
layerId = "CD0E3B44-F66A-4791-B84C-A1128DC61275";
shapes = (
{
closed = 1;
nodes = (
(977,-51,ls),
(1008,-51,o),
(1038,-42,o),
(1059,-21,cs),
(2407,1330,ls),
(2428,1351,o),
(2447,1370,o),
(2468,1391,cs),
(2534,1457,o),
(2561,1593,o),
(2468,1701,cs),
(2450,1720,o),
(2428,1741,o),
(2407,1765,cs),
(2187,1985,ls),
(2163,2006,o),
(2142,2027,o),
(2124,2045,cs),
(2009,2142,o),
(1873,2106,o),
(1813,2045,cs),
(1792,2024,o),
(1774,2006,o),
(1753,1985,cs),
(401,637,ls),
(380,615,o),
(371,585,o),
(371,555,cs),
(371,60,ls),
(371,-6,o),
(416,-51,o),
(483,-51,cs)
);
},
{
closed = 1;
nodes = (
(597,510,l),
(1910,1822,ls),
(1934,1846,o),
(1949,1861,o),
(1961,1873,cs),
(1967,1879,o),
(1970,1879,o),
(1976,1873,cs),
(1988,1861,o),
(2003,1849,o),
(2030,1822,cs),
(2244,1608,ls),
(2275,1578,o),
(2281,1569,o),
(2296,1554,cs),
(2299,1551,o),
(2302,1545,o),
(2296,1539,cs),
(2284,1526,o),
(2272,1514,o),
(2244,1487,cs),
(932,175,l),
(597,175,l)
);
}
);
width = 2896;
},
{
layerId = "B1F27B51-9973-4381-9301-4FE46FE1CA59";
shapes = (
{
closed = 1;
nodes = (
(978,8,ls),
(994,8,o),
(1004,14,o),
(1014,24,cs),
(2362,1374,ls),
(2386,1394,o),
(2404,1416,o),
(2418,1434,cs),
(2480,1494,o),
(2478,1606,o),
(2418,1662,cs),
(2404,1680,o),
(2386,1698,o),
(2362,1722,cs),
(2144,1940,ls),
(2120,1964,o),
(2104,1982,o),
(2086,1996,cs),
(2028,2054,o),
(1918,2058,o),
(1854,1996,cs),
(1838,1982,o),
(1816,1964,o),
(1796,1940,cs),
(446,590,l),
(436,584,o),
(430,570,o),
(430,556,cs),
(430,60,ls),
(430,32,o),
(454,8,o),
(484,8,cs)
);
},
{
closed = 1;
nodes = (
(534,534,l),
(1864,1864,ls),
(1892,1892,o),
(1908,1908,o),
(1924,1922,cs),
(1950,1948,o),
(1990,1948,o),
(2016,1922,cs),
(2030,1908,o),
(2048,1892,o),
(2072,1864,cs),
(2288,1650,ls),
(2314,1626,o),
(2330,1606,o),
(2344,1594,cs),
(2370,1568,o),
(2370,1526,o),
(2344,1500,cs),
(2330,1484,o),
(2314,1470,o),
(2288,1442,cs),
(956,112,l),
(534,112,l)
);
}
);
width = 2896;
},
{
layerId = "5C20EF92-B63D-42A8-8878-93C2863E0093";
shapes = (
{
closed = 1;
nodes = (
(978,-126,ls),
(1028,-126,o),
(1074,-106,o),
(1110,-68,cs),
(2460,1278,ls),
(2480,1300,o),
(2504,1324,o),
(2522,1346,cs),
(2622,1462,o),
(2626,1630,o),
(2522,1750,cs),
(2504,1770,o),
(2480,1792,o),
(2460,1812,cs),
(2234,2036,ls),
(2214,2058,o),
(2192,2082,o),
(2172,2100,cs),
(2052,2204,o),
(1884,2202,o),
(1768,2100,cs),
(1748,2082,o),
(1722,2058,o),
(1700,2036,cs),
(354,688,l),
(316,652,o),
(298,604,o),
(298,556,cs),
(298,60,ls),
(298,-38,o),
(384,-126,o),
(484,-126,cs)
);
},
{
closed = 1;
nodes = (
(668,478,l),
(1968,1778,ls),
(1966,1776,o),
(1968,1778,o),
(1968,1778,cs),
(1970,1780,o),
(1970,1780,o),
(1972,1778,cs),
(1972,1778,o),
(1974,1776,o),
(1972,1778,cs),
(2200,1550,ls),
(2198,1552,o),
(2200,1550,o),
(2200,1550,cs),
(2202,1548,o),
(2202,1548,o),
(2200,1546,cs),
(2200,1546,o),
(2198,1544,o),
(2200,1546,cs),
(900,246,l),
(668,246,l)
);
}
);
width = 2896;
}
);
metricWidth = symbolBase;
unicode = 1024053;
}
{
color = 11;
glyphname = iconPen.medium;
layers = (
{
layerId = "CD0E3B44-F66A-4791-B84C-A1128DC61275";
metricWidth = "=baseSymbol.medium";
shapes = (
{
closed = 1;
nodes = (
(1222,-305,ls),
(1249,-305,o),
(1282,-296,o),
(1309,-268,cs),
(2996,1418,ls),
(3023,1445,o),
(3032,1457,o),
(3068,1493,cs),
(3152,1578,o),
(3180,1747,o),
(3071,1858,cs),
(3050,1882,o),
(3023,1910,o),
(2996,1937,cs),
(2721,2211,ls),
(2691,2241,o),
(2679,2250,o),
(2643,2287,cs),
(2528,2398,o),
(2353,2362,o),
(2278,2287,cs),
(2244,2256,o),
(2229,2238,o),
(2202,2211,cs),
(513,525,ls),
(489,501,o),
(480,468,o),
(480,437,cs),
(480,-181,ls),
(480,-253,o),
(531,-305,o),
(603,-305,cs)
);
},
{
closed = 1;
nodes = (
(727,389,l),
(2371,2033,ls),
(2401,2063,o),
(2416,2075,o),
(2440,2100,cs),
(2456,2115,o),
(2471,2109,o),
(2480,2100,cs),
(2492,2088,o),
(2531,2048,o),
(2534,2045,cs),
(2830,1750,ls),
(2854,1726,o),
(2866,1713,o),
(2881,1698,cs),
(2893,1686,o),
(2893,1668,o),
(2881,1656,cs),
(2848,1623,o),
(2863,1635,o),
(2818,1590,cs),
(1170,-57,l),
(727,-57,l)
);
}
);
userData = {
RMXScaler = {
height = 125;
verticalShift = -85;
width = 125;
};
};
width = 3620;
},
{
layerId = "B1F27B51-9973-4381-9301-4FE46FE1CA59";
metricWidth = "=baseSymbol.medium";
shapes = (
{
closed = 1;
nodes = (
(1222,-244,ls),
(1238,-244,o),
(1250,-239,o),
(1263,-226,cs),
(2949,1460,ls),
(2981,1491,o),
(2996,1509,o),
(3022,1535,cs),
(3105,1622,o),
(3082,1757,o),
(3022,1819,cs),
(2981,1860,o),
(2998,1846,o),
(2949,1895,cs),
(2679,2165,ls),
(2649,2195,o),
(2637,2204,o),
(2603,2237,cs),
(2524,2315,o),
(2390,2308,o),
(2320,2237,cs),
(2287,2203,o),
(2275,2192,o),
(2244,2165,cs),
(559,483,l),
(549,476,o),
(540,460,o),
(540,437,cs),
(540,-181,ls),
(540,-215,o),
(569,-244,o),
(603,-244,cs)
);
},
{
closed = 1;
nodes = (
(664,414,l),
(2329,2075,ls),
(2363,2111,o),
(2374,2119,o),
(2402,2147,cs),
(2442,2183,o),
(2491,2176,o),
(2521,2147,cs),
(2550,2114,o),
(2556,2112,o),
(2593,2074,cs),
(2856,1809,ls),
(2890,1774,o),
(2899,1769,o),
(2931,1737,cs),
(2967,1700,o),
(2961,1651,o),
(2931,1618,cs),
(2914,1601,o),
(2914,1598,o),
(2860,1544,cs),
(1196,-118,l),
(664,-118,l)
);
}
);
userData = {
RMXScaler = {
height = 125;
verticalShift = -85;
width = 125;
};
};
width = 3620;
},
{
layerId = "5C20EF92-B63D-42A8-8878-93C2863E0093";
metricWidth = "=baseSymbol.medium";
shapes = (
{
closed = 1;
nodes = (
(1222,-381,ls),
(1271,-381,o),
(1323,-363,o),
(1364,-323,cs),
(3050,1364,ls),
(3077,1391,o),
(3108,1425,o),
(3129,1445,cs),
(3236,1565,o),
(3260,1766,o),
(3128,1910,cs),
(3108,1931,o),
(3077,1961,o),
(3050,1988,cs),
(2772,2266,ls),
(2739,2299,o),
(2717,2324,o),
(2694,2344,cs),
(2560,2466,o),
(2362,2458,o),
(2235,2351,cs),
(2215,2333,o),
(2190,2309,o),
(2148,2266,cs),
(462,582,l),
(424,545,o),
(402,496,o),
(402,437,cs),
(402,-181,ls),
(402,-292,o),
(493,-381,o),
(603,-381,cs)
);
},
{
closed = 1;
nodes = (
(804,354,l),
(2425,1976,ls),
(2436,1987,o),
(2452,2002,o),
(2454,2004,cs),
(2459,2009,o),
(2464,2009,o),
(2467,2007,cs),
(2469,2005,o),
(2483,1990,o),
(2492,1982,cs),
(2766,1707,ls),
(2774,1699,o),
(2779,1693,o),
(2788,1685,cs),
(2793,1679,o),
(2790,1671,o),
(2788,1669,cs),
(2780,1661,o),
(2760,1642,o),
(2760,1641,cs),
(1138,19,l),
(804,19,l)
);
}
);
userData = {
RMXScaler = {
height = 125;
verticalShift = -85;
width = 125;
};
};
width = 3620;
}
);
unicode = 1024053;
userData = {
RMXScaler = {
source = iconPen.small;
};
};
}
{
color = 11;
glyphname = iconPerson;
layers = (
{
layerId = "CD0E3B44-F66A-4791-B84C-A1128DC61275";
shapes = (
{
closed = 1;
nodes = (
(480,-262,o),
(543,-217,o),
(552,-154,cs),
(615,220,o),
(944,543,o),
(1448,543,cs),
(1952,543,o),
(2281,220,o),
(2344,-154,cs),
(2353,-217,o),
(2416,-262,o),
(2483,-250,cs),
(2546,-241,o),
(2591,-178,o),
(2579,-112,cs),
(2498,383,o),
(2063,784,o),
(1448,784,cs),
(833,784,o),
(398,383,o),
(317,-112,cs),
(305,-178,o),
(350,-241,o),
(413,-250,cs)
);
},
{
closed = 1;
nodes = (
(1807,881,o),
(2100,1173,o),
(2100,1532,cs),
(2100,1891,o),
(1807,2184,o),
(1448,2184,cs),
(1089,2184,o),
(796,1891,o),
(796,1532,cs),
(796,1173,o),
(1089,881,o),
(1448,881,cs)
);
},
{
closed = 1;
nodes = (
(1222,1122,o),
(1038,1306,o),
(1038,1532,cs),
(1038,1759,o),
(1222,1943,o),
(1448,1943,cs),
(1674,1943,o),
(1858,1759,o),
(1858,1532,cs),
(1858,1306,o),
(1674,1122,o),
(1448,1122,cs)
);
}
);
width = 2896;
},
{
layerId = "B1F27B51-9973-4381-9301-4FE46FE1CA59";
shapes = (
{
closed = 1;
nodes = (
(456,-188,o),
(480,-168,o),
(486,-140,cs),
(552,268,o),
(912,612,o),
(1448,612,cs),
(1984,612,o),
(2344,268,o),
(2410,-140,cs),
(2416,-168,o),
(2440,-188,o),
(2470,-184,cs),
(2498,-178,o),
(2518,-154,o),
(2512,-126,cs),
(2436,334,o),
(2032,714,o),
(1448,714,cs),
(864,714,o),
(462,334,o),
(384,-126,cs),
(378,-154,o),
(398,-178,o),
(426,-184,cs)
);
},
{
closed = 1;
nodes = (
(1808,882,o),
(2100,1174,o),
(2100,1532,cs),
(2100,1892,o),
(1808,2184,o),
(1448,2184,cs),
(1090,2184,o),
(796,1892,o),
(796,1532,cs),
(796,1174,o),
(1090,882,o),
(1448,882,cs)
);
},
{
closed = 1;
nodes = (
(1144,982,o),
(898,1230,o),
(898,1532,cs),
(898,1836,o),
(1144,2082,o),
(1448,2082,cs),
(1752,2082,o),
(1998,1836,o),
(1998,1532,cs),
(1998,1230,o),
(1752,982,o),
(1448,982,cs)
);
}
);
width = 2896;
},
{
layerId = "5C20EF92-B63D-42A8-8878-93C2863E0093";
shapes = (
{
closed = 1;
nodes = (
(506,-334,o),
(600,-264,o),
(616,-164,cs),
(674,178,o),
(976,478,o),
(1448,478,cs),
(1920,478,o),
(2222,178,o),
(2280,-164,cs),
(2296,-264,o),
(2390,-334,o),
(2492,-316,cs),
(2594,-300,o),
(2662,-204,o),
(2644,-102,cs),
(2556,424,o),
(2096,850,o),
(1448,850,cs),
(800,850,o),
(340,424,o),
(252,-102,cs),
(234,-204,o),
(302,-300,o),
(404,-316,cs)
);
},
{
closed = 1;
nodes = (
(1808,882,o),
(2100,1174,o),
(2100,1532,cs),
(2100,1892,o),
(1808,2184,o),
(1448,2184,cs),
(1090,2184,o),
(796,1892,o),
(796,1532,cs),
(796,1174,o),
(1090,882,o),
(1448,882,cs)
);
},
{
closed = 1;
nodes = (
(1292,1252,o),
(1166,1378,o),
(1166,1532,cs),
(1166,1688,o),
(1292,1814,o),
(1448,1814,cs),
(1604,1814,o),
(1730,1688,o),
(1730,1532,cs),
(1730,1378,o),
(1604,1252,o),
(1448,1252,cs)
);
}
);
width = 2896;
}
);
metricWidth = symbolBase;
unicode = 1024054;
}
{
color = 11;
glyphname = iconSearch;
layers = (
{
layerId = "CD0E3B44-F66A-4791-B84C-A1128DC61275";
shapes = (
{
closed = 1;
nodes = (
(1720,362,o),
(2112,754,o),
(2112,1237,cs),
(2112,1720,o),
(1720,2112,o),
(1237,2112,cs),
(754,2112,o),
(362,1720,o),
(362,1237,cs),
(362,754,o),
(754,362,o),
(1237,362,cs)
);
},
{
closed = 1;
nodes = (
(887,603,o),
(603,887,o),
(603,1237,cs),
(603,1587,o),
(887,1870,o),
(1237,1870,cs),
(1587,1870,o),
(1870,1587,o),
(1870,1237,cs),
(1870,887,o),
(1587,603,o),
(1237,603,cs)
);
},
{
closed = 1;
nodes = (
(2374,-72,o),
(2453,-72,o),
(2498,-24,cs),
(2546,21,o),
(2546,100,o),
(2498,145,cs),
(1894,748,l),
(1726,579,l),
(2329,-24,ls)
);
}
);
width = 2896;
},
{
layerId = "B1F27B51-9973-4381-9301-4FE46FE1CA59";
shapes = (
{
closed = 1;
nodes = (
(1680,432,o),
(2042,792,o),
(2042,1238,cs),
(2042,1680,o),
(1680,2042,o),
(1238,2042,cs),
(792,2042,o),
(432,1680,o),
(432,1238,cs),
(432,792,o),
(792,432,o),
(1238,432,cs)
);
},
{
closed = 1;
nodes = (
(848,534,o),
(534,848,o),
(534,1238,cs),
(534,1626,o),
(848,1940,o),
(1238,1940,cs),
(1626,1940,o),
(1940,1626,o),
(1940,1238,cs),
(1940,848,o),
(1626,534,o),
(1238,534,cs)
);
},
{
closed = 1;
nodes = (
(2398,4,o),
(2428,4,o),
(2450,24,cs),
(2470,46,o),
(2470,74,o),
(2450,96,cs),
(1846,700,l),
(1774,628,l),
(2378,24,ls)
);
}
);
width = 2896;
},
{
layerId = "5C20EF92-B63D-42A8-8878-93C2863E0093";
shapes = (
{
closed = 1;
nodes = (
(1756,298,o),
(2176,718,o),
(2176,1238,cs),
(2176,1756,o),
(1756,2176,o),
(1238,2176,cs),
(718,2176,o),
(298,1756,o),
(298,1238,cs),
(298,718,o),
(718,298,o),
(1238,298,cs)
);
},
{
closed = 1;
nodes = (
(922,668,o),
(668,922,o),
(668,1238,cs),
(668,1552,o),
(922,1806,o),
(1238,1806,cs),
(1552,1806,o),
(1806,1552,o),
(1806,1238,cs),
(1806,922,o),
(1552,668,o),
(1238,668,cs)
);
},
{
closed = 1;
nodes = (
(2354,-144,o),
(2472,-144,o),
(2542,-68,cs),
(2616,2,o),
(2616,120,o),
(2542,190,cs),
(1940,792,l),
(1680,534,l),
(2284,-68,ls)
);
}
);
width = 2896;
}
);
metricWidth = symbolBase;
unicode = 1024056;
}
{
color = 11;
glyphname = iconShare;
layers = (
{
layerId = "CD0E3B44-F66A-4791-B84C-A1128DC61275";
shapes = (
{
closed = 1;
nodes = (
(1879,1650,ls),
(1934,1689,o),
(1946,1765,o),
(1910,1819,cs),
(1870,1873,o),
(1795,1885,o),
(1741,1849,cs),
(956,1306,ls),
(902,1267,o),
(890,1192,o),
(926,1137,cs),
(965,1083,o),
(1041,1071,o),
(1095,1107,cs)
);
},
{
closed = 1;
nodes = (
(1044,664,o),
(1207,827,o),
(1207,1026,cs),
(1207,1225,o),
(1044,1388,o),
(845,1388,cs),
(646,1388,o),
(483,1225,o),
(483,1026,cs),
(483,827,o),
(646,664,o),
(845,664,cs)
);
},
{
closed = 1;
nodes = (
(778,905,o),
(724,959,o),
(724,1026,cs),
(724,1092,o),
(778,1146,o),
(845,1146,cs),
(911,1146,o),
(965,1092,o),
(965,1026,cs),
(965,959,o),
(911,905,o),
(845,905,cs)
);
},
{
closed = 1;
nodes = (
(1795,166,o),
(1870,178,o),
(1910,232,cs),
(1946,287,o),
(1934,362,o),
(1879,401,cs),
(1095,944,ls),
(1041,980,o),
(965,968,o),
(926,914,cs),
(890,860,o),
(902,784,o),
(956,745,cs),
(1741,202,ls)
);
},
{
closed = 1;
nodes = (
(2250,-181,o),
(2413,-18,o),
(2413,181,cs),
(2413,380,o),
(2250,543,o),
(2051,543,cs),
(1852,543,o),
(1689,380,o),
(1689,181,cs),
(1689,-18,o),
(1852,-181,o),
(2051,-181,cs)
);
},
{
closed = 1;
nodes = (
(1985,60,o),
(1931,115,o),
(1931,181,cs),
(1931,247,o),
(1985,302,o),
(2051,302,cs),
(2118,302,o),
(2172,247,o),
(2172,181,cs),
(2172,115,o),
(2118,60,o),
(2051,60,cs)
);
},
{
closed = 1;
nodes = (
(2250,1508,o),
(2413,1671,o),
(2413,1870,cs),
(2413,2069,o),
(2250,2232,o),
(2051,2232,cs),
(1852,2232,o),
(1689,2069,o),
(1689,1870,cs),
(1689,1671,o),
(1852,1508,o),
(2051,1508,cs)
);
},
{
closed = 1;
nodes = (
(1985,1750,o),
(1931,1804,o),
(1931,1870,cs),
(1931,1937,o),
(1985,1991,o),
(2051,1991,cs),
(2118,1991,o),
(2172,1937,o),
(2172,1870,cs),
(2172,1804,o),
(2118,1750,o),
(2051,1750,cs)
);
}
);
width = 2896;
},
{
layerId = "B1F27B51-9973-4381-9301-4FE46FE1CA59";
shapes = (
{
closed = 1;
nodes = (
(1838,1710,ls),
(1860,1724,o),
(1868,1754,o),
(1850,1778,cs),
(1836,1800,o),
(1806,1808,o),
(1782,1790,cs),
(998,1246,ls),
(976,1232,o),
(966,1202,o),
(986,1178,cs),
(1000,1156,o),
(1030,1148,o),
(1054,1166,cs)
);
},
{
closed = 1;
nodes = (
(1006,734,o),
(1136,866,o),
(1136,1026,cs),
(1136,1186,o),
(1006,1318,o),
(846,1318,cs),
(684,1318,o),
(552,1186,o),
(552,1026,cs),
(552,866,o),
(684,734,o),
(846,734,cs)
);
},
{
closed = 1;
nodes = (
(740,836,o),
(654,920,o),
(654,1026,cs),
(654,1130,o),
(740,1216,o),
(846,1216,cs),
(950,1216,o),
(1036,1130,o),
(1036,1026,cs),
(1036,920,o),
(950,836,o),
(846,836,cs)
);
},
{
closed = 1;
nodes = (
(1806,242,o),
(1836,252,o),
(1850,274,cs),
(1868,298,o),
(1860,328,o),
(1838,342,cs),
(1054,884,ls),
(1030,904,o),
(1000,894,o),
(986,872,cs),
(966,850,o),
(976,820,o),
(998,804,cs),
(1782,262,ls)
);
},
{
closed = 1;
nodes = (
(2212,-112,o),
(2344,20,o),
(2344,182,cs),
(2344,342,o),
(2212,474,o),
(2052,474,cs),
(1890,474,o),
(1760,342,o),
(1760,182,cs),
(1760,20,o),
(1890,-112,o),
(2052,-112,cs)
);
},
{
closed = 1;
nodes = (
(1946,-10,o),
(1860,76,o),
(1860,182,cs),
(1860,286,o),
(1946,372,o),
(2052,372,cs),
(2156,372,o),
(2242,286,o),
(2242,182,cs),
(2242,76,o),
(2156,-10,o),
(2052,-10,cs)
);
},
{
closed = 1;
nodes = (
(2212,1578,o),
(2344,1710,o),
(2344,1870,cs),
(2344,2030,o),
(2212,2162,o),
(2052,2162,cs),
(1890,2162,o),
(1760,2030,o),
(1760,1870,cs),
(1760,1710,o),
(1890,1578,o),
(2052,1578,cs)
);
},
{
closed = 1;
nodes = (
(1946,1680,o),
(1860,1766,o),
(1860,1870,cs),
(1860,1976,o),
(1946,2060,o),
(2052,2060,cs),
(2156,2060,o),
(2242,1976,o),
(2242,1870,cs),
(2242,1766,o),
(2156,1680,o),
(2052,1680,cs)
);
}
);
width = 2896;
},
{
layerId = "5C20EF92-B63D-42A8-8878-93C2863E0093";
shapes = (
{
closed = 1;
nodes = (
(1916,1598,ls),
(1998,1656,o),
(2020,1772,o),
(1962,1854,cs),
(1904,1938,o),
(1788,1960,o),
(1704,1900,cs),
(920,1358,ls),
(838,1300,o),
(816,1186,o),
(874,1102,cs),
(940,1004,o),
(1056,1004,o),
(1130,1056,cs)
);
},
{
closed = 1;
nodes = (
(1080,598,o),
(1272,790,o),
(1272,1026,cs),
(1272,1260,o),
(1080,1452,o),
(846,1452,cs),
(610,1452,o),
(418,1260,o),
(418,1026,cs),
(418,790,o),
(610,598,o),
(846,598,cs)
);
},
{
closed = 1;
nodes = (
(814,970,o),
(788,994,o),
(788,1026,cs),
(788,1056,o),
(814,1082,o),
(846,1082,cs),
(876,1082,o),
(900,1056,o),
(900,1026,cs),
(900,994,o),
(876,970,o),
(846,970,cs)
);
},
{
closed = 1;
nodes = (
(1788,92,o),
(1904,114,o),
(1962,196,cs),
(2020,280,o),
(1998,394,o),
(1916,452,cs),
(1130,996,ls),
(1050,1052,o),
(932,1040,o),
(874,950,cs),
(816,866,o),
(838,752,o),
(920,694,cs),
(1704,150,ls)
);
},
{
closed = 1;
nodes = (
(2286,-246,o),
(2478,-54,o),
(2478,182,cs),
(2478,416,o),
(2286,608,o),
(2052,608,cs),
(1816,608,o),
(1624,416,o),
(1624,182,cs),
(1624,-54,o),
(1816,-246,o),
(2052,-246,cs)
);
},
{
closed = 1;
nodes = (
(2020,126,o),
(1996,150,o),
(1996,182,cs),
(1996,212,o),
(2020,236,o),
(2052,236,cs),
(2082,236,o),
(2108,212,o),
(2108,182,cs),
(2108,150,o),
(2082,126,o),
(2052,126,cs)
);
},
{
closed = 1;
nodes = (
(2286,1444,o),
(2478,1636,o),
(2478,1870,cs),
(2478,2106,o),
(2286,2298,o),
(2052,2298,cs),
(1816,2298,o),
(1624,2106,o),
(1624,1870,cs),
(1624,1636,o),
(1816,1444,o),
(2052,1444,cs)
);
},
{
closed = 1;
nodes = (
(2020,1814,o),
(1996,1840,o),
(1996,1870,cs),
(1996,1902,o),
(2020,1926,o),
(2052,1926,cs),
(2082,1926,o),
(2108,1902,o),
(2108,1870,cs),
(2108,1840,o),
(2082,1814,o),
(2052,1814,cs)
);
}
);
width = 2896;
}
);
metricWidth = symbolBase;
unicode = 1024057;
}
{
color = 11;
glyphname = iconSorting;
layers = (
{
layerId = "CD0E3B44-F66A-4791-B84C-A1128DC61275";
shapes = (
{
closed = 1;
nodes = (
(552,1448,o),
(609,1448,o),
(646,1484,cs),
(929,1768,l),
(1213,1484,ls),
(1246,1448,o),
(1303,1448,o),
(1339,1484,cs),
(1376,1517,o),
(1376,1575,o),
(1339,1611,cs),
(992,1958,ls),
(974,1976,o),
(953,1985,o),
(929,1985,cs),
(905,1985,o),
(881,1976,o),
(863,1958,cs),
(516,1611,ls),
(480,1575,o),
(480,1517,o),
(516,1484,cs)
);
},
{
closed = 1;
nodes = (
(977,66,o),
(1020,106,o),
(1020,157,cs),
(1020,1894,ls),
(1020,1946,o),
(977,1985,o),
(929,1985,cs),
(878,1985,o),
(839,1946,o),
(839,1894,cs),
(839,157,ls),
(839,106,o),
(878,66,o),
(929,66,cs)
);
},
{
closed = 1;
nodes = (
(1994,66,o),
(2015,75,o),
(2033,94,cs),
(2380,440,ls),
(2416,477,o),
(2416,534,o),
(2380,567,cs),
(2347,603,o),
(2290,603,o),
(2253,567,cs),
(1970,284,l),
(1686,567,ls),
(1650,603,o),
(1593,603,o),
(1557,567,cs),
(1523,534,o),
(1523,477,o),
(1557,440,cs),
(1907,94,l),
(1922,75,o),
(1946,66,o),
(1970,66,cs)
);
},
{
closed = 1;
nodes = (
(2021,66,o),
(2060,106,o),
(2060,157,cs),
(2060,1894,ls),
(2060,1946,o),
(2021,1985,o),
(1970,1985,cs),
(1919,1985,o),
(1879,1946,o),
(1879,1894,cs),
(1879,157,ls),
(1879,106,o),
(1919,66,o),
(1970,66,cs)
);
}
);
width = 2896;
},
{
layerId = "B1F27B51-9973-4381-9301-4FE46FE1CA59";
shapes = (
{
closed = 1;
nodes = (
(562,1486,o),
(598,1486,o),
(620,1508,cs),
(930,1816,l),
(1238,1508,ls),
(1256,1486,o),
(1292,1486,o),
(1314,1508,cs),
(1336,1528,o),
(1336,1564,o),
(1314,1586,cs),
(968,1934,ls),
(956,1944,o),
(942,1950,o),
(930,1950,cs),
(912,1950,o),
(898,1944,o),
(888,1934,cs),
(540,1586,ls),
(518,1564,o),
(518,1528,o),
(540,1508,cs)
);
},
{
closed = 1;
nodes = (
(960,102,o),
(984,126,o),
(984,158,cs),
(984,1894,ls),
(984,1926,o),
(960,1950,o),
(930,1950,cs),
(896,1950,o),
(874,1926,o),
(874,1894,cs),
(874,158,ls),
(874,126,o),
(896,102,o),
(930,102,cs)
);
},
{
closed = 1;
nodes = (
(1984,102,o),
(1998,108,o),
(2008,118,cs),
(2356,466,ls),
(2378,488,o),
(2378,524,o),
(2356,542,cs),
(2334,564,o),
(2300,564,o),
(2278,542,cs),
(1970,234,l),
(1662,542,ls),
(1640,564,o),
(1604,564,o),
(1584,542,cs),
(1562,524,o),
(1562,488,o),
(1584,466,cs),
(1932,118,l),
(1940,108,o),
(1956,102,o),
(1970,102,cs)
);
},
{
closed = 1;
nodes = (
(2000,102,o),
(2026,126,o),
(2026,158,cs),
(2026,1894,ls),
(2026,1926,o),
(2000,1950,o),
(1970,1950,cs),
(1940,1950,o),
(1914,1926,o),
(1914,1894,cs),
(1914,158,ls),
(1914,126,o),
(1940,102,o),
(1970,102,cs)
);
}
);
width = 2896;
},
{
layerId = "5C20EF92-B63D-42A8-8878-93C2863E0093";
shapes = (
{
closed = 1;
nodes = (
(542,1412,o),
(618,1412,o),
(668,1458,cs),
(930,1720,l),
(1190,1458,ls),
(1236,1412,o),
(1312,1412,o),
(1362,1458,cs),
(1412,1508,o),
(1412,1584,o),
(1362,1634,cs),
(1016,1980,ls),
(990,2004,o),
(960,2018,o),
(930,2018,cs),
(896,2018,o),
(864,2004,o),
(840,1980,cs),
(494,1634,ls),
(446,1584,o),
(446,1508,o),
(494,1458,cs)
);
},
{
closed = 1;
nodes = (
(998,34,o),
(1052,90,o),
(1052,158,cs),
(1052,1894,ls),
(1052,1962,o),
(998,2018,o),
(930,2018,cs),
(858,2018,o),
(806,1962,o),
(806,1894,cs),
(806,158,ls),
(806,90,o),
(858,34,o),
(930,34,cs)
);
},
{
closed = 1;
nodes = (
(2000,34,o),
(2034,46,o),
(2056,70,cs),
(2402,418,ls),
(2452,468,o),
(2452,544,o),
(2402,592,cs),
(2356,640,o),
(2278,640,o),
(2230,592,cs),
(1970,332,l),
(1708,592,ls),
(1660,640,o),
(1584,640,o),
(1534,592,cs),
(1488,544,o),
(1488,468,o),
(1534,418,cs),
(1884,70,l),
(1906,46,o),
(1936,34,o),
(1970,34,cs)
);
},
{
closed = 1;
nodes = (
(2038,34,o),
(2094,90,o),
(2094,158,cs),
(2094,1894,ls),
(2094,1962,o),
(2038,2018,o),
(1970,2018,cs),
(1902,2018,o),
(1846,1962,o),
(1846,1894,cs),
(1846,158,ls),
(1846,90,o),
(1902,34,o),
(1970,34,cs)
);
}
);
width = 2896;
}
);
metricWidth = symbolBase;
unicode = 1024058;
}
{
color = 11;
glyphname = iconTooltipFill;
layers = (
{
layerId = "CD0E3B44-F66A-4791-B84C-A1128DC61275";
shapes = (
{
closed = 1;
nodes = (
(2115,-181,o),
(2655,359,o),
(2655,1026,cs),
(2655,1692,o),
(2115,2232,o),
(1448,2232,cs),
(781,2232,o),
(241,1692,o),
(241,1026,cs),
(241,359,o),
(781,-181,o),
(1448,-181,cs)
);
},
{
closed = 1;
nodes = (
(1146,422,l),
(1297,422,l),
(1297,1177,l),
(1146,1177,l),
(1146,1327,l),
(1599,1327,l),
(1599,422,l),
(1750,422,l),
(1750,272,l),
(1146,272,l)
);
},
{
closed = 1;
nodes = (
(1364,1478,o),
(1297,1545,o),
(1297,1629,cs),
(1297,1713,o),
(1364,1780,o),
(1448,1780,cs),
(1532,1780,o),
(1599,1713,o),
(1599,1629,cs),
(1599,1545,o),
(1532,1478,o),
(1448,1478,cs)
);
}
);
width = 2896;
},
{
layerId = "B1F27B51-9973-4381-9301-4FE46FE1CA59";
shapes = (
{
closed = 1;
nodes = (
(2116,-180,o),
(2656,360,o),
(2656,1026,cs),
(2656,1692,o),
(2116,2232,o),
(1448,2232,cs),
(782,2232,o),
(242,1692,o),
(242,1026,cs),
(242,360,o),
(782,-180,o),
(1448,-180,cs)
);
},
{
closed = 1;
nodes = (
(1146,422,l),
(1298,422,l),
(1298,1178,l),
(1146,1178,l),
(1146,1328,l),
(1600,1328,l),
(1600,422,l),
(1750,422,l),
(1750,272,l),
(1146,272,l)
);
},
{
closed = 1;
nodes = (
(1364,1478,o),
(1298,1546,o),
(1298,1630,cs),
(1298,1714,o),
(1364,1780,o),
(1448,1780,cs),
(1532,1780,o),
(1600,1714,o),
(1600,1630,cs),
(1600,1546,o),
(1532,1478,o),
(1448,1478,cs)
);
}
);
width = 2896;
},
{
layerId = "5C20EF92-B63D-42A8-8878-93C2863E0093";
shapes = (
{
closed = 1;
nodes = (
(2116,-180,o),
(2656,360,o),
(2656,1026,cs),
(2656,1692,o),
(2116,2232,o),
(1448,2232,cs),
(782,2232,o),
(242,1692,o),
(242,1026,cs),
(242,360,o),
(782,-180,o),
(1448,-180,cs)
);
},
{
closed = 1;
nodes = (
(1146,422,l),
(1298,422,l),
(1298,1178,l),
(1146,1178,l),
(1146,1328,l),
(1600,1328,l),
(1600,422,l),
(1750,422,l),
(1750,272,l),
(1146,272,l)
);
},
{
closed = 1;
nodes = (
(1364,1478,o),
(1298,1546,o),
(1298,1630,cs),
(1298,1714,o),
(1364,1780,o),
(1448,1780,cs),
(1532,1780,o),
(1600,1714,o),
(1600,1630,cs),
(1600,1546,o),
(1532,1478,o),
(1448,1478,cs)
);
}
);
width = 2896;
}
);
metricWidth = symbolBase;
unicode = 1024062;
}
{
color = 11;
glyphname = iconCircle;
layers = (
{
background = {
shapes = (
{
closed = 1;
nodes = (
(2896,-422,l),
(2896,2474,l),
(0,2474,l),
(0,-422,l)
);
}
);
};
layerId = "CD0E3B44-F66A-4791-B84C-A1128DC61275";
shapes = (
{
closed = 1;
nodes = (
(2114,-182,o),
(2654,356,o),
(2654,1024,cs),
(2654,1690,o),
(2114,2230,o),
(1448,2230,cs),
(782,2230,o),
(242,1690,o),
(242,1024,cs),
(244,356,o),
(782,-182,o),
(1448,-182,cs)
);
},
{
closed = 1;
nodes = (
(914,58,o),
(482,490,o),
(482,1024,cs),
(482,1558,o),
(914,1990,o),
(1448,1990,cs),
(1982,1990,o),
(2414,1558,o),
(2414,1024,cs),
(2414,490,o),
(1982,58,o),
(1448,58,cs)
);
}
);
width = 2896;
},
{
associatedMasterId = "CD0E3B44-F66A-4791-B84C-A1128DC61275";
layerId = "BAB5D0DC-9803-4268-9A90-B66353B4E874";
name = "Aug 9, 23 22:55";
shapes = (
{
closed = 1;
nodes = (
(2181,-302,o),
(2775,293,o),
(2775,1026,cs),
(2775,1759,o),
(2181,2353,o),
(1448,2353,cs),
(715,2353,o),
(121,1759,o),
(121,1026,cs),
(121,293,o),
(715,-302,o),
(1448,-302,cs)
);
},
{
closed = 1;
nodes = (
(848,-60,o),
(362,428,o),
(362,1026,cs),
(362,1623,o),
(848,2112,o),
(1448,2112,cs),
(2048,2112,o),
(2534,1623,o),
(2534,1026,cs),
(2534,428,o),
(2048,-60,o),
(1448,-60,cs)
);
}
);
width = 2896;
},
{
layerId = "B1F27B51-9973-4381-9301-4FE46FE1CA59";
shapes = (
{
closed = 1;
nodes = (
(2114,-182,o),
(2654,356,o),
(2654,1024,cs),
(2654,1690,o),
(2114,2230,o),
(1448,2230,cs),
(782,2230,o),
(242,1690,o),
(242,1024,cs),
(244,356,o),
(782,-182,o),
(1448,-182,cs)
);
},
{
closed = 1;
nodes = (
(840,-80,o),
(344,414,o),
(344,1024,cs),
(344,1632,o),
(840,2128,o),
(1448,2128,cs),
(2058,2128,o),
(2552,1632,o),
(2552,1024,cs),
(2552,414,o),
(2058,-80,o),
(1448,-80,cs)
);
}
);
width = 2896;
},
{
layerId = "5C20EF92-B63D-42A8-8878-93C2863E0093";
shapes = (
{
closed = 1;
nodes = (
(2114,-182,o),
(2654,358,o),
(2654,1024,cs),
(2654,1690,o),
(2114,2230,o),
(1448,2230,cs),
(782,2230,o),
(242,1690,o),
(242,1024,cs),
(242,358,o),
(782,-182,o),
(1448,-182,cs)
);
},
{
closed = 1;
nodes = (
(984,186,o),
(610,560,o),
(610,1024,cs),
(612,1488,o),
(984,1862,o),
(1448,1862,cs),
(1912,1862,o),
(2286,1488,o),
(2286,1024,cs),
(2286,560,o),
(1912,186,o),
(1448,186,cs)
);
}
);
width = 2896;
}
);
metricWidth = symbolBase;
unicode = 1024063;
}
{
color = 11;
glyphname = iconCircleFill.medium;
layers = (
{
layerId = "CD0E3B44-F66A-4791-B84C-A1128DC61275";
metricWidth = "=baseSymbol.medium";
shapes = (
{
closed = 1;
nodes = (
(2643,-483,o),
(3318,193,o),
(3318,1026,cs),
(3318,1858,o),
(2643,2534,o),
(1810,2534,cs),
(977,2534,o),
(302,1858,o),
(302,1026,cs),
(302,193,o),
(977,-483,o),
(1810,-483,cs)
);
}
);
userData = {
RMXScaler = {
height = 125;
verticalShift = -85;
width = 125;
};
};
width = 3620;
},
{
layerId = "B1F27B51-9973-4381-9301-4FE46FE1CA59";
metricWidth = "=baseSymbol.medium";
shapes = (
{
closed = 1;
nodes = (
(2643,-483,o),
(3318,193,o),
(3318,1026,cs),
(3318,1858,o),
(2643,2534,o),
(1810,2534,cs),
(977,2534,o),
(302,1858,o),
(302,1026,cs),
(302,193,o),
(977,-483,o),
(1810,-483,cs)
);
}
);
userData = {
RMXScaler = {
height = 125;
verticalShift = -85;
width = 125;
};
};
width = 3620;
},
{
layerId = "5C20EF92-B63D-42A8-8878-93C2863E0093";
metricWidth = "=baseSymbol.medium";
shapes = (
{
closed = 1;
nodes = (
(2643,-483,o),
(3318,193,o),
(3318,1026,cs),
(3318,1858,o),
(2643,2534,o),
(1810,2534,cs),
(977,2534,o),
(302,1858,o),
(302,1026,cs),
(302,193,o),
(977,-483,o),
(1810,-483,cs)
);
}
);
userData = {
RMXScaler = {
height = 125;
verticalShift = -85;
width = 125;
};
};
width = 3620;
}
);
unicode = 1024064;
userData = {
RMXScaler = {
source = iconCircleFill.small;
};
};
}
{
color = 11;
glyphname = logoFacebook;
layers = (
{
background = {
shapes = (
{
closed = 1;
nodes = (
(2115,-181,o),
(2655,359,o),
(2655,1026,cs),
(2655,1692,o),
(2115,2232,o),
(1448,2232,cs),
(781,2232,o),
(241,1692,o),
(241,1026,cs),
(241,359,o),
(781,-181,o),
(1448,-181,cs)
);
}
);
};
layerId = "CD0E3B44-F66A-4791-B84C-A1128DC61275";
shapes = (
{
closed = 1;
nodes = (
(1261,676,l),
(953,676,l),
(953,1026,l),
(1261,1026,l),
(1261,1291,ls),
(1261,1593,o),
(1439,1762,o),
(1716,1762,cs),
(1846,1762,o),
(1985,1738,o),
(1985,1738,c),
(1985,1442,l),
(1834,1442,ls),
(1683,1442,o),
(1638,1348,o),
(1638,1252,cs),
(1638,1026,l),
(1970,1026,l),
(1919,676,l),
(1638,676,l),
(1638,-166,l),
(2214,-75,o),
(2655,422,o),
(2655,1026,cs),
(2655,1692,o),
(2115,2232,o),
(1448,2232,cs),
(781,2232,o),
(241,1692,o),
(241,1026,cs),
(241,422,o),
(682,-75,o),
(1261,-166,c)
);
}
);
width = 2896;
},
{
layerId = "B1F27B51-9973-4381-9301-4FE46FE1CA59";
shapes = (
{
closed = 1;
nodes = (
(1262,676,l),
(954,676,l),
(954,1026,l),
(1262,1026,l),
(1262,1292,ls),
(1262,1594,o),
(1440,1762,o),
(1716,1762,cs),
(1846,1762,o),
(1986,1738,o),
(1986,1738,c),
(1986,1442,l),
(1834,1442,ls),
(1684,1442,o),
(1638,1348,o),
(1638,1252,cs),
(1638,1026,l),
(1970,1026,l),
(1920,676,l),
(1638,676,l),
(1638,-166,l),
(2214,-74,o),
(2656,422,o),
(2656,1026,cs),
(2656,1692,o),
(2116,2232,o),
(1448,2232,cs),
(782,2232,o),
(242,1692,o),
(242,1026,cs),
(242,422,o),
(682,-74,o),
(1262,-166,c)
);
}
);
width = 2896;
},
{
layerId = "5C20EF92-B63D-42A8-8878-93C2863E0093";
shapes = (
{
closed = 1;
nodes = (
(1262,676,l),
(954,676,l),
(954,1026,l),
(1262,1026,l),
(1262,1292,ls),
(1262,1594,o),
(1440,1762,o),
(1716,1762,cs),
(1846,1762,o),
(1986,1738,o),
(1986,1738,c),
(1986,1442,l),
(1834,1442,ls),
(1684,1442,o),
(1638,1348,o),
(1638,1252,cs),
(1638,1026,l),
(1970,1026,l),
(1920,676,l),
(1638,676,l),
(1638,-166,l),
(2214,-74,o),
(2656,422,o),
(2656,1026,cs),
(2656,1692,o),
(2116,2232,o),
(1448,2232,cs),
(782,2232,o),
(242,1692,o),
(242,1026,cs),
(242,422,o),
(682,-74,o),
(1262,-166,c)
);
}
);
width = 2896;
}
);
metricWidth = symbolBase;
unicode = 1024074;
}
{
color = 11;
glyphname = iconExchangeRateFill;
layers = (
{
layerId = "CD0E3B44-F66A-4791-B84C-A1128DC61275";
shapes = (
{
closed = 1;
nodes = (
(2114,-182,o),
(2654,356,o),
(2654,1024,cs),
(2654,1690,o),
(2114,2230,o),
(1448,2230,cs),
(782,2230,o),
(242,1690,o),
(242,1024,cs),
(244,356,o),
(782,-182,o),
(1448,-182,cs)
);
},
{
closed = 1;
nodes = (
(821,579,l),
(772,624,o),
(772,703,o),
(821,748,c),
(1122,1050,ls),
(1167,1098,o),
(1246,1098,o),
(1291,1050,c),
(1339,1005,o),
(1339,926,o),
(1291,881,c),
(1198,784,l),
(1991,784,ls),
(2057,784,o),
(2112,730,o),
(2112,664,cs),
(2112,597,o),
(2057,543,o),
(1991,543,cs),
(1198,543,l),
(1291,446,l),
(1339,401,o),
(1339,323,o),
(1291,278,c),
(1246,229,o),
(1167,229,o),
(1122,278,c)
);
},
{
closed = 1;
nodes = (
(1557,1047,o),
(1557,1125,o),
(1605,1170,c),
(1698,1267,l),
(905,1267,ls),
(839,1267,o),
(784,1321,o),
(784,1388,cs),
(784,1454,o),
(839,1508,o),
(905,1508,cs),
(1698,1508,l),
(1605,1605,l),
(1557,1650,o),
(1557,1729,o),
(1605,1774,c),
(1650,1822,o),
(1729,1822,o),
(1774,1774,cs),
(2075,1472,l),
(2124,1427,o),
(2124,1348,o),
(2075,1303,c),
(1774,1002,l),
(1729,953,o),
(1650,953,o),
(1605,1002,c)
);
}
);
width = 2896;
},
{
layerId = "B1F27B51-9973-4381-9301-4FE46FE1CA59";
shapes = (
{
closed = 1;
nodes = (
(2114,-182,o),
(2654,356,o),
(2654,1024,cs),
(2654,1690,o),
(2114,2230,o),
(1448,2230,cs),
(782,2230,o),
(242,1690,o),
(242,1024,cs),
(244,356,o),
(782,-182,o),
(1448,-182,cs)
);
},
{
closed = 1;
nodes = (
(835,663,ls),
(814,684,o),
(814,714,o),
(835,735,cs),
(1136,1037,ls),
(1157,1057,o),
(1188,1057,o),
(1209,1037,cs),
(1230,1016,o),
(1230,985,o),
(1209,964,cs),
(995,750,l),
(2025,750,ls),
(2053,750,o),
(2077,727,o),
(2077,699,cs),
(2077,671,o),
(2053,648,o),
(2025,648,cs),
(995,648,l),
(1209,433,ls),
(1230,412,o),
(1230,382,o),
(1209,361,cs),
(1188,340,o),
(1157,340,o),
(1136,361,cs)
);
},
{
closed = 1;
nodes = (
(1666,1036,o),
(1666,1066,o),
(1687,1087,cs),
(1901,1301,l),
(871,1301,ls),
(843,1301,o),
(820,1324,o),
(820,1353,cs),
(820,1381,o),
(843,1405,o),
(871,1405,cs),
(1901,1405,l),
(1687,1618,ls),
(1666,1639,o),
(1666,1669,o),
(1687,1690,cs),
(1708,1712,o),
(1739,1712,o),
(1760,1690,cs),
(2061,1389,ls),
(2082,1368,o),
(2082,1337,o),
(2061,1316,cs),
(1760,1015,ls),
(1739,994,o),
(1708,994,o),
(1687,1015,cs)
);
}
);
width = 2896;
},
{
layerId = "5C20EF92-B63D-42A8-8878-93C2863E0093";
shapes = (
{
closed = 1;
nodes = (
(2114,-182,o),
(2654,358,o),
(2654,1024,cs),
(2654,1690,o),
(2114,2230,o),
(1448,2230,cs),
(782,2230,o),
(242,1690,o),
(242,1024,cs),
(242,358,o),
(782,-182,o),
(1448,-182,cs)
);
},
{
closed = 1;
nodes = (
(798,524,ls),
(737,582,o),
(737,681,o),
(798,739,cs),
(1100,1041,ls),
(1158,1102,o),
(1256,1102,o),
(1314,1041,cs),
(1376,982,o),
(1376,884,o),
(1314,826,c),
(1277,785,l),
(1990,785,ls),
(2076,785,o),
(2144,717,o),
(2144,632,cs),
(2144,545,o),
(2076,478,o),
(1990,478,cs),
(1277,478,l),
(1314,437,l),
(1376,379,o),
(1376,281,o),
(1314,222,cs),
(1256,161,o),
(1158,161,o),
(1100,222,cs)
);
},
{
closed = 1;
nodes = (
(1520,1069,o),
(1520,1167,o),
(1582,1226,c),
(1619,1266,l),
(906,1266,ls),
(820,1266,o),
(752,1334,o),
(752,1420,cs),
(752,1506,o),
(820,1574,o),
(906,1574,cs),
(1619,1574,l),
(1582,1614,l),
(1520,1672,o),
(1520,1771,o),
(1582,1829,c),
(1640,1890,o),
(1738,1890,o),
(1796,1829,cs),
(2098,1527,ls),
(2159,1469,o),
(2159,1371,o),
(2098,1312,cs),
(1796,1011,l),
(1738,949,o),
(1640,949,o),
(1582,1011,c)
);
}
);
width = 2896;
}
);
metricWidth = symbolBase;
unicode = 1024077;
}
{
color = 11;
glyphname = iconHeartFill.medium;
layers = (
{
layerId = "CD0E3B44-F66A-4791-B84C-A1128DC61275";
metricWidth = "=baseSymbol.medium";
shapes = (
{
closed = 1;
nodes = (
(1849,-244,o),
(1882,-229,o),
(1907,-205,cs),
(2597,504,ls),
(2938,854,o),
(3164,1128,o),
(3164,1502,cs),
(3164,1964,o),
(2836,2281,o),
(2413,2281,cs),
(2151,2281,o),
(1937,2157,o),
(1810,1973,c),
(1680,2163,o),
(1463,2281,o),
(1207,2281,cs),
(787,2281,o),
(459,1964,o),
(459,1502,cs),
(459,1131,o),
(682,857,o),
(1026,504,cs),
(1716,-205,ls),
(1741,-229,o),
(1774,-244,o),
(1810,-244,cs)
);
}
);
userData = {
RMXScaler = {
height = 125;
verticalShift = -85;
width = 125;
};
};
width = 3620;
},
{
layerId = "B1F27B51-9973-4381-9301-4FE46FE1CA59";
metricWidth = "=baseSymbol.medium";
shapes = (
{
closed = 1;
nodes = (
(1821,-198,o),
(1840,-193,o),
(1850,-180,c),
(2545,529,ls),
(2902,896,o),
(3091,1142,o),
(3091,1478,cs),
(3091,1905,o),
(2790,2186,o),
(2413,2186,cs),
(2140,2186,o),
(1916,2044,o),
(1810,1816,c),
(1701,2050,o),
(1470,2186,o),
(1207,2186,cs),
(827,2186,o),
(526,1905,o),
(526,1478,cs),
(526,1142,o),
(714,896,o),
(1072,529,cs),
(1766,-180,l),
(1776,-193,o),
(1795,-198,o),
(1810,-198,cs)
);
}
);
userData = {
RMXScaler = {
height = 125;
verticalShift = -85;
width = 125;
};
};
width = 3620;
},
{
layerId = "5C20EF92-B63D-42A8-8878-93C2863E0093";
metricWidth = "=baseSymbol.medium";
shapes = (
{
closed = 1;
nodes = (
(1865,-309,o),
(1918,-284,o),
(1955,-246,c),
(2649,460,ls),
(2993,808,o),
(3235,1103,o),
(3235,1509,cs),
(3235,2009,o),
(2878,2361,o),
(2413,2361,cs),
(2179,2361,o),
(1963,2270,o),
(1810,2102,c),
(1658,2270,o),
(1441,2361,o),
(1207,2361,cs),
(742,2361,o),
(385,2009,o),
(385,1509,cs),
(385,1103,o),
(627,808,o),
(971,460,cs),
(1665,-246,l),
(1702,-284,o),
(1755,-309,o),
(1810,-309,cs)
);
}
);
userData = {
RMXScaler = {
height = 125;
verticalShift = -85;
width = 125;
};
};
width = 3620;
}
);
unicode = 1024079;
userData = {
RMXScaler = {
source = iconHeartFill.small;
};
};
}
{
color = 8;
glyphname = G.ss20;
layers = (
{
background = {
shapes = (
{
ref = O.ss20;
}
);
};
guides = (
{
angle = 7.9575;
pos = (890,1320);
},
{
orientation = center;
angle = 90;
pos = (-100,528);
},
{
pos = (1226,756);
}
);
layerId = "5C20EF92-B63D-42A8-8878-93C2863E0093";
shapes = (
{
closed = 1;
nodes = (
(1462,-28,o),
(1838,288,o),
(1838,752,cs),
(1838,1144,l),
(1018,1144,l),
(1018,748,l),
(1286,748,l),
(1286,712,ls),
(1286,600,o),
(1192,456,o),
(1002,456,cs),
(812,456,o),
(718,600,o),
(718,890,cs),
(718,1158,ls),
(718,1448,o),
(820,1592,o),
(1026,1592,cs),
(1232,1592,o),
(1286,1448,o),
(1286,1344,c),
(1838,1344,l),
(1838,1782,o),
(1464,2076,o),
(998,2076,cs),
(534,2076,o),
(146,1762,o),
(146,1158,cs),
(146,890,ls),
(146,288,o),
(534,-28,o),
(998,-28,cs)
);
}
);
userData = {
RMXScaler = {
width = 90;
};
};
width = 1984;
},
{
guides = (
{
pos = (1730,1992);
}
);
layerId = "B1F27B51-9973-4381-9301-4FE46FE1CA59";
shapes = (
{
closed = 1;
nodes = (
(1200,-28,o),
(1456,226,o),
(1456,608,cs),
(1456,928,l),
(834,928,l),
(834,864,l),
(1392,864,l),
(1392,608,ls),
(1392,264,o),
(1162,36,o),
(816,36,cs),
(442,36,o),
(208,316,o),
(208,772,cs),
(208,1276,ls),
(208,1732,o),
(442,2012,o),
(816,2012,cs),
(1190,2012,o),
(1392,1734,o),
(1392,1408,c),
(1456,1408,l),
(1456,1764,o),
(1232,2076,o),
(816,2076,cs),
(404,2076,o),
(144,1764,o),
(144,1276,cs),
(144,772,ls),
(144,284,o),
(404,-28,o),
(816,-28,cs)
);
}
);
userData = {
RMXScaler = {
width = 80;
};
};
width = 1600;
},
{
background = {
shapes = (
{
closed = 1;
nodes = (
(1610,1408,l),
(1552,1802,o),
(1274,2076,o),
(908,2076,cs),
(472,2076,o),
(154,1672,o),
(154,1024,cs),
(154,378,o),
(462,-28,o),
(920,-28,cs),
(1328,-28,o),
(1622,298,o),
(1622,806,cs),
(1622,1026,l),
(958,1026,l),
(958,802,l),
(1444,802,l),
(1380,818,l),
(1380,446,o),
(1196,210,o),
(920,210,cs),
(620,210,o),
(402,498,o),
(402,1024,cs),
(402,1550,o),
(622,1838,o),
(910,1838,cs),
(1136,1838,o),
(1290,1672,o),
(1354,1408,c)
);
}
);
};
layerId = "CD0E3B44-F66A-4791-B84C-A1128DC61275";
shapes = (
{
closed = 1;
nodes = (
(1378,-28,o),
(1622,220,o),
(1622,666,cs),
(1622,1026,l),
(938,1026,l),
(938,802,l),
(1374,802,l),
(1374,666,ls),
(1374,362,o),
(1232,210,o),
(922,210,cs),
(610,210,o),
(406,442,o),
(406,844,cs),
(406,1202,ls),
(406,1604,o),
(610,1838,o),
(922,1838,cs),
(1234,1838,o),
(1374,1604,o),
(1374,1404,c),
(1622,1404,l),
(1622,1732,o),
(1380,2076,o),
(922,2076,cs),
(466,2076,o),
(158,1732,o),
(158,1202,cs),
(158,844,ls),
(158,316,o),
(466,-28,o),
(922,-28,cs)
);
}
);
userData = {
RMXScaler = {
width = 82.5;
};
};
width = 1780;
}
);
userData = {
RMXScaler = {
source = G;
};
com.typemytype.robofont.guideline.magnetic.DBpTQJmUAf = 5;
com.typemytype.robofont.guideline.magnetic.Mdeh49HlEG = 5;
com.typemytype.robofont.guideline.magnetic.iFgX6ho5qJ = 5;
"interface.width-adjustments" = (
-16
);
};
}
{
color = 8;
glyphname = H.ss20;
layers = (
{
background = {
shapes = (
{
closed = 1;
nodes = (
(1791,0,l),
(1791,2048,l),
(1238,2048,l),
(1238,1259,l),
(746,1259,l),
(746,2048,l),
(193,2048,l),
(193,0,l),
(746,0,l),
(746,807,l),
(1238,807,l),
(1238,0,l)
);
}
);
};
guides = (
{
pos = (-124,1652);
},
{
orientation = center;
angle = 90;
pos = (-134,1344);
}
);
layerId = "5C20EF92-B63D-42A8-8878-93C2863E0093";
shapes = (
{
closed = 1;
nodes = (
(712,0,l),
(712,800,l),
(1272,800,l),
(1272,0,l),
(1824,0,l),
(1824,2048,l),
(1272,2048,l),
(1272,1248,l),
(712,1248,l),
(712,2048,l),
(160,2048,l),
(160,0,l)
);
}
);
userData = {
RMXScaler = {
width = 92.5;
};
};
width = 1984;
},
{
background = {
shapes = (
{
closed = 1;
nodes = (
(1390,0,l),
(1390,2048,l),
(1322,2048,l),
(1322,1099,l),
(278,1099,l),
(278,2048,l),
(211,2048,l),
(211,0,l),
(278,0,l),
(278,1010,l),
(1322,1010,l),
(1322,0,l)
);
}
);
};
layerId = "B1F27B51-9973-4381-9301-4FE46FE1CA59";
shapes = (
{
closed = 1;
nodes = (
(288,0,l),
(288,992,l),
(1312,992,l),
(1312,0,l),
(1376,0,l),
(1376,2048,l),
(1312,2048,l),
(1312,1056,l),
(288,1056,l),
(288,2048,l),
(224,2048,l),
(224,0,l)
);
}
);
userData = {
RMXScaler = {
width = 80;
};
};
width = 1600;
},
{
background = {
shapes = (
{
closed = 1;
nodes = (
(1571,0,l),
(1571,2048,l),
(1323,2048,l),
(1323,1161,l),
(457,1161,l),
(457,2048,l),
(209,2048,l),
(209,0,l),
(457,0,l),
(457,931,l),
(1323,931,l),
(1323,0,l)
);
}
);
};
layerId = "CD0E3B44-F66A-4791-B84C-A1128DC61275";
shapes = (
{
closed = 1;
nodes = (
(442,0,l),
(442,914,l),
(1338,914,l),
(1338,0,l),
(1582,0,l),
(1582,2048,l),
(1338,2048,l),
(1338,1138,l),
(442,1138,l),
(442,2048,l),
(198,2048,l),
(198,0,l)
);
}
);
userData = {
RMXScaler = {
width = 85;
};
};
width = 1780;
}
);
userData = {
RMXScaler = {
source = H;
};
"interface.width-adjustments" = (
-16
);
};
}
{
color = 8;
glyphname = Q.ss20;
layers = (
{
guides = (
{
angle = 90;
pos = (848,1432);
}
);
layerId = "5C20EF92-B63D-42A8-8878-93C2863E0093";
shapes = (
{
closed = 1;
nodes = (
(1451,-28,o),
(1842,287,o),
(1842,890,cs),
(1842,1158,ls),
(1842,1761,o),
(1451,2076,o),
(992,2076,cs),
(533,2076,o),
(142,1761,o),
(142,1158,cs),
(142,890,ls),
(142,287,o),
(533,-28,o),
(992,-28,cs)
);
},
{
closed = 1;
nodes = (
(1798,-152,l),
(1290,656,l),
(808,656,l),
(1316,-152,l)
);
},
{
closed = 1;
nodes = (
(829,456,o),
(714,590,o),
(714,890,cs),
(714,1158,ls),
(714,1458,o),
(829,1592,o),
(992,1592,cs),
(1155,1592,o),
(1270,1458,o),
(1270,1158,cs),
(1270,890,ls),
(1270,590,o),
(1155,456,o),
(992,456,cs)
);
}
);
userData = {
RMXScaler = {
width = 90;
};
};
width = 1984;
},
{
layerId = "B1F27B51-9973-4381-9301-4FE46FE1CA59";
shapes = (
{
closed = 1;
nodes = (
(1213,-28,o),
(1472,284,o),
(1472,772,cs),
(1472,1276,ls),
(1472,1764,o),
(1213,2076,o),
(800,2076,cs),
(387,2076,o),
(128,1764,o),
(128,1276,cs),
(128,772,ls),
(128,284,o),
(387,-28,o),
(800,-28,cs)
);
},
{
closed = 1;
nodes = (
(1434,-192,l),
(930,640,l),
(856,640,l),
(1360,-192,l)
);
},
{
closed = 1;
nodes = (
(425,36,o),
(192,316,o),
(192,772,cs),
(192,1276,ls),
(192,1732,o),
(425,2012,o),
(800,2012,cs),
(1175,2012,o),
(1408,1732,o),
(1408,1276,cs),
(1408,772,ls),
(1408,316,o),
(1176,36,o),
(800,36,cs)
);
}
);
userData = {
RMXScaler = {
width = 80;
};
};
width = 1600;
},
{
layerId = "CD0E3B44-F66A-4791-B84C-A1128DC61275";
shapes = (
{
closed = 1;
nodes = (
(1347,-29,o),
(1642,315,o),
(1642,844,cs),
(1642,1202,ls),
(1642,1731,o),
(1347,2075,o),
(890,2075,cs),
(434,2076,o),
(138,1730,o),
(138,1202,cs),
(138,844,ls),
(138,315,o),
(433,-29,o),
(890,-29,cs)
);
},
{
closed = 1;
nodes = (
(1594,-192,l),
(1056,642,l),
(808,642,l),
(1336,-192,l)
);
},
{
closed = 1;
nodes = (
(578,209,o),
(386,442,o),
(386,844,cs),
(386,1202,ls),
(386,1604,o),
(578,1837,o),
(890,1837,cs),
(1202,1837,o),
(1394,1604,o),
(1394,1202,cs),
(1394,844,ls),
(1394,442,o),
(1202,209,o),
(890,209,cs)
);
}
);
userData = {
RMXScaler = {
width = 82.5;
};
};
width = 1780;
}
);
userData = {
RMXScaler = {
source = Q;
};
"interface.width-adjustments" = (
-16
);
};
}
{
color = 8;
glyphname = R.ss20;
layers = (
{
guides = (
{
pos = (-124,1552);
},
{
angle = 90;
pos = (1308,0);
},
{
orientation = center;
angle = 90;
pos = (-278,220);
}
);
layerId = "5C20EF92-B63D-42A8-8878-93C2863E0093";
shapes = (
{
closed = 1;
nodes = (
(748,0,l),
(748,1604,l),
(938,1604,ls),
(1130,1604,o),
(1244,1528,o),
(1244,1352,cs),
(1244,1178,o),
(1130,1108,o),
(938,1108,cs),
(528,1108,l),
(528,676,l),
(1048,676,ls),
(1514,676,o),
(1822,912,o),
(1822,1352,cs),
(1822,1788,o),
(1522,2048,o),
(1068,2048,cs),
(192,2048,l),
(192,0,l)
);
},
{
closed = 1;
nodes = (
(790,940,l),
(1286,0,l),
(1888,0,l),
(1384,940,l)
);
}
);
userData = {
RMXScaler = {
width = 105;
};
};
width = 1984;
},
{
layerId = "B1F27B51-9973-4381-9301-4FE46FE1CA59";
shapes = (
{
closed = 1;
nodes = (
(306,0,l),
(306,1984,l),
(812,1984,ls),
(1104,1984,o),
(1308,1778,o),
(1308,1464,cs),
(1308,1152,o),
(1104,948,o),
(812,948,cs),
(274,948,l),
(274,884,l),
(812,884,ls),
(1140,884,o),
(1372,1116,o),
(1372,1464,cs),
(1372,1816,o),
(1140,2048,o),
(812,2048,cs),
(242,2048,l),
(242,0,l)
);
},
{
closed = 1;
nodes = (
(914,932,l),
(1394,0,l),
(1466,0,l),
(986,932,l)
);
}
);
userData = {
RMXScaler = {
width = 95;
};
};
width = 1600;
},
{
layerId = "CD0E3B44-F66A-4791-B84C-A1128DC61275";
shapes = (
{
closed = 1;
nodes = (
(498,0,l),
(498,1822,l),
(900,1822,ls),
(1206,1822,o),
(1328,1662,o),
(1328,1418,cs),
(1328,1174,o),
(1206,1026,o),
(902,1026,cs),
(386,1026,l),
(386,796,l),
(918,796,ls),
(1370,796,o),
(1580,1054,o),
(1580,1418,cs),
(1580,1782,o),
(1370,2048,o),
(914,2048,cs),
(246,2048,l),
(246,0,l)
);
},
{
closed = 1;
nodes = (
(892,920,l),
(1362,0,l),
(1656,0,l),
(1176,920,l)
);
}
);
userData = {
RMXScaler = {
width = 95;
};
};
width = 1780;
}
);
userData = {
RMXScaler = {
source = R;
};
com.typemytype.robofont.guideline.magnetic.vulxOItvKZ = 5;
"interface.width-adjustments" = (
-16
);
};
}
{
color = 8;
glyphname = T.ss20;
layers = (
{
guides = (
{
orientation = center;
angle = 90;
pos = (-158,956);
}
);
layerId = "5C20EF92-B63D-42A8-8878-93C2863E0093";
shapes = (
{
closed = 1;
nodes = (
(718,1600,l),
(718,0,l),
(1266,0,l),
(1266,1600,l),
(1836,1600,l),
(1836,2048,l),
(148,2048,l),
(148,1600,l)
);
}
);
userData = {
RMXScaler = {
width = 102.5;
};
};
width = 1984;
},
{
layerId = "B1F27B51-9973-4381-9301-4FE46FE1CA59";
shapes = (
{
closed = 1;
nodes = (
(768,1984,l),
(768,0,l),
(832,0,l),
(832,1984,l),
(1466,1984,l),
(1466,2048,l),
(134,2048,l),
(134,1984,l)
);
}
);
userData = {
RMXScaler = {
width = 95;
};
};
width = 1600;
},
{
layerId = "CD0E3B44-F66A-4791-B84C-A1128DC61275";
shapes = (
{
closed = 1;
nodes = (
(762,1822,l),
(762,0,l),
(1018,0,l),
(1018,1822,l),
(1628,1822,l),
(1628,2048,l),
(154,2048,l),
(154,1822,l)
);
}
);
userData = {
RMXScaler = {
width = 95;
};
};
width = 1780;
}
);
userData = {
RMXScaler = {
source = T;
};
"interface.width-adjustments" = (
-16
);
};
}
{
color = 8;
glyphname = Z.ss20;
layers = (
{
guides = (
{
pos = (-82,1552);
},
{
angle = 55.0453;
pos = (1598,1788);
},
{
angle = 55.0343;
pos = (42,276);
},
{
angle = 90;
pos = (38,1664);
},
{
angle = 90;
pos = (1590,384);
},
{
orientation = center;
angle = 90;
pos = (74,800);
}
);
layerId = "5C20EF92-B63D-42A8-8878-93C2863E0093";
shapes = (
{
closed = 1;
nodes = (
(1746,0,l),
(1746,448,l),
(896,448,l),
(1752,1740,l),
(1752,2048,l),
(236,2048,l),
(236,1600,l),
(1080,1600,l),
(232,308,l),
(232,0,l)
);
}
);
userData = {
RMXScaler = {
width = 95;
};
};
width = 1984;
},
{
guides = (
{
angle = 90;
pos = (98,684);
},
{
angle = 90;
pos = (1378,684);
}
);
layerId = "B1F27B51-9973-4381-9301-4FE46FE1CA59";
shapes = (
{
closed = 1;
nodes = (
(1412,0,l),
(1412,64,l),
(262,64,l),
(1404,1984,l),
(1404,2048,l),
(196,2048,l),
(196,1984,l),
(1330,1984,l),
(188,64,l),
(188,0,l)
);
}
);
userData = {
RMXScaler = {
width = 95;
};
};
width = 1600;
},
{
layerId = "CD0E3B44-F66A-4791-B84C-A1128DC61275";
shapes = (
{
closed = 1;
nodes = (
(1574,0,l),
(1574,226,l),
(522,226,l),
(1562,1864,l),
(1562,2048,l),
(206,2048,l),
(206,1822,l),
(1256,1822,l),
(216,184,l),
(216,0,l)
);
}
);
userData = {
RMXScaler = {
width = 95;
};
};
width = 1780;
}
);
userData = {
RMXScaler = {
source = Z;
};
com.typemytype.robofont.guideline.magnetic.7L9fK9Z9Br = 5;
com.typemytype.robofont.guideline.magnetic.DPCAFAyemJ = 5;
com.typemytype.robofont.guideline.magnetic.VxRM18zW9m = 5;
"interface.width-adjustments" = (
-16
);
};
}
{
color = 8;
glyphname = b.ss20;
layers = (
{
guides = (
{
orientation = center;
angle = 90;
pos = (-1892,128);
}
);
layerId = "5C20EF92-B63D-42A8-8878-93C2863E0093";
shapes = (
{
closed = 1;
nodes = (
(1558,-30,o),
(1776,246,o),
(1776,686,cs),
(1776,842,ls),
(1776,1282,o),
(1558,1558,o),
(1210,1558,cs),
(864,1558,o),
(692,1282,o),
(692,842,cs),
(692,686,ls),
(692,246,o),
(864,-30,o),
(1210,-30,cs)
);
},
{
closed = 1;
nodes = (
(752,0,l),
(752,260,l),
(768,260,l),
(734,764,l),
(768,1268,l),
(758,1268,l),
(758,2048,l),
(206,2048,l),
(206,0,l)
);
},
{
closed = 1;
nodes = (
(860,374,o),
(780,460,o),
(780,686,cs),
(780,842,ls),
(780,1068,o),
(860,1154,o),
(994,1154,cs),
(1132,1154,o),
(1212,1068,o),
(1212,842,cs),
(1212,686,ls),
(1212,462,o),
(1132,374,o),
(994,374,cs)
);
}
);
userData = {
RMXScaler = {
width = 110;
};
};
width = 1984;
},
{
background = {
shapes = (
{
attr = {
strokeHeight = 64;
strokeWidth = 64;
};
closed = 1;
nodes = (
(1188,0,o),
(1392,240,o),
(1392,620,cs),
(1392,908,ls),
(1392,1288,o),
(1188,1528,o),
(864,1528,cs),
(540,1528,o),
(336,1288,o),
(336,908,cs),
(336,620,ls),
(336,240,o),
(540,0,o),
(864,0,cs)
);
}
);
};
guides = (
{
angle = 90;
pos = (866,2164);
}
);
layerId = "B1F27B51-9973-4381-9301-4FE46FE1CA59";
shapes = (
{
closed = 1;
nodes = (
(1144,-32,o),
(1360,224,o),
(1360,620,cs),
(1360,908,ls),
(1360,1304,o),
(1144,1560,o),
(800,1560,cs),
(458,1560,o),
(256,1304,o),
(256,908,cs),
(256,620,ls),
(256,224,o),
(456,-32,o),
(800,-32,cs)
);
},
{
closed = 1;
nodes = (
(304,0,l),
(304,296,l),
(328,296,l),
(274,764,l),
(328,1232,l),
(304,1232,l),
(304,2048,l),
(240,2048,l),
(240,0,l)
);
},
{
closed = 1;
nodes = (
(496,32,o),
(304,256,o),
(304,620,cs),
(304,908,ls),
(304,1272,o),
(496,1496,o),
(800,1496,cs),
(1106,1496,o),
(1296,1272,o),
(1296,908,cs),
(1296,620,ls),
(1296,256,o),
(1106,32,o),
(800,32,cs)
);
}
);
userData = {
RMXScaler = {
width = 95;
};
};
width = 1600;
},
{
background = {
shapes = (
{
closed = 1;
nodes = (
(1332,-32,o),
(1576,238,o),
(1576,678,cs),
(1576,846,ls),
(1576,1286,o),
(1332,1556,o),
(978,1556,cs),
(628,1556,o),
(428,1288,o),
(428,846,cs),
(428,678,ls),
(428,238,o),
(628,-32,o),
(978,-32,cs)
);
},
{
closed = 1;
nodes = (
(654,184,o),
(500,366,o),
(500,678,cs),
(500,846,ls),
(500,1158,o),
(654,1340,o),
(914,1340,cs),
(1178,1340,o),
(1332,1158,o),
(1332,846,cs),
(1332,678,ls),
(1332,368,o),
(1178,184,o),
(914,184,cs)
);
}
);
};
layerId = "CD0E3B44-F66A-4791-B84C-A1128DC61275";
shapes = (
{
closed = 1;
nodes = (
(1302,-32,o),
(1546,238,o),
(1546,678,cs),
(1546,846,ls),
(1546,1286,o),
(1302,1556,o),
(948,1556,cs),
(598,1556,o),
(398,1288,o),
(398,846,cs),
(398,678,ls),
(398,238,o),
(598,-32,o),
(948,-32,cs)
);
},
{
closed = 1;
nodes = (
(468,0,l),
(468,236,l),
(510,236,l),
(444,754,l),
(510,1292,l),
(476,1292,l),
(476,2048,l),
(232,2048,l),
(232,0,l)
);
},
{
closed = 1;
nodes = (
(624,184,o),
(470,366,o),
(470,678,cs),
(470,846,ls),
(470,1158,o),
(624,1340,o),
(884,1340,cs),
(1148,1340,o),
(1302,1158,o),
(1302,846,cs),
(1302,678,ls),
(1302,368,o),
(1148,184,o),
(884,184,cs)
);
}
);
vertWidth = 0;
width = 1780;
}
);
note = "top anchor should match top anchor of i";
userData = {
RMXScaler = {
source = b;
};
"interface.width-adjustments" = (
-16
);
};
}
{
glyphname = hyphenbullet.ss19;
kernLeft = bullet;
kernRight = bullet;
layers = (
{
guides = (
{
orientation = center;
pos = (376,816);
}
);
layerId = "5C20EF92-B63D-42A8-8878-93C2863E0093";
shapes = (
{
closed = 1;
nodes = (
(252,984,l),
(252,568,l),
(1084,568,l),
(1084,984,l)
);
}
);
width = 1336;
},
{
guides = (
{
orientation = center;
pos = (290,1400);
}
);
layerId = "B1F27B51-9973-4381-9301-4FE46FE1CA59";
shapes = (
{
closed = 1;
nodes = (
(314,848,l),
(314,784,l),
(858,784,l),
(858,848,l)
);
}
);
width = 1172;
},
{
layerId = "CD0E3B44-F66A-4791-B84C-A1128DC61275";
shapes = (
{
closed = 1;
nodes = (
(258,928,l),
(258,704,l),
(996,704,l),
(996,928,l)
);
}
);
width = 1254;
}
);
metricWidth = bullet.ss19;
userData = {
interface.gridadjust.original = "{'width': 1196, 'leftMargin': 110, 'rightMargin': 110}";
"interface.width-adjustments" = (
-16
);
};
}
{
color = 8;
glyphname = i.ss20;
layers = (
{
layerId = "B1F27B51-9973-4381-9301-4FE46FE1CA59";
name = Thin;
shapes = (
{
closed = 1;
nodes = (
(914,0,l),
(914,1536,l),
(318,1536,l),
(318,1472,l),
(850,1472,l),
(850,0,l)
);
},
{
closed = 1;
nodes = (
(918,1984,o),
(946,2014,o),
(946,2048,cs),
(946,2084,o),
(918,2112,o),
(882,2112,cs),
(848,2112,o),
(818,2084,o),
(818,2048,cs),
(818,2014,o),
(848,1984,o),
(882,1984,cs)
);
}
);
width = 1600;
},
{
associatedMasterId = "B1F27B51-9973-4381-9301-4FE46FE1CA59";
layerId = "E61BCA47-D63B-40E5-B719-D0B807363B37";
name = Serif;
shapes = (
{
closed = 1;
nodes = (
(1416,0,l),
(1416,64,l),
(888,64,l),
(888,1536,l),
(292,1536,l),
(292,1472,l),
(824,1472,l),
(824,64,l),
(276,64,l),
(276,0,l)
);
},
{
closed = 1;
nodes = (
(892,1984,o),
(920,2014,o),
(920,2048,cs),
(920,2084,o),
(892,2112,o),
(856,2112,cs),
(822,2112,o),
(792,2084,o),
(792,2048,cs),
(792,2014,o),
(822,1984,o),
(856,1984,cs)
);
}
);
width = 1600;
},
{
associatedMasterId = "B1F27B51-9973-4381-9301-4FE46FE1CA59";
layerId = "2AE37A0C-52E8-463C-8B39-507EFF3ABC7F";
name = "Half-serif";
shapes = (
{
closed = 1;
nodes = (
(888,0,l),
(888,1536,l),
(292,1536,l),
(292,1472,l),
(824,1472,l),
(824,0,l)
);
},
{
closed = 1;
nodes = (
(892,1984,o),
(920,2014,o),
(920,2048,cs),
(920,2084,o),
(892,2112,o),
(856,2112,cs),
(822,2112,o),
(792,2084,o),
(792,2048,cs),
(792,2014,o),
(822,1984,o),
(856,1984,cs)
);
}
);
width = 1600;
},
{
associatedMasterId = "B1F27B51-9973-4381-9301-4FE46FE1CA59";
layerId = "E1598D88-A33D-4BF4-916F-474A49D8019E";
name = "Sans-serif";
shapes = (
{
closed = 1;
nodes = (
(832,0,l),
(832,1536,l),
(768,1536,l),
(768,0,l)
);
},
{
closed = 1;
nodes = (
(836,1984,o),
(864,2014,o),
(864,2048,cs),
(864,2084,o),
(836,2112,o),
(800,2112,cs),
(766,2112,o),
(736,2084,o),
(736,2048,cs),
(736,2014,o),
(766,1984,o),
(800,1984,cs)
);
}
);
width = 1600;
},
{
layerId = "CD0E3B44-F66A-4791-B84C-A1128DC61275";
name = Normal;
shapes = (
{
closed = 1;
nodes = (
(1102,0,l),
(1102,1536,l),
(350,1536,l),
(350,1332,l),
(858,1332,l),
(858,0,l)
);
},
{
closed = 1;
nodes = (
(1072,1886,o),
(1144,1958,o),
(1142,2048,cs),
(1144,2138,o),
(1072,2210,o),
(982,2210,cs),
(892,2210,o),
(820,2138,o),
(818,2048,cs),
(820,1958,o),
(892,1886,o),
(982,1886,cs)
);
}
);
vertWidth = 0;
width = 1780;
},
{
associatedMasterId = "CD0E3B44-F66A-4791-B84C-A1128DC61275";
layerId = "B58D4B0A-2577-4B89-95EF-3A5FBEBD8A76";
name = Serif;
shapes = (
{
closed = 1;
nodes = (
(1574,0,l),
(1574,204,l),
(1068,204,l),
(1068,1536,l),
(316,1536,l),
(316,1332,l),
(824,1332,l),
(824,204,l),
(284,204,l),
(284,0,l)
);
},
{
closed = 1;
nodes = (
(1038,1886,o),
(1110,1958,o),
(1108,2048,cs),
(1110,2138,o),
(1038,2210,o),
(948,2210,cs),
(858,2210,o),
(786,2138,o),
(784,2048,cs),
(786,1958,o),
(858,1886,o),
(948,1886,cs)
);
}
);
vertWidth = 0;
width = 1780;
},
{
associatedMasterId = "CD0E3B44-F66A-4791-B84C-A1128DC61275";
layerId = "0C918F41-7297-47CD-B75E-D9ADE8E93CDE";
name = "Half-serif";
shapes = (
{
closed = 1;
nodes = (
(1148,0,l),
(1148,1536,l),
(396,1536,l),
(396,1332,l),
(904,1332,l),
(904,0,l)
);
},
{
closed = 1;
nodes = (
(1118,1886,o),
(1190,1958,o),
(1188,2048,cs),
(1190,2138,o),
(1118,2210,o),
(1028,2210,cs),
(938,2210,o),
(866,2138,o),
(864,2048,cs),
(866,1958,o),
(938,1886,o),
(1028,1886,cs)
);
}
);
vertWidth = 0;
width = 1780;
},
{
associatedMasterId = "CD0E3B44-F66A-4791-B84C-A1128DC61275";
layerId = "4BFADB8C-2B1C-44D7-A876-2A8EB49DB2C7";
name = "Sans-serif";
shapes = (
{
closed = 1;
nodes = (
(1012,0,l),
(1012,1536,l),
(768,1536,l),
(768,0,l)
);
},
{
closed = 1;
nodes = (
(982,1886,o),
(1054,1958,o),
(1052,2048,cs),
(1054,2138,o),
(982,2210,o),
(892,2210,cs),
(802,2210,o),
(730,2138,o),
(728,2048,cs),
(730,1958,o),
(802,1886,o),
(892,1886,cs)
);
}
);
vertWidth = 0;
width = 1780;
},
{
guides = (
{
pos = (1728,1238);
},
{
pos = (1728,764);
}
);
layerId = "5C20EF92-B63D-42A8-8878-93C2863E0093";
name = Black;
shapes = (
{
closed = 1;
nodes = (
(1342,0,l),
(1342,1536,l),
(374,1536,l),
(374,1136,l),
(790,1136,l),
(790,0,l)
);
},
{
closed = 1;
nodes = (
(1216,1788,o),
(1338,1904,o),
(1338,2048,cs),
(1338,2192,o),
(1216,2310,o),
(1066,2308,cs),
(916,2310,o),
(796,2192,o),
(794,2048,cs),
(796,1904,o),
(916,1788,o),
(1066,1788,cs)
);
}
);
width = 1984;
},
{
associatedMasterId = "5C20EF92-B63D-42A8-8878-93C2863E0093";
guides = (
{
pos = (1728,1238);
},
{
pos = (1728,764);
}
);
layerId = "ADFF65BF-E638-4464-A142-53157EC11392";
name = Serif;
shapes = (
{
closed = 1;
nodes = (
(1716,0,l),
(1716,400,l),
(1268,400,l),
(1268,1536,l),
(300,1536,l),
(300,1136,l),
(716,1136,l),
(716,400,l),
(268,400,l),
(268,0,l)
);
},
{
closed = 1;
nodes = (
(1142,1788,o),
(1264,1904,o),
(1264,2048,cs),
(1264,2192,o),
(1142,2310,o),
(992,2308,cs),
(842,2310,o),
(722,2192,o),
(720,2048,cs),
(722,1904,o),
(842,1788,o),
(992,1788,cs)
);
}
);
width = 1984;
},
{
associatedMasterId = "5C20EF92-B63D-42A8-8878-93C2863E0093";
guides = (
{
pos = (1728,1238);
},
{
pos = (1728,764);
}
);
layerId = "0E95DF8D-2D15-4A36-B864-F177E152A436";
name = "Half-serif";
shapes = (
{
closed = 1;
nodes = (
(1268,0,l),
(1268,1536,l),
(300,1536,l),
(300,1136,l),
(716,1136,l),
(716,0,l)
);
},
{
closed = 1;
nodes = (
(1142,1788,o),
(1264,1904,o),
(1264,2048,cs),
(1264,2192,o),
(1142,2310,o),
(992,2308,cs),
(842,2310,o),
(722,2192,o),
(720,2048,cs),
(722,1904,o),
(842,1788,o),
(992,1788,cs)
);
}
);
width = 1984;
},
{
associatedMasterId = "5C20EF92-B63D-42A8-8878-93C2863E0093";
guides = (
{
pos = (1728,1238);
},
{
pos = (1728,764);
}
);
layerId = "C878827B-C5E3-4422-8585-367B3781E79B";
name = "Sans-serif";
shapes = (
{
closed = 1;
nodes = (
(1268,0,l),
(1268,1536,l),
(716,1536,l),
(716,0,l)
);
},
{
closed = 1;
nodes = (
(1142,1788,o),
(1264,1904,o),
(1264,2048,cs),
(1264,2192,o),
(1142,2310,o),
(992,2308,cs),
(842,2310,o),
(722,2192,o),
(720,2048,cs),
(722,1904,o),
(842,1788,o),
(992,1788,cs)
);
}
);
width = 1984;
}
);
userData = {
RMXScaler = {
source = i;
};
com.typemytype.robofont.guideline.magnetic.5MtFEmPLYm = 5;
"interface.width-adjustments" = (
-16
);
};
}
{
color = 11;
glyphname = iconArrowDownRight.small;
layers = (
{
layerId = "CD0E3B44-F66A-4791-B84C-A1128DC61275";
shapes = (
{
closed = 1;
nodes = (
(2145,208,ls),
(2175,208,o),
(2205,223,o),
(2229,244,cs),
(2250,268,o),
(2266,299,o),
(2266,329,cs),
(2266,1294,ls),
(2266,1361,o),
(2211,1415,o),
(2145,1415,cs),
(2078,1415,o),
(2024,1361,o),
(2024,1294,cs),
(2024,621,l),
(839,1807,ls),
(790,1855,o),
(715,1855,o),
(667,1807,cs),
(618,1759,o),
(618,1683,o),
(667,1638,cs),
(1852,449,l),
(1180,449,ls),
(1113,449,o),
(1059,395,o),
(1059,329,cs),
(1059,262,o),
(1113,208,o),
(1180,208,cs)
);
}
);
width = 2896;
},
{
layerId = "B1F27B51-9973-4381-9301-4FE46FE1CA59";
shapes = (
{
closed = 1;
nodes = (
(2145,278,ls),
(2157,278,o),
(2170,283,o),
(2180,294,cs),
(2191,304,o),
(2195,317,o),
(2195,329,cs),
(2195,1294,ls),
(2195,1322,o),
(2173,1344,o),
(2145,1344,cs),
(2117,1344,o),
(2095,1322,o),
(2095,1294,cs),
(2095,454,l),
(786,1758,ls),
(769,1778,o),
(736,1778,o),
(716,1758,cs),
(696,1738,o),
(696,1704,o),
(716,1687,cs),
(2024,379,l),
(1180,379,ls),
(1151,379,o),
(1129,357,o),
(1129,329,cs),
(1129,301,o),
(1151,278,o),
(1180,278,cs)
);
}
);
width = 2896;
},
{
layerId = "5C20EF92-B63D-42A8-8878-93C2863E0093";
shapes = (
{
closed = 1;
nodes = (
(2145,144,ls),
(2194,144,o),
(2240,165,o),
(2275,199,cs),
(2309,233,o),
(2330,280,o),
(2330,329,cs),
(2330,1294,ls),
(2330,1396,o),
(2246,1479,o),
(2145,1479,cs),
(2043,1479,o),
(1960,1396,o),
(1960,1294,cs),
(1960,776,l),
(884,1852,ls),
(809,1927,o),
(693,1927,o),
(621,1852,cs),
(548,1781,o),
(548,1664,o),
(621,1590,cs),
(1697,514,l),
(1180,514,ls),
(1078,514,o),
(995,430,o),
(995,329,cs),
(995,227,o),
(1078,144,o),
(1180,144,cs)
);
}
);
width = 2896;
}
);
metricWidth = baseSymbol;
}
{
color = 11;
glyphname = iconArrowLongDown.large;
layers = (
{
layerId = "CD0E3B44-F66A-4791-B84C-A1128DC61275";
metricWidth = "=baseSymbol.large";
shapes = (
{
closed = 1;
nodes = (
(2205,-591,o),
(2241,-579,o),
(2272,-549,cs),
(3297,474,ls),
(3352,528,o),
(3352,618,o),
(3297,673,cs),
(3243,727,o),
(3155,730,o),
(3098,673,cs),
(2314,-112,l),
(2314,2501,ls),
(2314,2576,o),
(2250,2643,o),
(2175,2643,cs),
(2097,2643,o),
(2033,2576,o),
(2033,2501,cs),
(2033,-112,l),
(1249,673,ls),
(1195,727,o),
(1107,730,o),
(1050,673,cs),
(996,618,o),
(996,528,o),
(1050,474,cs),
(2075,-552,ls),
(2103,-579,o),
(2139,-591,o),
(2175,-591,cs)
);
}
);
userData = {
RMXScaler = {
height = 150;
verticalShift = -170;
width = 150;
};
};
width = 4344;
},
{
layerId = "B1F27B51-9973-4381-9301-4FE46FE1CA59";
metricWidth = "=baseSymbol.large";
shapes = (
{
closed = 1;
nodes = (
(2187,-521,o),
(2206,-516,o),
(2222,-500,cs),
(3244,523,ls),
(3270,549,o),
(3274,590,o),
(3244,623,cs),
(3215,657,o),
(3166,646,o),
(3144,623,cs),
(2243,-277,l),
(2243,2501,ls),
(2243,2541,o),
(2208,2572,o),
(2172,2572,cs),
(2132,2572,o),
(2101,2541,o),
(2100.992,2501,cs),
(2101,-277,l),
(1200,623,ls),
(1166,657,o),
(1122,646,o),
(1099,623,cs),
(1066,587,o),
(1077,546,o),
(1099,523,cs),
(2122,-499,ls),
(2138,-516,o),
(2157,-521,o),
(2172,-521,cs)
);
}
);
userData = {
RMXScaler = {
height = 150;
verticalShift = -170;
width = 150;
};
};
width = 4344;
},
{
layerId = "5C20EF92-B63D-42A8-8878-93C2863E0093";
metricWidth = "=baseSymbol.large";
shapes = (
{
closed = 1;
nodes = (
(2230,-672,o),
(2287,-650,o),
(2326,-610,cs),
(3356,419,ls),
(3438,502,o),
(3438,645,o),
(3356,727,cs),
(3269,813,o),
(3130,820,o),
(3037,727,cs),
(2394,84,l),
(2394,2501,ls),
(2394,2624,o),
(2293,2723,o),
(2172,2723,cs),
(2048,2723,o),
(1950,2621,o),
(1950,2501,cs),
(1950,84,l),
(1303,727,ls),
(1214,816,o),
(1075,813,o),
(988,727,cs),
(906,645,o),
(906,503,o),
(988,419,cs),
(2018,-609,ls),
(2057,-650,o),
(2114,-672,o),
(2172,-672,cs)
);
}
);
userData = {
RMXScaler = {
height = 150;
verticalShift = -170;
width = 150;
};
};
width = 4344;
}
);
userData = {
RMXScaler = {
source = iconArrowLongDown.small;
};
};
}
{
color = 11;
glyphname = iconArrowLongLeft.large;
layers = (
{
layerId = "CD0E3B44-F66A-4791-B84C-A1128DC61275";
metricWidth = "=baseSymbol.large";
shapes = (
{
closed = 1;
nodes = (
(1768,875,l),
(2193,2178,l),
(2615,875,l),
(2953,875,l),
(3569,2745,l),
(3140,2745,l),
(2775,1529,l),
(2356,2745,l),
(2021,2745,l),
(1611,1529,l),
(1246,2745,l),
(815,2745,l),
(1433,875,l)
);
},
{
closed = 1;
nodes = (
(1894,124,l),
(1894,501,l),
(275,501,l),
(275,124,l)
);
},
{
closed = 1;
nodes = (
(1973,-609,l),
(2287,-163,o),
(2802,124,o),
(3388,124,cs),
(4109,124,l),
(4109,501,l),
(3388,501,ls),
(2730,501,o),
(2235,208,o),
(1928,-106,c),
(1928,-609,l)
);
}
);
userData = {
RMXScaler = {
height = 150;
verticalShift = -170;
width = 150;
};
};
width = 4344;
},
{
layerId = "B1F27B51-9973-4381-9301-4FE46FE1CA59";
metricWidth = "=baseSymbol.large";
shapes = (
{
closed = 1;
nodes = (
(1771,878,l),
(2196,2181,l),
(2618,878,l),
(2956,878,l),
(3572,2745,l),
(3143,2745,l),
(2782,1529,l),
(2359,2745,l),
(2024,2745,l),
(1614,1529,l),
(1253,2745,l),
(818,2745,l),
(1436,878,l)
);
},
{
closed = 1;
nodes = (
(1897,127,l),
(1897,501,l),
(278,501,l),
(278,127,l)
);
},
{
closed = 1;
nodes = (
(1976,-609,l),
(2287,-166,o),
(2799,127,o),
(3391,127,cs),
(4112,127,l),
(4112,501,l),
(3391,501,ls),
(2734,501,o),
(2239,208,o),
(1931,-106,c),
(1931,-609,l)
);
}
);
userData = {
RMXScaler = {
height = 150;
verticalShift = -170;
width = 150;
};
};
width = 4344;
},
{
layerId = "5C20EF92-B63D-42A8-8878-93C2863E0093";
metricWidth = "=baseSymbol.large";
shapes = (
{
closed = 1;
nodes = (
(1771,878,l),
(2196,2181,l),
(2618,878,l),
(2956,878,l),
(3572,2745,l),
(3143,2745,l),
(2781,1529,l),
(2359,2745,l),
(2024,2745,l),
(1614,1529,l),
(1252,2745,l),
(818,2745,l),
(1436,878,l)
);
},
{
closed = 1;
nodes = (
(1897,127,l),
(1897,501,l),
(278,501,l),
(278,127,l)
);
},
{
closed = 1;
nodes = (
(1976,-609,l),
(2290,-163,o),
(2802,127,o),
(3391,127,cs),
(4112,127,l),
(4112,501,l),
(3391,501,ls),
(2721,501,o),
(2226,195,o),
(1931,-106,c),
(1931,-609,l)
);
}
);
userData = {
RMXScaler = {
height = 150;
verticalShift = -170;
width = 150;
};
};
width = 4344;
}
);
userData = {
RMXScaler = {
source = logoWepublic.small;
};
};
}
{
color = 11;
glyphname = iconArrowLongRight.small;
layers = (
{
layerId = "CD0E3B44-F66A-4791-B84C-A1128DC61275";
shapes = (
{
closed = 1;
nodes = (
(1710,211,o),
(1789,211,o),
(1834,256,cs),
(2519,941,ls),
(2540,962,o),
(2552,992,o),
(2552,1026,cs),
(2552,1059,o),
(2540,1089,o),
(2519,1110,cs),
(1834,1795,ls),
(1789,1840,o),
(1710,1840,o),
(1665,1795,cs),
(1617,1747,o),
(1617,1671,o),
(1665,1623,cs),
(2142,1146,l),
(465,1146,ls),
(398,1146,o),
(344,1092,o),
(344,1026,cs),
(344,959,o),
(398,905,o),
(465,905,cs),
(2142,905,l),
(1665,428,ls),
(1617,380,o),
(1617,305,o),
(1665,256,cs)
);
}
);
width = 2896;
},
{
layerId = "B1F27B51-9973-4381-9301-4FE46FE1CA59";
shapes = (
{
closed = 1;
nodes = (
(1735,289,o),
(1765,289,o),
(1785,309,cs),
(2467,990,ls),
(2477,1001,o),
(2482,1014,o),
(2482,1026,cs),
(2482,1038,o),
(2477,1051,o),
(2467,1061,cs),
(1785,1743,ls),
(1765,1763,o),
(1735,1763,o),
(1714,1743,cs),
(1694,1726,o),
(1694,1692,o),
(1714,1672,cs),
(2310,1076,l),
(465,1076,ls),
(436,1076,o),
(414,1054,o),
(414,1026,cs),
(414,997,o),
(436,975,o),
(465,975,cs),
(2310,975,l),
(1714,379,ls),
(1694,359,o),
(1694,326,o),
(1714,309,cs)
);
}
);
width = 2896;
},
{
layerId = "5C20EF92-B63D-42A8-8878-93C2863E0093";
shapes = (
{
closed = 1;
nodes = (
(1691,141,o),
(1808,141,o),
(1879,211,cs),
(2564,896,ls),
(2598,930,o),
(2616,976,o),
(2616,1026,cs),
(2616,1075,o),
(2598,1121,o),
(2564,1155,cs),
(1879,1840,ls),
(1808,1912,o),
(1691,1912,o),
(1620,1840,cs),
(1547,1766,o),
(1547,1649,o),
(1620,1578,cs),
(1987,1211,l),
(465,1211,ls),
(363,1211,o),
(280,1127,o),
(280,1026,cs),
(280,924,o),
(363,841,o),
(465,841,cs),
(1984,841,l),
(1620,474,ls),
(1547,402,o),
(1547,286,o),
(1620,211,cs)
);
}
);
width = 2896;
}
);
metricWidth = baseSymbol;
}
{
color = 11;
glyphname = iconArrowRight.small;
layers = (
{
layerId = "CD0E3B44-F66A-4791-B84C-A1128DC61275";
shapes = (
{
closed = 1;
nodes = (
(1339,39,o),
(1418,39,o),
(1463,87,cs),
(2317,941,ls),
(2365,986,o),
(2365,1065,o),
(2317,1110,cs),
(1463,1964,ls),
(1418,2012,o),
(1339,2012,o),
(1294,1964,cs),
(1246,1919,o),
(1246,1840,o),
(1294,1795,cs),
(1940,1146,l),
(664,1146,ls),
(597,1146,o),
(543,1092,o),
(543,1026,cs),
(543,959,o),
(597,905,o),
(664,905,cs),
(1940,905,l),
(1294,256,ls),
(1246,211,o),
(1246,133,o),
(1294,87,cs)
);
}
);
width = 2896;
},
{
layerId = "B1F27B51-9973-4381-9301-4FE46FE1CA59";
shapes = (
{
closed = 1;
nodes = (
(1364,117,o),
(1394,117,o),
(1414,137,cs),
(2268,990,ls),
(2288,1011,o),
(2288,1041,o),
(2268,1061,cs),
(1414,1915,ls),
(1394,1935,o),
(1364,1935,o),
(1343,1915,cs),
(1323,1894,o),
(1323,1864,o),
(1343,1844,cs),
(2112,1076,l),
(664,1076,ls),
(635,1076,o),
(613,1054,o),
(613,1026,cs),
(613,997,o),
(635,975,o),
(664,975,cs),
(2112,975,l),
(1343,207,ls),
(1323,187,o),
(1323,157,o),
(1343,137,cs)
);
}
);
width = 2896;
},
{
layerId = "5C20EF92-B63D-42A8-8878-93C2863E0093";
shapes = (
{
closed = 1;
nodes = (
(1320,-31,o),
(1437,-31,o),
(1511,42,cs),
(2362,896,ls),
(2435,967,o),
(2435,1084,o),
(2362,1155,cs),
(1511,2009,ls),
(1437,2082,o),
(1320,2082,o),
(1249,2009,cs),
(1176,1938,o),
(1176,1821,o),
(1249,1747,cs),
(1785,1211,l),
(664,1211,ls),
(562,1211,o),
(479,1127,o),
(479,1026,cs),
(479,924,o),
(562,841,o),
(664,841,cs),
(1785,841,l),
(1249,305,ls),
(1176,230,o),
(1176,114,o),
(1249,42,cs)
);
}
);
width = 2896;
}
);
metricWidth = baseSymbol;
}
{
color = 11;
glyphname = iconArrowUpLeft.large;
layers = (
{
layerId = "CD0E3B44-F66A-4791-B84C-A1128DC61275";
metricWidth = "=baseSymbol.large";
shapes = (
{
closed = 1;
nodes = (
(3174,-175,o),
(3261,-172,o),
(3315,-118,cs),
(3370,-63,o),
(3370,24,o),
(3315,78,cs),
(1469,1931,l),
(2576,1931,ls),
(2652,1931,o),
(2715,1994,o),
(2715,2069,cs),
(2715,2148,o),
(2652,2211,o),
(2576,2211,cs),
(1128,2211,ls),
(1089,2211,o),
(1053,2193,o),
(1029,2169,cs),
(1005,2145,o),
(986,2109,o),
(986,2069,cs),
(986,624,ls),
(986,546,o),
(1050,483,o),
(1128,483,cs),
(1204,483,o),
(1267,546,o),
(1267,624,cs),
(1267,1729,l),
(3116,-118,ls)
);
}
);
userData = {
RMXScaler = {
height = 150;
verticalShift = -170;
width = 150;
};
};
width = 4344;
},
{
layerId = "B1F27B51-9973-4381-9301-4FE46FE1CA59";
metricWidth = "=baseSymbol.large";
shapes = (
{
closed = 1;
nodes = (
(3195,-98,o),
(3240,-95,o),
(3266,-68,cs),
(3291,-42,o),
(3292,3,o),
(3266,29,cs),
(1296,1998,l),
(2573,1998,ls),
(2612,1998,o),
(2645,2033,o),
(2645,2072,cs),
(2645,2109,o),
(2612,2144,o),
(2573,2144,cs),
(1125,2144,ls),
(1107,2144,o),
(1091,2137,o),
(1075,2120,cs),
(1058,2103,o),
(1054,2085,o),
(1054,2072,cs),
(1054,624,ls),
(1054,585,o),
(1085,550,o),
(1125,550,cs),
(1164,550,o),
(1197,585,o),
(1197,624,cs),
(1197,1894,l),
(3165,-68,ls)
);
}
);
userData = {
RMXScaler = {
height = 150;
verticalShift = -170;
width = 150;
};
};
width = 4344;
},
{
layerId = "5C20EF92-B63D-42A8-8878-93C2863E0093";
metricWidth = "=baseSymbol.large";
shapes = (
{
closed = 1;
nodes = (
(3144,-261,o),
(3287,-268,o),
(3377,-175,cs),
(3469,-82,o),
(3453,59,o),
(3373,140,cs),
(1665,1850,l),
(2576,1850,ls),
(2700,1850,o),
(2798,1949,o),
(2798,2072,cs),
(2798,2193,o),
(2700,2295,o),
(2576,2295,cs),
(1128,2295,ls),
(1070,2295,o),
(1015,2267,o),
(974,2226,cs),
(931,2183,o),
(906,2125,o),
(906,2072,cs),
(906,624,ls),
(906,501,o),
(1005,402,o),
(1128,402,cs),
(1252,402,o),
(1350,501,o),
(1350,624,cs),
(1350,1533,l),
(3059,-175,ls)
);
}
);
userData = {
RMXScaler = {
height = 150;
verticalShift = -170;
width = 150;
};
};
width = 4344;
}
);
userData = {
RMXScaler = {
source = iconArrowUpLeft.small;
};
};
}
{
color = 11;
glyphname = iconArrowUpLeft.small;
layers = (
{
layerId = "CD0E3B44-F66A-4791-B84C-A1128DC61275";
shapes = (
{
closed = 1;
nodes = (
(2106,196,o),
(2181,196,o),
(2229,244,cs),
(2278,293,o),
(2278,368,o),
(2229,413,cs),
(1044,1602,l),
(1716,1602,ls),
(1783,1602,o),
(1837,1656,o),
(1837,1723,cs),
(1837,1789,o),
(1783,1843,o),
(1716,1843,cs),
(751,1843,ls),
(721,1843,o),
(691,1828,o),
(667,1807,cs),
(646,1783,o),
(630,1753,o),
(630,1723,cs),
(630,757,ls),
(630,691,o),
(685,637,o),
(751,637,cs),
(818,637,o),
(872,691,o),
(872,757,cs),
(872,1430,l),
(2057,244,ls)
);
}
);
width = 2896;
},
{
layerId = "B1F27B51-9973-4381-9301-4FE46FE1CA59";
shapes = (
{
closed = 1;
nodes = (
(2127,273,o),
(2160,273,o),
(2180,294,cs),
(2200,314,o),
(2200,347,o),
(2180,364,cs),
(872,1672,l),
(1716,1672,ls),
(1745,1672,o),
(1767,1694,o),
(1767,1723,cs),
(1767,1751,o),
(1745,1773,o),
(1716,1773,cs),
(751,1773,ls),
(739,1773,o),
(726,1769,o),
(716,1758,cs),
(705,1748,o),
(701,1735,o),
(701,1723,cs),
(701,757,ls),
(701,729,o),
(723,707,o),
(751,707,cs),
(778,707,o),
(801,729,o),
(801,757,cs),
(801,1598,l),
(2110,294,ls)
);
}
);
width = 2896;
},
{
layerId = "5C20EF92-B63D-42A8-8878-93C2863E0093";
shapes = (
{
closed = 1;
nodes = (
(2087,126,o),
(2203,126,o),
(2275,199,cs),
(2348,271,o),
(2348,387,o),
(2275,462,cs),
(1199,1538,l),
(1716,1538,ls),
(1821,1538,o),
(1901,1621,o),
(1901,1723,cs),
(1901,1824,o),
(1821,1908,o),
(1716,1908,cs),
(751,1908,ls),
(702,1908,o),
(656,1886,o),
(621,1852,cs),
(587,1818,o),
(566,1772,o),
(566,1723,cs),
(566,757,ls),
(566,656,o),
(650,572,o),
(751,572,cs),
(856,572,o),
(936,656,o),
(936,757,cs),
(936,1275,l),
(2012,199,ls)
);
}
);
width = 2896;
}
);
metricWidth = baseSymbol;
}
{
color = 11;
glyphname = iconCircle.small;
layers = (
{
background = {
shapes = (
{
closed = 1;
nodes = (
(2896,-422,l),
(2896,2474,l),
(0,2474,l),
(0,-422,l)
);
}
);
};
layerId = "CD0E3B44-F66A-4791-B84C-A1128DC61275";
shapes = (
{
closed = 1;
nodes = (
(2115,-181,o),
(2655,359,o),
(2655,1026,cs),
(2655,1692,o),
(2115,2232,o),
(1448,2232,cs),
(781,2232,o),
(241,1692,o),
(241,1026,cs),
(241,359,o),
(781,-181,o),
(1448,-181,cs)
);
},
{
closed = 1;
nodes = (
(914,60,o),
(483,492,o),
(483,1026,cs),
(483,1560,o),
(914,1991,o),
(1448,1991,cs),
(1982,1991,o),
(2413,1560,o),
(2413,1026,cs),
(2413,492,o),
(1982,60,o),
(1448,60,cs)
);
}
);
width = 2896;
},
{
associatedMasterId = "CD0E3B44-F66A-4791-B84C-A1128DC61275";
layerId = "BAB5D0DC-9803-4268-9A90-B66353B4E874";
name = "Aug 9, 23 22:55";
shapes = (
{
closed = 1;
nodes = (
(2181,-302,o),
(2775,293,o),
(2775,1026,cs),
(2775,1759,o),
(2181,2353,o),
(1448,2353,cs),
(715,2353,o),
(121,1759,o),
(121,1026,cs),
(121,293,o),
(715,-302,o),
(1448,-302,cs)
);
},
{
closed = 1;
nodes = (
(848,-60,o),
(362,428,o),
(362,1026,cs),
(362,1623,o),
(848,2112,o),
(1448,2112,cs),
(2048,2112,o),
(2534,1623,o),
(2534,1026,cs),
(2534,428,o),
(2048,-60,o),
(1448,-60,cs)
);
}
);
width = 2896;
},
{
layerId = "B1F27B51-9973-4381-9301-4FE46FE1CA59";
shapes = (
{
closed = 1;
nodes = (
(2115,-181,o),
(2655,359,o),
(2655,1026,cs),
(2655,1692,o),
(2115,2232,o),
(1448,2232,cs),
(781,2232,o),
(241,1692,o),
(241,1026,cs),
(241,359,o),
(781,-181,o),
(1448,-181,cs)
);
},
{
closed = 1;
nodes = (
(837,-79,o),
(343,414,o),
(343,1026,cs),
(343,1637,o),
(837,2131,o),
(1448,2131,cs),
(2059,2131,o),
(2553,1637,o),
(2553,1026,cs),
(2553,414,o),
(2059,-79,o),
(1448,-79,cs)
);
}
);
width = 2896;
},
{
layerId = "5C20EF92-B63D-42A8-8878-93C2863E0093";
shapes = (
{
closed = 1;
nodes = (
(2115,-181,o),
(2655,359,o),
(2655,1026,cs),
(2655,1692,o),
(2115,2232,o),
(1448,2232,cs),
(781,2232,o),
(241,1692,o),
(241,1026,cs),
(241,359,o),
(781,-181,o),
(1448,-181,cs)
);
},
{
closed = 1;
nodes = (
(984,189,o),
(611,562,o),
(611,1026,cs),
(611,1488,o),
(984,1862,o),
(1448,1862,cs),
(1912,1862,o),
(2285,1488,o),
(2285,1026,cs),
(2285,562,o),
(1912,189,o),
(1448,189,cs)
);
}
);
width = 2896;
}
);
metricWidth = baseSymbol;
}
{
color = 11;
glyphname = iconClose.large;
layers = (
{
layerId = "CD0E3B44-F66A-4791-B84C-A1128DC61275";
metricWidth = "=baseSymbol.large";
shapes = (
{
closed = 1;
nodes = (
(950,-305,o),
(1038,-305,o),
(1092,-250,cs),
(2172,827,l),
(3249,-250,ls),
(3303,-305,o),
(3391,-305,o),
(3445,-250,cs),
(3499,-196,o),
(3502,-109,o),
(3445,-51,cs),
(2371,1026,l),
(3445,2103,ls),
(3502,2160,o),
(3499,2247,o),
(3445,2302,cs),
(3391,2356,o),
(3303,2356,o),
(3249,2302,cs),
(2172,1225,l),
(1092,2302,ls),
(1038,2356,o),
(950,2356,o),
(896,2302,cs),
(842,2247,o),
(839,2160,o),
(896,2103,cs),
(1973,1026,l),
(896,-51,ls),
(839,-109,o),
(842,-196,o),
(896,-250,cs)
);
}
);
userData = {
RMXScaler = {
height = 150;
verticalShift = -170;
width = 150;
};
};
width = 4344;
},
{
layerId = "B1F27B51-9973-4381-9301-4FE46FE1CA59";
metricWidth = "=baseSymbol.large";
shapes = (
{
closed = 1;
nodes = (
(974,-230,o),
(1017,-230,o),
(1046,-201,cs),
(2172,925,l),
(3298,-201,ls),
(3327,-230,o),
(3370,-230,o),
(3399,-201,cs),
(3428,-172,o),
(3428,-130,o),
(3399,-101,cs),
(2273,1026,l),
(3399,2152,ls),
(3428,2181,o),
(3429,2222,o),
(3399,2252,cs),
(3370,2282,o),
(3327,2282,o),
(3298,2252,cs),
(2172,1126,l),
(1046,2252,ls),
(1017,2282,o),
(974,2282,o),
(945,2252,cs),
(916,2222,o),
(916,2181,o),
(945,2152,cs),
(2071,1026,l),
(945,-101,ls),
(916,-130,o),
(916,-171,o),
(945,-201,cs)
);
}
);
userData = {
RMXScaler = {
height = 150;
verticalShift = -170;
width = 150;
};
};
width = 4344;
},
{
layerId = "5C20EF92-B63D-42A8-8878-93C2863E0093";
metricWidth = "=baseSymbol.large";
shapes = (
{
closed = 1;
nodes = (
(928,-394,o),
(1070,-388,o),
(1153,-305,cs),
(2172,711,l),
(3195,-305,ls),
(3281,-391,o),
(3423,-391,o),
(3506,-308,cs),
(3599,-215,o),
(3583,-73,o),
(3506,3,cs),
(2490,1026,l),
(3506,2048,ls),
(3592,2134,o),
(3589,2277,o),
(3506,2359,cs),
(3420,2445,o),
(3277,2439,o),
(3195,2356,cs),
(2172,1340,l),
(1153,2356,ls),
(1070,2439,o),
(931,2445,o),
(842,2359,cs),
(758,2277,o),
(752,2138,o),
(842,2048,cs),
(1857,1026,l),
(842,3,ls),
(755,-82,o),
(758,-225,o),
(842,-308,cs)
);
}
);
userData = {
RMXScaler = {
height = 150;
verticalShift = -170;
width = 150;
};
};
width = 4344;
}
);
userData = {
RMXScaler = {
source = iconClose.small;
};
};
}
{
color = 11;
glyphname = iconDividerTight.large;
layers = (
{
layerId = "CD0E3B44-F66A-4791-B84C-A1128DC61275";
metricWidth = "=baseSymbol.large/2";
shapes = (
{
closed = 1;
nodes = (
(1128,-492,o),
(1158,-462,o),
(1158,-422,cs),
(1158,2474,ls),
(1158,2513,o),
(1128,2543,o),
(1086,2543,cs),
(1047,2543,o),
(1017,2513,o),
(1017,2474,cs),
(1017,-422,ls),
(1017,-462,o),
(1047,-492,o),
(1086,-492,cs)
);
}
);
userData = {
RMXScaler = {
height = 150;
verticalShift = -170;
width = 150;
};
};
width = 2172;
},
{
layerId = "B1F27B51-9973-4381-9301-4FE46FE1CA59";
metricWidth = "=baseSymbol.large/2";
shapes = (
{
closed = 1;
nodes = (
(1107,-456,o),
(1119,-443,o),
(1119,-422,cs),
(1119,2474,ls),
(1119,2495,o),
(1107,2507,o),
(1086,2507,cs),
(1065,2507,o),
(1053,2495,o),
(1053,2474,cs),
(1053,-422,ls),
(1053,-443,o),
(1065,-456,o),
(1086,-456,cs)
);
}
);
userData = {
RMXScaler = {
height = 150;
verticalShift = -170;
width = 150;
};
};
width = 2172;
},
{
layerId = "5C20EF92-B63D-42A8-8878-93C2863E0093";
metricWidth = "=baseSymbol.large/2";
shapes = (
{
closed = 1;
nodes = (
(1157,-552,o),
(1216,-494,o),
(1216,-422,cs),
(1216,2474,ls),
(1216,2545,o),
(1157,2603,o),
(1086,2603,cs),
(1015,2603,o),
(956,2545,o),
(956,2474,cs),
(956,-422,ls),
(956,-494,o),
(1015,-552,o),
(1086,-552,cs)
);
}
);
userData = {
RMXScaler = {
height = 150;
verticalShift = -170;
width = 150;
};
};
width = 2172;
}
);
userData = {
RMXScaler = {
source = iconDividerTight.small;
};
};
}
{
color = 11;
glyphname = iconExchangeRateFill.small;
layers = (
{
layerId = "CD0E3B44-F66A-4791-B84C-A1128DC61275";
shapes = (
{
closed = 1;
nodes = (
(2115,-181,o),
(2655,359,o),
(2655,1026,cs),
(2655,1692,o),
(2115,2232,o),
(1448,2232,cs),
(781,2232,o),
(241,1692,o),
(241,1026,cs),
(241,359,o),
(781,-181,o),
(1448,-181,cs)
);
},
{
closed = 1;
nodes = (
(830,588,ls),
(790,630,o),
(790,697,o),
(830,739,cs),
(1131,1041,ls),
(1173,1080,o),
(1240,1080,o),
(1282,1041,cs),
(1321,999,o),
(1321,932,o),
(1282,890,cs),
(1158,769,l),
(1991,769,ls),
(2048,769,o),
(2097,721,o),
(2097,664,cs),
(2097,606,o),
(2048,558,o),
(1991,558,cs),
(1158,558,l),
(1282,437,ls),
(1321,395,o),
(1321,329,o),
(1282,287,cs),
(1240,247,o),
(1173,247,o),
(1131,287,cs)
);
},
{
closed = 1;
nodes = (
(1575,1053,o),
(1575,1119,o),
(1614,1161,cs),
(1738,1282,l),
(905,1282,ls),
(848,1282,o),
(799,1330,o),
(799,1388,cs),
(799,1445,o),
(848,1493,o),
(905,1493,cs),
(1738,1493,l),
(1614,1614,ls),
(1575,1656,o),
(1575,1723,o),
(1614,1765,cs),
(1656,1804,o),
(1723,1804,o),
(1765,1765,cs),
(2066,1463,ls),
(2106,1421,o),
(2106,1354,o),
(2066,1312,cs),
(1765,1011,ls),
(1723,971,o),
(1656,971,o),
(1614,1011,cs)
);
}
);
width = 2896;
},
{
layerId = "B1F27B51-9973-4381-9301-4FE46FE1CA59";
shapes = (
{
closed = 1;
nodes = (
(2115,-181,o),
(2655,359,o),
(2655,1026,cs),
(2655,1692,o),
(2115,2232,o),
(1448,2232,cs),
(781,2232,o),
(241,1692,o),
(241,1026,cs),
(241,359,o),
(781,-181,o),
(1448,-181,cs)
);
},
{
closed = 1;
nodes = (
(834,662,ls),
(812,683,o),
(812,714,o),
(834,736,cs),
(1135,1038,ls),
(1157,1059,o),
(1189,1059,o),
(1210,1038,cs),
(1231,1016,o),
(1231,984,o),
(1210,963,cs),
(999,752,l),
(2025,752,ls),
(2054,752,o),
(2079,728,o),
(2079,699,cs),
(2079,670,o),
(2054,646,o),
(2025,646,cs),
(999,646,l),
(1210,434,ls),
(1231,412,o),
(1231,381,o),
(1210,360,cs),
(1189,339,o),
(1157,339,o),
(1135,360,cs)
);
},
{
closed = 1;
nodes = (
(1665,1036,o),
(1665,1067,o),
(1686,1088,cs),
(1897,1299,l),
(871,1299,ls),
(842,1299,o),
(819,1323,o),
(819,1353,cs),
(819,1382,o),
(842,1406,o),
(871,1406,cs),
(1897,1406,l),
(1686,1617,ls),
(1665,1639,o),
(1665,1670,o),
(1686,1691,cs),
(1707,1713,o),
(1739,1713,o),
(1761,1691,cs),
(2062,1390,ls),
(2084,1369,o),
(2084,1337,o),
(2062,1315,cs),
(1761,1014,ls),
(1739,992,o),
(1707,992,o),
(1686,1014,cs)
);
}
);
width = 2896;
},
{
layerId = "5C20EF92-B63D-42A8-8878-93C2863E0093";
shapes = (
{
closed = 1;
nodes = (
(2115,-181,o),
(2655,359,o),
(2655,1026,cs),
(2655,1692,o),
(2115,2232,o),
(1448,2232,cs),
(781,2232,o),
(241,1692,o),
(241,1026,cs),
(241,359,o),
(781,-181,o),
(1448,-181,cs)
);
},
{
closed = 1;
nodes = (
(797,524,ls),
(736,582,o),
(736,681,o),
(797,739,cs),
(1099,1041,ls),
(1158,1102,o),
(1257,1102,o),
(1315,1041,cs),
(1377,982,o),
(1377,884,o),
(1315,826,cs),
(1278,785,l),
(1990,785,ls),
(2076,785,o),
(2144,718,o),
(2144,632,cs),
(2144,545,o),
(2076,478,o),
(1990,478,cs),
(1278,478,l),
(1315,437,ls),
(1377,379,o),
(1377,281,o),
(1315,222,cs),
(1257,161,o),
(1158,161,o),
(1099,222,cs)
);
},
{
closed = 1;
nodes = (
(1519,1069,o),
(1519,1167,o),
(1581,1226,cs),
(1618,1266,l),
(906,1266,ls),
(820,1266,o),
(752,1333,o),
(752,1420,cs),
(752,1506,o),
(820,1574,o),
(906,1574,cs),
(1618,1574,l),
(1581,1614,ls),
(1519,1672,o),
(1519,1771,o),
(1581,1829,cs),
(1639,1890,o),
(1738,1890,o),
(1797,1829,cs),
(2099,1527,ls),
(2160,1469,o),
(2160,1371,o),
(2099,1312,cs),
(1797,1011,ls),
(1738,949,o),
(1639,949,o),
(1581,1011,cs)
);
}
);
width = 2896;
}
);
metricWidth = baseSymbol;
}
{
color = 11;
glyphname = iconPen.large;
layers = (
{
layerId = "CD0E3B44-F66A-4791-B84C-A1128DC61275";
metricWidth = "=baseSymbol.large";
shapes = (
{
closed = 1;
nodes = (
(1466,-555,ls),
(1505,-555,o),
(1539,-543,o),
(1563,-519,cs),
(3587,1505,ls),
(3620,1539,o),
(3641,1560,o),
(3674,1596,cs),
(3780,1704,o),
(3792,1901,o),
(3674,2018,cs),
(3635,2057,o),
(3617,2072,o),
(3584,2109,cs),
(3258,2437,ls),
(3222,2474,o),
(3195,2501,o),
(3164,2528,cs),
(3035,2655,o),
(2833,2615,o),
(2745,2528,cs),
(2709,2492,o),
(2688,2471,o),
(2655,2437,cs),
(627,416,ls),
(600,389,o),
(591,353,o),
(591,320,cs),
(591,-422,ls),
(591,-501,o),
(649,-555,o),
(724,-555,cs)
);
},
{
closed = 1;
nodes = (
(860,265,l),
(2839,2244,ls),
(2884,2290,o),
(2872,2275,o),
(2920,2323,cs),
(2944,2347,o),
(2971,2341,o),
(2990,2323,cs),
(3020,2290,o),
(3014,2299,o),
(3059,2253,cs),
(3403,1910,ls),
(3433,1879,o),
(3448,1861,o),
(3469,1843,cs),
(3487,1825,o),
(3493,1795,o),
(3469,1771,cs),
(3439,1741,o),
(3427,1729,o),
(3391,1692,cs),
(1412,-287,l),
(860,-287,l)
);
}
);
userData = {
RMXScaler = {
height = 150;
verticalShift = -170;
width = 150;
};
};
width = 4344;
},
{
layerId = "B1F27B51-9973-4381-9301-4FE46FE1CA59";
metricWidth = "=baseSymbol.large";
shapes = (
{
closed = 1;
nodes = (
(1466,-494.994,ls),
(1491,-495,o),
(1503,-487,o),
(1516,-473,cs),
(3541,1548,ls),
(3574,1581,o),
(3588,1602,o),
(3624,1638,cs),
(3723,1740,o),
(3705,1901,o),
(3628,1980,cs),
(3599,2008,o),
(3597,2013,o),
(3542,2069,cs),
(3216,2394,ls),
(3180,2431,o),
(3151,2456,o),
(3128,2479,cs),
(3038,2567,o),
(2874,2568,o),
(2784,2479,cs),
(2754,2449,o),
(2730,2427,o),
(2697,2394,cs),
(674,370,l),
(654,357,o),
(652,332,o),
(652,320,cs),
(652,-422,ls),
(652,-462,o),
(684,-495,o),
(724,-494.994,cs)
);
},
{
closed = 1;
nodes = (
(799,291,l),
(2792,2288,ls),
(2839,2333,o),
(2856,2347,o),
(2885,2373,cs),
(2924,2408,o),
(2985,2415,o),
(3028,2370,cs),
(3052,2346,o),
(3076,2326,o),
(3115,2286,cs),
(3432,1969,ls),
(3473,1929,o),
(3484,1914,o),
(3519,1881,cs),
(3562,1839,o),
(3558,1778,o),
(3519,1736,cs),
(3499,1716,o),
(3500,1713,o),
(3433,1646,cs),
(1437,-350,l),
(799,-350,l)
);
}
);
userData = {
RMXScaler = {
height = 150;
verticalShift = -170;
width = 150;
};
};
width = 4344;
},
{
layerId = "5C20EF92-B63D-42A8-8878-93C2863E0093";
metricWidth = "=baseSymbol.large";
shapes = (
{
closed = 1;
nodes = (
(1466,-635,ls),
(1521,-635,o),
(1577,-616,o),
(1620,-573,cs),
(3644,1451,ls),
(3684,1490,o),
(3725,1530,o),
(3745,1554,cs),
(3856,1681,o),
(3885,1897,o),
(3751,2053,cs),
(3715,2100,o),
(3699,2109,o),
(3644,2163,cs),
(3312,2499,ls),
(3282,2528,o),
(3262,2546,o),
(3219,2589,cs),
(3057,2741,o),
(2817,2705,o),
(2691,2589,cs),
(2664,2562,o),
(2646,2547,o),
(2597,2499,cs),
(573,474,l),
(530,430,o),
(511,375,o),
(511,320,cs),
(511,-422,ls),
(511,-543,o),
(603,-635,o),
(724,-635,cs)
);
},
{
closed = 1;
nodes = (
(943,233,l),
(2896,2187,ls),
(2916,2206,o),
(2941,2232,o),
(2946,2236,cs),
(2951,2241,o),
(2955,2244,o),
(2963,2236,cs),
(2965,2235,o),
(2988,2209,o),
(3001,2196,cs),
(3349,1851,ls),
(3360,1840,o),
(3369,1829,o),
(3383,1817,cs),
(3388,1812,o),
(3388,1805,o),
(3383,1800,cs),
(3372,1789,o),
(3360,1773,o),
(3333,1750,cs),
(1380,-206,l),
(943,-206,l)
);
}
);
userData = {
RMXScaler = {
height = 150;
verticalShift = -170;
width = 150;
};
};
width = 4344;
}
);
userData = {
RMXScaler = {
source = iconPen.small;
};
};
}
{
color = 11;
glyphname = iconPersons.large;
layers = (
{
layerId = "CD0E3B44-F66A-4791-B84C-A1128DC61275";
metricWidth = "=baseSymbol.large";
shapes = (
{
closed = 1;
nodes = (
(618,-745,o),
(682,-682,o),
(682,-603,cs),
(682,121,ls),
(682,196,o),
(712,262,o),
(745,323,cs),
(760,350,ls),
(821,459,o),
(944,510,o),
(1062,510,cs),
(2281,510,ls),
(2398,510,o),
(2513,449,o),
(2579,350,cs),
(2597,323,l),
(2634,265,o),
(2655,193,o),
(2655,121,cs),
(2655,-603,ls),
(2655,-679,o),
(2718,-745,o),
(2796,-745,cs),
(2875,-745,o),
(2935,-679,o),
(2935,-603,cs),
(2935,121,ls),
(2935,247,o),
(2899,371,o),
(2830,483,cs),
(2815,507,ls),
(2703,685,o),
(2498,790,o),
(2281,790,cs),
(1062,790,ls),
(851,790,o),
(649,688,o),
(528,507,cs),
(510,480,ls),
(437,371,o),
(401,247,o),
(401,121,cs),
(401,-603,ls),
(401,-679,o),
(465,-745,o),
(543,-745,cs)
);
},
{
closed = 1;
nodes = (
(3876,-745,o),
(3940,-682,o),
(3940,-603,cs),
(3940,121,ls),
(3940,244,o),
(3907,371,o),
(3834,480,cs),
(3816,507,ls),
(3701,682,o),
(3496,790,o),
(3279,790,cs),
(3177,790,ls),
(3095,790,o),
(3035,727,o),
(3035,652,cs),
(3035,573,o),
(3095,510,o),
(3177,510,cs),
(3279,510,ls),
(3403,510,o),
(3514,449,o),
(3581,350,cs),
(3599,323,ls),
(3641,259,o),
(3659,187,o),
(3659,121,cs),
(3659,-603,ls),
(3659,-679,o),
(3723,-745,o),
(3801,-745,cs)
);
},
{
closed = 1;
nodes = (
(2163,1011,o),
(2561,1409,o),
(2561,1904,cs),
(2561,2398,o),
(2163,2796,o),
(1668,2796,cs),
(1177,2796,o),
(778,2398,o),
(778,1904,cs),
(778,1409,o),
(1177,1011,o),
(1668,1011,cs)
);
},
{
closed = 1;
nodes = (
(1336,1294,o),
(1059,1566,o),
(1059,1904,cs),
(1059,2241,o),
(1336,2513,o),
(1668,2513,cs),
(2009,2513,o),
(2281,2241,o),
(2281,1904,cs),
(2281,1566,o),
(2009,1294,o),
(1668,1294,cs)
);
},
{
closed = 1;
nodes = (
(3168,1011,o),
(3566,1409,o),
(3566,1904,cs),
(3566,2398,o),
(3168,2796,o),
(2673,2796,cs),
(2597,2796,o),
(2534,2733,o),
(2534,2655,cs),
(2534,2576,o),
(2597,2513,o),
(2673,2513,cs),
(3008,2513,o),
(3285,2241,o),
(3285,1904,cs),
(3285,1566,o),
(3008,1294,o),
(2673,1294,cs),
(2597,1294,o),
(2534,1231,o),
(2534,1152,cs),
(2534,1074,o),
(2597,1011,o),
(2673,1011,cs)
);
}
);
userData = {
RMXScaler = {
height = 150;
verticalShift = -170;
width = 150;
};
};
width = 4344;
},
{
layerId = "B1F27B51-9973-4381-9301-4FE46FE1CA59";
metricWidth = "=baseSymbol.large";
shapes = (
{
closed = 1;
nodes = (
(583,-675,o),
(614,-643,o),
(614.008,-603,cs),
(614.008,121,ls),
(614,200,o),
(636,288,o),
(685,362,cs),
(704,389,ls),
(784,509,o),
(916,577,o),
(1065,577,cs),
(2281,577,ls),
(2423,577,o),
(2555,510,o),
(2636,389,cs),
(2654,362,ls),
(2704,288,o),
(2725,200,o),
(2725,121,cs),
(2725,-603,ls),
(2725,-644,o),
(2760,-675,o),
(2796,-675,cs),
(2833,-675,o),
(2868,-644,o),
(2868,-603,cs),
(2868,121,ls),
(2868,233,o),
(2849,363,o),
(2773,451,cs),
(2758,468,ls),
(2637,607,o),
(2477,723,o),
(2281,723,cs),
(1065,723,ls),
(876,723,o),
(695,629,o),
(588,468,cs),
(570,440,ls),
(505,343,o),
(472,233,o),
(472,121,cs),
(472,-603,ls),
(472,-644,o),
(507,-675,o),
(543,-675,cs)
);
},
{
closed = 1;
nodes = (
(3841,-675,o),
(3872,-643,o),
(3872.008,-603,cs),
(3872.008,121,ls),
(3872,230,o),
(3843,343,o),
(3778,440,cs),
(3760,468,ls),
(3652,629,o),
(3472,723,o),
(3282,723,cs),
(3172,723,ls),
(3129,723,o),
(3100,688,o),
(3100,652,cs),
(3100,612,o),
(3129,577,o),
(3172,577,cs),
(3282,577,ls),
(3428,577,o),
(3561,510,o),
(3641,389,cs),
(3659,362,ls),
(3708,288,o),
(3730,201,o),
(3730,121,cs),
(3730,-603,ls),
(3730,-644,o),
(3765,-675,o),
(3801,-675,cs)
);
},
{
closed = 1;
nodes = (
(2124,1081,o),
(2494,1448,o),
(2494,1904,cs),
(2494,2359,o),
(2124,2726,o),
(1671,2726,cs),
(1216,2726,o),
(849,2360,o),
(849,1904,cs),
(849,1448,o),
(1216,1081,o),
(1671,1081,cs)
);
},
{
closed = 1;
nodes = (
(1297,1224,o),
(992,1526,o),
(992,1904,cs),
(992,2281,o),
(1297,2583,o),
(1671,2583,cs),
(2048,2583,o),
(2351,2281,o),
(2351,1904,cs),
(2351,1526,o),
(2048,1224,o),
(1671,1224,cs)
);
},
{
closed = 1;
nodes = (
(3133,1119,o),
(3498,1443,o),
(3498.008,1904,cs),
(3498,2331,o),
(3171,2685,o),
(2716,2726,cs),
(2649,2733,o),
(2593,2704,o),
(2594,2654,cs),
(2595,2610,o),
(2635,2583,o),
(2671,2583,cs),
(3052,2588,o),
(3355,2275,o),
(3355,1904,cs),
(3355,1533,o),
(3052,1219,o),
(2671,1224,cs),
(2635,1224,o),
(2595,1197,o),
(2594,1153,cs),
(2593,1100,o),
(2649,1074,o),
(2716,1081,cs)
);
}
);
userData = {
RMXScaler = {
height = 150;
verticalShift = -170;
width = 150;
};
};
width = 4344;
},
{
layerId = "5C20EF92-B63D-42A8-8878-93C2863E0093";
metricWidth = "=baseSymbol.large";
shapes = (
{
closed = 1;
nodes = (
(667,-826,o),
(765,-727,o),
(765,-603,cs),
(765,121,ls),
(765,171,o),
(776,230,o),
(812,278,cs),
(831,302,ls),
(885,372,o),
(966,429,o),
(1065,429,cs),
(2281,429,ls),
(2363,429,o),
(2462,388,o),
(2515,302,cs),
(2530,278,ls),
(2559,227,o),
(2574,174,o),
(2574,121,cs),
(2574,-603,ls),
(2574,-727,o),
(2673,-826,o),
(2796,-826,cs),
(2923,-826,o),
(3019,-727,o),
(3019,-603,cs),
(3019,121,ls),
(3019,266,o),
(2978,406,o),
(2900,524,cs),
(2882,552,ls),
(2748,752,o),
(2520,874,o),
(2281,874,cs),
(1065,874,ls),
(822,874,o),
(594,752,o),
(461,552,cs),
(442,525,ls),
(364,406,o),
(321,266,o),
(321,121,cs),
(321,-603,ls),
(321,-727,o),
(419,-826,o),
(543,-826,cs)
);
},
{
closed = 1;
nodes = (
(3925,-826,o),
(4023,-727,o),
(4023,-603,cs),
(4023,121,ls),
(4023,266,o),
(3980,406,o),
(3902,525,cs),
(3883,552,ls),
(3750,752,o),
(3522,874,o),
(3282,874,cs),
(3221,874,ls),
(3094,874,o),
(2999,772,o),
(2999,652,cs),
(2999,528,o),
(3098,429,o),
(3221,429,cs),
(3282,429,ls),
(3368,429,o),
(3463,388,o),
(3516,302,cs),
(3532,278,ls),
(3561,230,o),
(3579,177,o),
(3579,121,cs),
(3579,-603,ls),
(3579,-727,o),
(3677,-826,o),
(3801,-826,cs)
);
},
{
closed = 1;
nodes = (
(2208,930,o),
(2645,1364,o),
(2645,1904,cs),
(2645,2443,o),
(2208,2877,o),
(1671,2877,cs),
(1131,2877,o),
(698,2440,o),
(698,1904,cs),
(698,1367,o),
(1131,930,o),
(1671,930,cs)
);
},
{
closed = 1;
nodes = (
(1382,1375,o),
(1142,1611,o),
(1142,1904,cs),
(1142,2196,o),
(1382,2432,o),
(1671,2432,cs),
(1964,2432,o),
(2200,2196,o),
(2200,1904,cs),
(2200,1611,o),
(1964,1375,o),
(1671,1375,cs)
);
},
{
closed = 1;
nodes = (
(3282,1019,o),
(3649,1408,o),
(3649,1904,cs),
(3649,2393,o),
(3284,2788,o),
(2815,2858,cs),
(2685,2877,o),
(2574,2796,o),
(2552,2680,cs),
(2530,2563,o),
(2609,2440,o),
(2730,2426,cs),
(3001,2394,o),
(3205,2171,o),
(3205,1904,cs),
(3205,1645,o),
(3014,1413,o),
(2736,1381,cs),
(2615,1369,o),
(2530,1250,o),
(2552,1127,cs),
(2574,1008,o),
(2688,930,o),
(2818,949,cs)
);
}
);
userData = {
RMXScaler = {
height = 150;
verticalShift = -170;
width = 150;
};
};
width = 4344;
}
);
userData = {
RMXScaler = {
source = iconPersons.small;
};
};
}
{
color = 11;
glyphname = iconSearch.small;
layers = (
{
layerId = "CD0E3B44-F66A-4791-B84C-A1128DC61275";
shapes = (
{
closed = 1;
nodes = (
(1720,362,o),
(2112,754,o),
(2112,1237,cs),
(2112,1720,o),
(1720,2112,o),
(1237,2112,cs),
(754,2112,o),
(362,1720,o),
(362,1237,cs),
(362,754,o),
(754,362,o),
(1237,362,cs)
);
},
{
closed = 1;
nodes = (
(887,603,o),
(603,887,o),
(603,1237,cs),
(603,1587,o),
(887,1870,o),
(1237,1870,cs),
(1587,1870,o),
(1870,1587,o),
(1870,1237,cs),
(1870,887,o),
(1587,603,o),
(1237,603,cs)
);
},
{
closed = 1;
nodes = (
(2374,-72,o),
(2453,-72,o),
(2498,-24,cs),
(2546,21,o),
(2546,100,o),
(2498,145,cs),
(1894,748,l),
(1726,579,l),
(2329,-24,ls)
);
}
);
width = 2896;
},
{
layerId = "B1F27B51-9973-4381-9301-4FE46FE1CA59";
shapes = (
{
closed = 1;
nodes = (
(1681,432,o),
(2041,792,o),
(2041,1237,cs),
(2041,1681,o),
(1681,2041,o),
(1237,2041,cs),
(792,2041,o),
(432,1681,o),
(432,1237,cs),
(432,792,o),
(792,432,o),
(1237,432,cs)
);
},
{
closed = 1;
nodes = (
(849,533,o),
(533,849,o),
(533,1237,cs),
(533,1625,o),
(849,1941,o),
(1237,1941,cs),
(1625,1941,o),
(1941,1625,o),
(1941,1237,cs),
(1941,849,o),
(1625,533,o),
(1237,533,cs)
);
},
{
closed = 1;
nodes = (
(2398,5,o),
(2428,5,o),
(2449,25,cs),
(2469,45,o),
(2469,75,o),
(2449,96,cs),
(1845,699,l),
(1775,628,l),
(2378,25,ls)
);
}
);
width = 2896;
},
{
layerId = "5C20EF92-B63D-42A8-8878-93C2863E0093";
shapes = (
{
closed = 1;
nodes = (
(1755,298,o),
(2176,719,o),
(2176,1237,cs),
(2176,1755,o),
(1755,2176,o),
(1237,2176,cs),
(719,2176,o),
(298,1755,o),
(298,1237,cs),
(298,719,o),
(719,298,o),
(1237,298,cs)
);
},
{
closed = 1;
nodes = (
(922,668,o),
(668,922,o),
(668,1237,cs),
(668,1552,o),
(922,1806,o),
(1237,1806,cs),
(1552,1806,o),
(1806,1552,o),
(1806,1237,cs),
(1806,922,o),
(1552,668,o),
(1237,668,cs)
);
},
{
closed = 1;
nodes = (
(2355,-144,o),
(2472,-144,o),
(2543,-69,cs),
(2616,2,o),
(2616,119,o),
(2543,190,cs),
(1940,793,l),
(1680,534,l),
(2284,-69,ls)
);
}
);
width = 2896;
}
);
metricWidth = baseSymbol;
}
{
color = 11;
glyphname = iconSquare.small;
layers = (
{
layerId = "CD0E3B44-F66A-4791-B84C-A1128DC61275";
shapes = (
{
closed = 1;
nodes = (
(2534,-60,l),
(2534,2112,l),
(362,2112,l),
(362,-60,l)
);
},
{
closed = 1;
nodes = (
(603,1870,l),
(2293,1870,l),
(2293,181,l),
(603,181,l)
);
}
);
width = 2896;
},
{
layerId = "B1F27B51-9973-4381-9301-4FE46FE1CA59";
shapes = (
{
closed = 1;
nodes = (
(2534,-60,l),
(2534,2112,l),
(362,2112,l),
(362,-60,l)
);
},
{
closed = 1;
nodes = (
(464,2010,l),
(2432,2010,l),
(2432,41,l),
(464,41,l)
);
}
);
width = 2896;
},
{
layerId = "5C20EF92-B63D-42A8-8878-93C2863E0093";
shapes = (
{
closed = 1;
nodes = (
(2534,-60,l),
(2534,2112,l),
(362,2112,l),
(362,-60,l)
);
},
{
closed = 1;
nodes = (
(732,1742,l),
(2164,1742,l),
(2164,310,l),
(732,310,l)
);
}
);
width = 2896;
}
);
metricWidth = baseSymbol;
}
{
color = 11;
glyphname = iconTooltip.large;
layers = (
{
layerId = "CD0E3B44-F66A-4791-B84C-A1128DC61275";
metricWidth = "=baseSymbol.large";
shapes = (
{
closed = 1;
nodes = (
(3174,-784,o),
(3982,24,o),
(3982,1026,cs),
(3982,2027,o),
(3174,2836,o),
(2172,2836,cs),
(1173,2836,o),
(362,2027,o),
(362,1026,cs),
(362,24,o),
(1173,-784,o),
(2172,-784,cs)
);
},
{
closed = 1;
nodes = (
(1327,-504,o),
(643,181,o),
(643,1026,cs),
(643,1870,o),
(1327,2555,o),
(2172,2555,cs),
(3017,2555,o),
(3701,1870,o),
(3701,1026,cs),
(3701,181,o),
(3017,-504,o),
(2172,-504,cs)
);
},
{
closed = 1;
nodes = (
(2625,115,l),
(2625,323,l),
(2314,323,l),
(2314,1336,l),
(1720,1336,l),
(1720,1131,l),
(2030,1131,l),
(2030,323,l),
(1720,323,l),
(1720,115,l)
);
},
{
closed = 1;
nodes = (
(2281,1593,o),
(2368,1680,o),
(2368,1789,cs),
(2368,1897,o),
(2281,1985,o),
(2172,1985,cs),
(2063,1985,o),
(1976,1897,o),
(1976,1789,cs),
(1976,1680,o),
(2063,1593,o),
(2172,1593,cs)
);
}
);
userData = {
RMXScaler = {
height = 150;
verticalShift = -170;
width = 150;
};
};
width = 4344;
},
{
layerId = "B1F27B51-9973-4381-9301-4FE46FE1CA59";
metricWidth = "=baseSymbol.large";
shapes = (
{
closed = 1;
nodes = (
(3174,-784,o),
(3982,27,o),
(3982,1026,cs),
(3982,2027,o),
(3174,2836,o),
(2172,2836,cs),
(1173,2836,o),
(362,2027,o),
(362,1026,cs),
(362,27,o),
(1173,-784,o),
(2172,-784,cs)
);
},
{
closed = 1;
nodes = (
(1250,-641,o),
(505,104,o),
(505,1026,cs),
(505,1948,o),
(1250,2693,o),
(2172,2693,cs),
(3094,2693,o),
(3839,1948,o),
(3839,1026,cs),
(3839,104,o),
(3094,-641,o),
(2172,-641,cs)
);
},
{
closed = 1;
nodes = (
(2625,181,l),
(2625,353,l),
(2243,353,l),
(2243,1403,l),
(1720,1403,l),
(1720,1233,l),
(2101,1233,l),
(2101,353,l),
(1720,353,l),
(1720,181,l)
);
},
{
closed = 1;
nodes = (
(2249,1711,o),
(2316,1778,o),
(2316,1855,cs),
(2316,1936,o),
(2249,2002,o),
(2172,2002,cs),
(2095,2002,o),
(2028,1936,o),
(2028,1855,cs),
(2028,1778,o),
(2095,1711,o),
(2172,1711,cs)
);
}
);
userData = {
RMXScaler = {
height = 150;
verticalShift = -170;
width = 150;
};
};
width = 4344;
},
{
layerId = "5C20EF92-B63D-42A8-8878-93C2863E0093";
metricWidth = "=baseSymbol.large";
shapes = (
{
closed = 1;
nodes = (
(3174,-784,o),
(3982,27,o),
(3982,1026,cs),
(3982,2027,o),
(3174,2836,o),
(2172,2836,cs),
(1173,2836,o),
(362,2027,o),
(362,1026,cs),
(362,27,o),
(1173,-784,o),
(2172,-784,cs)
);
},
{
closed = 1;
nodes = (
(1417,-340,o),
(806,270,o),
(806,1026,cs),
(806,1781,o),
(1417,2391,o),
(2172,2391,cs),
(2927,2391,o),
(3538,1781,o),
(3538,1026,cs),
(3538,270,o),
(2927,-340,o),
(2172,-340,cs)
);
},
{
closed = 1;
nodes = (
(2625,72,l),
(2625,338,l),
(2375,338,l),
(2375,1294,l),
(1720,1294,l),
(1720,1029,l),
(1969,1029,l),
(1969,338,l),
(1720,338,l),
(1720,72,l)
);
},
{
closed = 1;
nodes = (
(2310,1499,o),
(2419,1609,o),
(2419,1747,cs),
(2419,1884,o),
(2310,1994,o),
(2172,1994,cs),
(2034,1994,o),
(1925,1884,o),
(1925,1747,cs),
(1925,1609,o),
(2034,1499,o),
(2172,1499,cs)
);
}
);
userData = {
RMXScaler = {
height = 150;
verticalShift = -170;
width = 150;
};
};
width = 4344;
}
);
userData = {
RMXScaler = {
source = iconTooltip.small;
};
};
}
{
color = 11;
glyphname = iconTooltip.small;
layers = (
{
layerId = "CD0E3B44-F66A-4791-B84C-A1128DC61275";
shapes = (
{
closed = 1;
nodes = (
(2115,-181,o),
(2655,359,o),
(2655,1026,cs),
(2655,1692,o),
(2115,2232,o),
(1448,2232,cs),
(781,2232,o),
(241,1692,o),
(241,1026,cs),
(241,359,o),
(781,-181,o),
(1448,-181,cs)
);
},
{
closed = 1;
nodes = (
(914,60,o),
(483,492,o),
(483,1026,cs),
(483,1560,o),
(914,1991,o),
(1448,1991,cs),
(1982,1991,o),
(2413,1560,o),
(2413,1026,cs),
(2413,492,o),
(1982,60,o),
(1448,60,cs)
);
},
{
closed = 1;
nodes = (
(1750,392,l),
(1750,543,l),
(1569,543,l),
(1569,1207,l),
(1146,1207,l),
(1146,1056,l),
(1327,1056,l),
(1327,543,l),
(1146,543,l),
(1146,392,l)
);
},
{
closed = 1;
nodes = (
(1532,1358,o),
(1599,1424,o),
(1599,1508,cs),
(1599,1593,o),
(1532,1659,o),
(1448,1659,cs),
(1364,1659,o),
(1297,1593,o),
(1297,1508,cs),
(1297,1424,o),
(1364,1358,o),
(1448,1358,cs)
);
}
);
width = 2896;
},
{
layerId = "B1F27B51-9973-4381-9301-4FE46FE1CA59";
shapes = (
{
closed = 1;
nodes = (
(2115,-181,o),
(2655,359,o),
(2655,1026,cs),
(2655,1692,o),
(2115,2232,o),
(1448,2232,cs),
(781,2232,o),
(241,1692,o),
(241,1026,cs),
(241,359,o),
(781,-181,o),
(1448,-181,cs)
);
},
{
closed = 1;
nodes = (
(837,-79,o),
(343,414,o),
(343,1026,cs),
(343,1637,o),
(837,2131,o),
(1448,2131,cs),
(2059,2131,o),
(2553,1637,o),
(2553,1026,cs),
(2553,414,o),
(2059,-79,o),
(1448,-79,cs)
);
},
{
closed = 1;
nodes = (
(1750,461,l),
(1750,575,l),
(1499,575,l),
(1499,1275,l),
(1146,1275,l),
(1146,1159,l),
(1397,1159,l),
(1397,575,l),
(1146,575,l),
(1146,461,l)
);
},
{
closed = 1;
nodes = (
(1501,1477,o),
(1547,1522,o),
(1547,1577,cs),
(1547,1630,o),
(1501,1675,o),
(1448,1675,cs),
(1395,1675,o),
(1349,1630,o),
(1349,1577,cs),
(1349,1522,o),
(1395,1477,o),
(1448,1477,cs)
);
}
);
width = 2896;
},
{
layerId = "5C20EF92-B63D-42A8-8878-93C2863E0093";
shapes = (
{
closed = 1;
nodes = (
(2115,-181,o),
(2655,359,o),
(2655,1026,cs),
(2655,1692,o),
(2115,2232,o),
(1448,2232,cs),
(781,2232,o),
(241,1692,o),
(241,1026,cs),
(241,359,o),
(781,-181,o),
(1448,-181,cs)
);
},
{
closed = 1;
nodes = (
(984,189,o),
(611,562,o),
(611,1026,cs),
(611,1488,o),
(984,1862,o),
(1448,1862,cs),
(1912,1862,o),
(2285,1488,o),
(2285,1026,cs),
(2285,562,o),
(1912,189,o),
(1448,189,cs)
);
},
{
closed = 1;
nodes = (
(1750,391,l),
(1750,605,l),
(1602,605,l),
(1602,1206,l),
(1146,1206,l),
(1146,991,l),
(1294,991,l),
(1294,605,l),
(1146,605,l),
(1146,391,l)
);
},
{
closed = 1;
nodes = (
(1549,1324,o),
(1631,1407,o),
(1631,1507,cs),
(1631,1608,o),
(1549,1690,o),
(1448,1690,cs),
(1347,1690,o),
(1265,1608,o),
(1265,1507,cs),
(1265,1407,o),
(1347,1324,o),
(1448,1324,cs)
);
}
);
width = 2896;
}
);
metricWidth = baseSymbol;
}
{
color = 8;
glyphname = j.ss20;
layers = (
{
associatedMasterId = "CD0E3B44-F66A-4791-B84C-A1128DC61275";
layerId = "AB13B518-6C86-4060-A1D8-F50BCCD154A3";
name = Serif;
shapes = (
{
closed = 1;
nodes = (
(812,-576,ls),
(1110,-576,o),
(1258,-398,o),
(1258,-110,cs),
(1258,1536,l),
(312,1536,l),
(312,1332,l),
(1014,1332,l),
(1014,-110,ls),
(1014,-264,o),
(950,-352,o),
(808,-352,cs),
(280,-352,l),
(280,-576,l)
);
},
{
closed = 1;
nodes = (
(1224,1886,o),
(1296,1958,o),
(1294,2048,cs),
(1296,2138,o),
(1224,2210,o),
(1134,2210,cs),
(1044,2210,o),
(972,2138,o),
(970,2048,cs),
(972,1958,o),
(1044,1886,o),
(1134,1886,cs)
);
}
);
vertWidth = 0;
width = 1780;
},
{
associatedMasterId = "B1F27B51-9973-4381-9301-4FE46FE1CA59";
layerId = "BB609893-FA41-4D5A-BD6C-8A1BCDFAC1B1";
name = Serif;
shapes = (
{
closed = 1;
nodes = (
(734,-576,ls),
(922,-576,o),
(1086,-440,o),
(1086,-224,cs),
(1086,1536,l),
(290,1536,l),
(290,1472,l),
(1022,1472,l),
(1022,-224,ls),
(1022,-402,o),
(886,-512,o),
(734,-512,cs),
(258,-512,l),
(258,-576,l)
);
},
{
closed = 1;
nodes = (
(1090,1984,o),
(1118,2014,o),
(1118,2048,cs),
(1118,2084,o),
(1090,2112,o),
(1054,2112,cs),
(1020,2112,o),
(990,2084,o),
(990,2048,cs),
(990,2014,o),
(1020,1984,o),
(1054,1984,cs)
);
}
);
width = 1600;
},
{
associatedMasterId = "5C20EF92-B63D-42A8-8878-93C2863E0093";
guides = (
{
pos = (1728,906);
},
{
pos = (1728,1382);
},
{
angle = 90;
pos = (2276,1564);
}
);
layerId = "95A76E0D-DBEC-4D8B-A981-69CC2442BA78";
name = Serif;
shapes = (
{
closed = 1;
nodes = (
(824,-576,ls),
(1230,-576,o),
(1500,-456,o),
(1500,-52,cs),
(1500,1536,l),
(300,1536,l),
(300,1136,l),
(948,1136,l),
(948,-40,ls),
(948,-128,o),
(908,-168,o),
(776,-168,cs),
(268,-168,l),
(268,-576,l)
);
},
{
closed = 1;
nodes = (
(1374,1788,o),
(1496,1904,o),
(1496,2048,cs),
(1496,2192,o),
(1374,2310,o),
(1224,2308,cs),
(1074,2310,o),
(954,2192,o),
(952,2048,cs),
(954,1904,o),
(1074,1788,o),
(1224,1788,cs)
);
}
);
width = 1984;
},
{
associatedMasterId = "B1F27B51-9973-4381-9301-4FE46FE1CA59";
layerId = "A1AAA555-ACE6-4E79-9CF3-F55CB6C64DA5";
name = "Sans-serif";
shapes = (
{
closed = 1;
nodes = (
(556,-576,ls),
(744,-576,o),
(908,-440,o),
(908,-224,cs),
(908,1536,l),
(844,1536,l),
(844,-224,ls),
(844,-402,o),
(708,-512,o),
(556,-512,cs),
(80,-512,l),
(80,-576,l)
);
},
{
closed = 1;
nodes = (
(912,1984,o),
(940,2014,o),
(940,2048,cs),
(940,2084,o),
(912,2112,o),
(876,2112,cs),
(842,2112,o),
(812,2084,o),
(812,2048,cs),
(812,2014,o),
(842,1984,o),
(876,1984,cs)
);
}
);
width = 1600;
},
{
associatedMasterId = "CD0E3B44-F66A-4791-B84C-A1128DC61275";
layerId = "9813FC34-67DC-47F6-A5F5-35C9804619C6";
name = "Sans-serif";
shapes = (
{
closed = 1;
nodes = (
(654,-576,ls),
(952,-576,o),
(1100,-398,o),
(1100,-110,cs),
(1100,1536,l),
(856,1536,l),
(856,-110,ls),
(856,-264,o),
(792,-352,o),
(650,-352,cs),
(202,-352,l),
(202,-576,l)
);
},
{
closed = 1;
nodes = (
(1066,1886,o),
(1138,1958,o),
(1136,2048,cs),
(1138,2138,o),
(1066,2210,o),
(976,2210,cs),
(886,2210,o),
(814,2138,o),
(812,2048,cs),
(814,1958,o),
(886,1886,o),
(976,1886,cs)
);
}
);
vertWidth = 0;
width = 1780;
},
{
associatedMasterId = "5C20EF92-B63D-42A8-8878-93C2863E0093";
guides = (
{
pos = (1728,906);
},
{
pos = (1728,1382);
},
{
angle = 90;
pos = (2276,1564);
}
);
layerId = "B1D06C64-E18C-49C3-AC36-1385BC2F82FB";
name = "Sans-serif";
shapes = (
{
closed = 1;
nodes = (
(662,-576,ls),
(1068,-576,o),
(1338,-456,o),
(1338,-52,cs),
(1338,1536,l),
(786,1536,l),
(786,-40,ls),
(786,-128,o),
(746,-168,o),
(614,-168,cs),
(106,-168,l),
(106,-576,l)
);
},
{
closed = 1;
nodes = (
(1212,1788,o),
(1334,1904,o),
(1334,2048,cs),
(1334,2192,o),
(1212,2310,o),
(1062,2308,cs),
(912,2310,o),
(792,2192,o),
(790,2048,cs),
(792,1904,o),
(912,1788,o),
(1062,1788,cs)
);
}
);
width = 1984;
},
{
layerId = "CD0E3B44-F66A-4791-B84C-A1128DC61275";
name = Normal;
shapes = (
{
closed = 1;
nodes = (
(764,-576,ls),
(1062,-576,o),
(1210,-398,o),
(1210,-110,cs),
(1210,1536,l),
(360,1536,l),
(360,1332,l),
(966,1332,l),
(966,-110,ls),
(966,-264,o),
(902,-352,o),
(760,-352,cs),
(328,-352,l),
(328,-576,l)
);
},
{
closed = 1;
nodes = (
(1176,1886,o),
(1248,1958,o),
(1246,2048,cs),
(1248,2138,o),
(1176,2210,o),
(1086,2210,cs),
(996,2210,o),
(924,2138,o),
(922,2048,cs),
(924,1958,o),
(996,1886,o),
(1086,1886,cs)
);
}
);
vertWidth = 0;
width = 1780;
},
{
layerId = "B1F27B51-9973-4381-9301-4FE46FE1CA59";
name = Thin;
shapes = (
{
closed = 1;
nodes = (
(686,-576,ls),
(874,-576,o),
(1038,-440,o),
(1038,-224,cs),
(1038,1536,l),
(338,1536,l),
(338,1472,l),
(974,1472,l),
(974,-224,ls),
(974,-402,o),
(838,-512,o),
(686,-512,cs),
(306,-512,l),
(306,-576,l)
);
},
{
closed = 1;
nodes = (
(1042,1984,o),
(1070,2014,o),
(1070,2048,cs),
(1070,2084,o),
(1042,2112,o),
(1006,2112,cs),
(972,2112,o),
(942,2084,o),
(942,2048,cs),
(942,2014,o),
(972,1984,o),
(1006,1984,cs)
);
}
);
width = 1600;
},
{
guides = (
{
pos = (1728,906);
},
{
pos = (1728,1382);
},
{
angle = 90;
pos = (2276,1564);
}
);
layerId = "5C20EF92-B63D-42A8-8878-93C2863E0093";
name = Black;
shapes = (
{
closed = 1;
nodes = (
(768,-576,ls),
(1174,-576,o),
(1444,-456,o),
(1444,-52,cs),
(1444,1536,l),
(356,1536,l),
(356,1136,l),
(892,1136,l),
(892,-40,ls),
(892,-128,o),
(852,-168,o),
(720,-168,cs),
(324,-168,l),
(324,-576,l)
);
},
{
closed = 1;
nodes = (
(1318,1788,o),
(1440,1904,o),
(1440,2048,cs),
(1440,2192,o),
(1318,2310,o),
(1168,2308,cs),
(1018,2310,o),
(898,2192,o),
(896,2048,cs),
(898,1904,o),
(1018,1788,o),
(1168,1788,cs)
);
}
);
width = 1984;
}
);
userData = {
RMXScaler = {
source = j;
};
com.typemytype.robofont.guideline.magnetic.v9s2NJYLVO = 5;
"interface.width-adjustments" = (
-16
);
};
}
{
color = 11;
glyphname = logo40wonders.small;
layers = (
{
layerId = "CD0E3B44-F66A-4791-B84C-A1128DC61275";
shapes = (
{
closed = 1;
nodes = (
(1970,2181,ls),
(2030,2217,o),
(2048,2293,o),
(2015,2350,cs),
(1982,2410,o),
(1907,2431,o),
(1846,2395,cs),
(1394,2136,ls),
(1333,2100,o),
(1312,2024,o),
(1348,1967,cs),
(1382,1907,o),
(1457,1885,o),
(1517,1922,cs)
);
},
{
closed = 1;
nodes = (
(941,39,ls),
(1011,39,o),
(1065,94,o),
(1065,160,cs),
(1065,229,o),
(1011,284,o),
(941,284,cs),
(416,284,ls),
(350,284,o),
(296,229,o),
(296,160,cs),
(296,94,o),
(350,39,o),
(416,39,cs)
);
},
{
closed = 1;
nodes = (
(573,389,o),
(649,410,o),
(685,468,cs),
(718,528,o),
(697,603,o),
(640,637,cs),
(184,899,ls),
(127,932,o),
(51,914,o),
(15,854,cs),
(-18,796,o),
(3,718,o),
(60,685,cs),
(516,422,ls)
);
},
{
closed = 1;
nodes = (
(1502,-84,ls),
(1563,-48,o),
(1584,27,o),
(1548,84,cs),
(1514,145,o),
(1439,166,o),
(1379,130,cs),
(926,-130,ls),
(866,-166,o),
(848,-241,o),
(881,-299,cs),
(914,-359,o),
(989,-380,o),
(1050,-344,cs)
);
},
{
closed = 1;
nodes = (
(567,959,o),
(588,1035,o),
(552,1095,cs),
(293,1548,ls),
(256,1608,o),
(181,1626,o),
(124,1593,cs),
(63,1560,o),
(42,1484,o),
(78,1424,cs),
(338,971,ls),
(374,911,o),
(449,890,o),
(507,926,cs)
);
},
{
closed = 1;
nodes = (
(1680,-440,o),
(1756,-419,o),
(1789,-362,cs),
(2051,94,ls),
(2085,151,o),
(2063,226,o),
(2006,262,cs),
(1946,296,o),
(1870,275,o),
(1837,217,cs),
(1575,-238,ls),
(1542,-296,o),
(1560,-371,o),
(1620,-404,cs)
);
},
{
closed = 1;
nodes = (
(652,1409,o),
(706,1463,o),
(706,1532,cs),
(706,2054,ls),
(706,2124,o),
(652,2178,o),
(582,2178,cs),
(516,2178,o),
(459,2124,o),
(459,2054,cs),
(459,1532,ls),
(459,1463,o),
(516,1409,o),
(582,1409,cs)
);
},
{
closed = 1;
nodes = (
(2380,-127,o),
(2434,-72,o),
(2434,-3,cs),
(2434,519,ls),
(2434,588,o),
(2380,643,o),
(2314,643,cs),
(2244,643,o),
(2190,588,o),
(2190,519,cs),
(2190,-3,ls),
(2190,-72,o),
(2244,-127,o),
(2314,-127,cs)
);
},
{
closed = 1;
nodes = (
(950,1756,o),
(1026,1777,o),
(1059,1834,cs),
(1321,2290,ls),
(1354,2347,o),
(1336,2422,o),
(1276,2456,cs),
(1216,2492,o),
(1140,2471,o),
(1107,2413,cs),
(845,1958,ls),
(811,1901,o),
(833,1825,o),
(890,1789,cs)
);
},
{
closed = 1;
nodes = (
(2833,492,o),
(2854,567,o),
(2818,627,cs),
(2558,1080,ls),
(2522,1140,o),
(2447,1161,o),
(2389,1125,cs),
(2329,1092,o),
(2308,1017,o),
(2344,956,cs),
(2603,504,ls),
(2640,443,o),
(2715,425,o),
(2772,459,cs)
);
},
{
closed = 1;
nodes = (
(2769,1119,o),
(2845,1137,o),
(2878,1198,cs),
(2914,1258,o),
(2893,1333,o),
(2836,1367,cs),
(2380,1629,ls),
(2323,1662,o),
(2247,1641,o),
(2211,1584,cs),
(2178,1523,o),
(2199,1448,o),
(2256,1415,cs),
(2712,1152,ls)
);
},
{
closed = 1;
nodes = (
(2477,1768,ls),
(2546,1768,o),
(2600,1822,o),
(2600,1891,cs),
(2600,1958,o),
(2546,2015,o),
(2477,2015,cs),
(1955,2015,ls),
(1885,2015,o),
(1831,1958,o),
(1831,1891,cs),
(1831,1822,o),
(1885,1768,o),
(1955,1768,cs)
);
}
);
width = 2896;
},
{
layerId = "B1F27B51-9973-4381-9301-4FE46FE1CA59";
shapes = (
{
closed = 1;
nodes = (
(1970,2181,ls),
(2030,2217,o),
(2048,2293,o),
(2015,2350,cs),
(1982,2410,o),
(1907,2431,o),
(1846,2395,cs),
(1394,2136,ls),
(1333,2100,o),
(1312,2024,o),
(1348,1967,cs),
(1382,1907,o),
(1457,1885,o),
(1517,1922,cs)
);
},
{
closed = 1;
nodes = (
(941,39,ls),
(1011,39,o),
(1065,94,o),
(1065,160,cs),
(1065,229,o),
(1011,284,o),
(941,284,cs),
(416,284,ls),
(350,284,o),
(296,229,o),
(296,160,cs),
(296,94,o),
(350,39,o),
(416,39,cs)
);
},
{
closed = 1;
nodes = (
(573,389,o),
(649,410,o),
(685,468,cs),
(718,528,o),
(697,603,o),
(640,637,cs),
(184,899,ls),
(127,932,o),
(51,914,o),
(15,854,cs),
(-18,796,o),
(3,718,o),
(60,685,cs),
(516,422,ls)
);
},
{
closed = 1;
nodes = (
(1502,-84,ls),
(1563,-48,o),
(1584,27,o),
(1548,84,cs),
(1514,145,o),
(1439,166,o),
(1379,130,cs),
(926,-130,ls),
(866,-166,o),
(848,-241,o),
(881,-299,cs),
(914,-359,o),
(989,-380,o),
(1050,-344,cs)
);
},
{
closed = 1;
nodes = (
(567,959,o),
(588,1035,o),
(552,1095,cs),
(293,1548,ls),
(256,1608,o),
(181,1626,o),
(124,1593,cs),
(63,1560,o),
(42,1484,o),
(78,1424,cs),
(338,971,ls),
(374,911,o),
(449,890,o),
(507,926,cs)
);
},
{
closed = 1;
nodes = (
(1680,-440,o),
(1756,-419,o),
(1789,-362,cs),
(2051,94,ls),
(2085,151,o),
(2063,226,o),
(2006,262,cs),
(1946,296,o),
(1870,275,o),
(1837,217,cs),
(1575,-238,ls),
(1542,-296,o),
(1560,-371,o),
(1620,-404,cs)
);
},
{
closed = 1;
nodes = (
(652,1409,o),
(706,1463,o),
(706,1532,cs),
(706,2054,ls),
(706,2124,o),
(652,2178,o),
(582,2178,cs),
(516,2178,o),
(459,2124,o),
(459,2054,cs),
(459,1532,ls),
(459,1463,o),
(516,1409,o),
(582,1409,cs)
);
},
{
closed = 1;
nodes = (
(2380,-127,o),
(2434,-72,o),
(2434,-3,cs),
(2434,519,ls),
(2434,588,o),
(2380,643,o),
(2314,643,cs),
(2244,643,o),
(2190,588,o),
(2190,519,cs),
(2190,-3,ls),
(2190,-72,o),
(2244,-127,o),
(2314,-127,cs)
);
},
{
closed = 1;
nodes = (
(950,1756,o),
(1026,1777,o),
(1059,1834,cs),
(1321,2290,ls),
(1354,2347,o),
(1336,2422,o),
(1276,2456,cs),
(1216,2492,o),
(1140,2471,o),
(1107,2413,cs),
(845,1958,ls),
(811,1901,o),
(833,1825,o),
(890,1789,cs)
);
},
{
closed = 1;
nodes = (
(2833,492,o),
(2854,567,o),
(2818,627,cs),
(2558,1080,ls),
(2522,1140,o),
(2447,1161,o),
(2389,1125,cs),
(2329,1092,o),
(2308,1017,o),
(2344,956,cs),
(2603,504,ls),
(2640,443,o),
(2715,425,o),
(2772,459,cs)
);
},
{
closed = 1;
nodes = (
(2769,1119,o),
(2845,1137,o),
(2878,1198,cs),
(2914,1258,o),
(2893,1333,o),
(2836,1367,cs),
(2380,1629,ls),
(2323,1662,o),
(2247,1641,o),
(2211,1584,cs),
(2178,1523,o),
(2199,1448,o),
(2256,1415,cs),
(2712,1152,ls)
);
},
{
closed = 1;
nodes = (
(2477,1768,ls),
(2546,1768,o),
(2600,1822,o),
(2600,1891,cs),
(2600,1958,o),
(2546,2015,o),
(2477,2015,cs),
(1955,2015,ls),
(1885,2015,o),
(1831,1958,o),
(1831,1891,cs),
(1831,1822,o),
(1885,1768,o),
(1955,1768,cs)
);
}
);
width = 2896;
},
{
layerId = "5C20EF92-B63D-42A8-8878-93C2863E0093";
shapes = (
{
closed = 1;
nodes = (
(1970,2181,ls),
(2030,2217,o),
(2048,2293,o),
(2015,2350,cs),
(1982,2410,o),
(1907,2431,o),
(1846,2395,cs),
(1394,2136,ls),
(1333,2100,o),
(1312,2024,o),
(1348,1967,cs),
(1382,1907,o),
(1457,1885,o),
(1517,1922,cs)
);
},
{
closed = 1;
nodes = (
(941,39,ls),
(1011,39,o),
(1065,94,o),
(1065,160,cs),
(1065,229,o),
(1011,284,o),
(941,284,cs),
(416,284,ls),
(350,284,o),
(296,229,o),
(296,160,cs),
(296,94,o),
(350,39,o),
(416,39,cs)
);
},
{
closed = 1;
nodes = (
(573,389,o),
(649,410,o),
(685,468,cs),
(718,528,o),
(697,603,o),
(640,637,cs),
(184,899,ls),
(127,932,o),
(51,914,o),
(15,854,cs),
(-18,796,o),
(3,718,o),
(60,685,cs),
(516,422,ls)
);
},
{
closed = 1;
nodes = (
(1502,-84,ls),
(1563,-48,o),
(1584,27,o),
(1548,84,cs),
(1514,145,o),
(1439,166,o),
(1379,130,cs),
(926,-130,ls),
(866,-166,o),
(848,-241,o),
(881,-299,cs),
(914,-359,o),
(989,-380,o),
(1050,-344,cs)
);
},
{
closed = 1;
nodes = (
(567,959,o),
(588,1035,o),
(552,1095,cs),
(293,1548,ls),
(256,1608,o),
(181,1626,o),
(124,1593,cs),
(63,1560,o),
(42,1484,o),
(78,1424,cs),
(338,971,ls),
(374,911,o),
(449,890,o),
(507,926,cs)
);
},
{
closed = 1;
nodes = (
(1680,-440,o),
(1756,-419,o),
(1789,-362,cs),
(2051,94,ls),
(2085,151,o),
(2063,226,o),
(2006,262,cs),
(1946,296,o),
(1870,275,o),
(1837,217,cs),
(1575,-238,ls),
(1542,-296,o),
(1560,-371,o),
(1620,-404,cs)
);
},
{
closed = 1;
nodes = (
(652,1409,o),
(706,1463,o),
(706,1532,cs),
(706,2054,ls),
(706,2124,o),
(652,2178,o),
(582,2178,cs),
(516,2178,o),
(459,2124,o),
(459,2054,cs),
(459,1532,ls),
(459,1463,o),
(516,1409,o),
(582,1409,cs)
);
},
{
closed = 1;
nodes = (
(2380,-127,o),
(2434,-72,o),
(2434,-3,cs),
(2434,519,ls),
(2434,588,o),
(2380,643,o),
(2314,643,cs),
(2244,643,o),
(2190,588,o),
(2190,519,cs),
(2190,-3,ls),
(2190,-72,o),
(2244,-127,o),
(2314,-127,cs)
);
},
{
closed = 1;
nodes = (
(950,1756,o),
(1026,1777,o),
(1059,1834,cs),
(1321,2290,ls),
(1354,2347,o),
(1336,2422,o),
(1276,2456,cs),
(1216,2492,o),
(1140,2471,o),
(1107,2413,cs),
(845,1958,ls),
(811,1901,o),
(833,1825,o),
(890,1789,cs)
);
},
{
closed = 1;
nodes = (
(2833,492,o),
(2854,567,o),
(2818,627,cs),
(2558,1080,ls),
(2522,1140,o),
(2447,1161,o),
(2389,1125,cs),
(2329,1092,o),
(2308,1017,o),
(2344,956,cs),
(2603,504,ls),
(2640,443,o),
(2715,425,o),
(2772,459,cs)
);
},
{
closed = 1;
nodes = (
(2769,1119,o),
(2845,1137,o),
(2878,1198,cs),
(2914,1258,o),
(2893,1333,o),
(2836,1367,cs),
(2380,1629,ls),
(2323,1662,o),
(2247,1641,o),
(2211,1584,cs),
(2178,1523,o),
(2199,1448,o),
(2256,1415,cs),
(2712,1152,ls)
);
},
{
closed = 1;
nodes = (
(2477,1768,ls),
(2546,1768,o),
(2600,1822,o),
(2600,1891,cs),
(2600,1958,o),
(2546,2015,o),
(2477,2015,cs),
(1955,2015,ls),
(1885,2015,o),
(1831,1958,o),
(1831,1891,cs),
(1831,1822,o),
(1885,1768,o),
(1955,1768,cs)
);
}
);
width = 2896;
}
);
metricWidth = baseSymbol;
}
{
color = 11;
glyphname = logoUnagi8.small;
layers = (
{
layerId = "CD0E3B44-F66A-4791-B84C-A1128DC61275";
shapes = (
{
closed = 1;
nodes = (
(2308,474,o),
(2751,697,o),
(2778,890,c),
(2836,839,o),
(2872,784,o),
(2893,724,c),
(2884,839,o),
(2793,944,o),
(2649,1032,cs),
(2522,1107,o),
(2356,1170,o),
(2160,1216,c),
(2338,1288,o),
(2450,1388,o),
(2462,1496,c),
(2462,1551,l),
(2459,1545,o),
(2459,1532,o),
(2456,1523,cs),
(2413,1370,o),
(2078,1167,o),
(1448,1167,cs),
(815,1167,o),
(483,1370,o),
(440,1523,cs),
(437,1532,o),
(437,1542,o),
(434,1551,c),
(434,1496,l),
(446,1388,o),
(558,1288,o),
(736,1216,c),
(311,1119,o),
(21,935,o),
(3,724,c),
(69,929,o),
(380,1101,o),
(818,1186,c),
(860,1170,o),
(908,1158,o),
(959,1146,c),
(830,1071,o),
(751,977,o),
(754,878,cs),
(757,640,o),
(1201,456,o),
(1777,465,cs)
);
},
{
closed = 1;
nodes = (
(2247,60,o),
(2893,323,o),
(2893,646,cs),
(2893,703,ls),
(2893,634,o),
(2863,570,o),
(2812,510,cs),
(2612,293,o),
(2078,142,o),
(1448,142,cs),
(818,142,o),
(284,293,o),
(84,510,cs),
(33,570,o),
(3,637,o),
(3,703,cs),
(3,646,ls),
(3,323,o),
(649,60,o),
(1448,60,cs)
);
},
{
closed = 1;
nodes = (
(510,1765,o),
(911,1943,o),
(1448,1943,cs),
(1985,1943,o),
(2386,1765,o),
(2462,1581,c),
(2437,1804,o),
(1994,1982,o),
(1448,1982,cs),
(902,1982,o),
(459,1804,o),
(434,1581,c)
);
}
);
width = 2896;
},
{
layerId = "B1F27B51-9973-4381-9301-4FE46FE1CA59";
shapes = (
{
closed = 1;
nodes = (
(2308,474,o),
(2751,697,o),
(2778,890,c),
(2836,839,o),
(2872,784,o),
(2893,724,c),
(2884,839,o),
(2793,944,o),
(2649,1032,cs),
(2522,1107,o),
(2356,1170,o),
(2160,1216,c),
(2338,1288,o),
(2450,1388,o),
(2462,1496,c),
(2462,1551,l),
(2459,1545,o),
(2459,1532,o),
(2456,1523,cs),
(2413,1370,o),
(2078,1167,o),
(1448,1167,cs),
(815,1167,o),
(483,1370,o),
(440,1523,cs),
(437,1532,o),
(437,1542,o),
(434,1551,c),
(434,1496,l),
(446,1388,o),
(558,1288,o),
(736,1216,c),
(311,1119,o),
(21,935,o),
(3,724,c),
(69,929,o),
(380,1101,o),
(818,1186,c),
(860,1170,o),
(908,1158,o),
(959,1146,c),
(830,1071,o),
(751,977,o),
(754,878,cs),
(757,640,o),
(1201,456,o),
(1777,465,cs)
);
},
{
closed = 1;
nodes = (
(2247,60,o),
(2893,323,o),
(2893,646,cs),
(2893,703,ls),
(2893,634,o),
(2863,570,o),
(2812,510,cs),
(2612,293,o),
(2078,142,o),
(1448,142,cs),
(818,142,o),
(284,293,o),
(84,510,cs),
(33,570,o),
(3,637,o),
(3,703,cs),
(3,646,ls),
(3,323,o),
(649,60,o),
(1448,60,cs)
);
},
{
closed = 1;
nodes = (
(510,1765,o),
(911,1943,o),
(1448,1943,cs),
(1985,1943,o),
(2386,1765,o),
(2462,1581,c),
(2437,1804,o),
(1994,1982,o),
(1448,1982,cs),
(902,1982,o),
(459,1804,o),
(434,1581,c)
);
}
);
width = 2896;
},
{
layerId = "5C20EF92-B63D-42A8-8878-93C2863E0093";
shapes = (
{
closed = 1;
nodes = (
(2308,474,o),
(2751,697,o),
(2778,890,c),
(2836,839,o),
(2872,784,o),
(2893,724,c),
(2884,839,o),
(2793,944,o),
(2649,1032,cs),
(2522,1107,o),
(2356,1170,o),
(2160,1216,c),
(2338,1288,o),
(2450,1388,o),
(2462,1496,c),
(2462,1551,l),
(2459,1545,o),
(2459,1532,o),
(2456,1523,cs),
(2413,1370,o),
(2078,1167,o),
(1448,1167,cs),
(815,1167,o),
(483,1370,o),
(440,1523,cs),
(437,1532,o),
(437,1542,o),
(434,1551,c),
(434,1496,l),
(446,1388,o),
(558,1288,o),
(736,1216,c),
(311,1119,o),
(21,935,o),
(3,724,c),
(69,929,o),
(380,1101,o),
(818,1186,c),
(860,1170,o),
(908,1158,o),
(959,1146,c),
(830,1071,o),
(751,977,o),
(754,878,cs),
(757,640,o),
(1201,456,o),
(1777,465,cs)
);
},
{
closed = 1;
nodes = (
(2247,60,o),
(2893,323,o),
(2893,646,cs),
(2893,703,ls),
(2893,634,o),
(2863,570,o),
(2812,510,cs),
(2612,293,o),
(2078,142,o),
(1448,142,cs),
(818,142,o),
(284,293,o),
(84,510,cs),
(33,570,o),
(3,637,o),
(3,703,cs),
(3,646,ls),
(3,323,o),
(649,60,o),
(1448,60,cs)
);
},
{
closed = 1;
nodes = (
(510,1765,o),
(911,1943,o),
(1448,1943,cs),
(1985,1943,o),
(2386,1765,o),
(2462,1581,c),
(2437,1804,o),
(1994,1982,o),
(1448,1982,cs),
(902,1982,o),
(459,1804,o),
(434,1581,c)
);
}
);
width = 2896;
}
);
metricWidth = baseSymbol;
}
{
glyphname = one.1.tf;
layers = (
{
layerId = "B1F27B51-9973-4381-9301-4FE46FE1CA59";
shapes = (
{
closed = 1;
nodes = (
(886,40,l),
(886,2048,l),
(798,2048,l),
(252,1698,l),
(252,1622,l),
(810,1980,l),
(820,1980,l),
(820,40,l)
);
},
{
closed = 1;
nodes = (
(1458,0,l),
(1458,64,l),
(252,64,l),
(252,0,l)
);
}
);
width = 1600;
},
{
layerId = "CD0E3B44-F66A-4791-B84C-A1128DC61275";
shapes = (
{
closed = 1;
nodes = (
(1108,40,l),
(1108,2048,l),
(854,2048,l),
(310,1686,l),
(310,1428,l),
(842,1782,l),
(854,1782,l),
(854,40,l)
);
},
{
closed = 1;
nodes = (
(1644,0,l),
(1644,206,l),
(310,206,l),
(310,0,l)
);
}
);
width = 1780;
},
{
guides = (
{
pos = (132,1240);
},
{
pos = (132,764);
}
);
layerId = "5C20EF92-B63D-42A8-8878-93C2863E0093";
shapes = (
{
closed = 1;
nodes = (
(1416,40,l),
(1416,2048,l),
(904,2048,l),
(312,1688,l),
(312,1218,l),
(848,1536,l),
(860,1536,l),
(860,40,l)
);
},
{
closed = 1;
nodes = (
(1892,0,l),
(1892,444,l),
(312,444,l),
(312,0,l)
);
}
);
width = 1984;
},
{
associatedMasterId = "B1F27B51-9973-4381-9301-4FE46FE1CA59";
layerId = "2FB0BC1F-E9BD-4CCC-A1FB-BBE2741B94EC";
name = "Aug 18, 23 1:30";
shapes = (
{
alignment = -1;
pos = (62,0);
ref = one.1;
}
);
width = 1600;
},
{
associatedMasterId = "5C20EF92-B63D-42A8-8878-93C2863E0093";
guides = (
{
pos = (132,1240);
},
{
pos = (132,764);
}
);
layerId = "7AF5C590-8CC6-4D79-91B1-9DC42F171114";
name = "Aug 18, 23 1:30";
shapes = (
{
alignment = -1;
pos = (172,-2);
ref = one.1;
}
);
width = 1984;
},
{
associatedMasterId = "CD0E3B44-F66A-4791-B84C-A1128DC61275";
layerId = "0BBFC38C-F4C9-4ECD-82C8-27A7D8F698AF";
name = "Aug 18, 23 1:30";
shapes = (
{
alignment = -1;
pos = (122,0);
ref = one.1;
}
);
width = 1780;
}
);
}
{
color = 8;
glyphname = r.ss20;
layers = (
{
layerId = "5C20EF92-B63D-42A8-8878-93C2863E0093";
shapes = (
{
closed = 1;
nodes = (
(910,0,l),
(910,636,ls),
(910,916,o),
(1102,1092,o),
(1408,1092,cs),
(1500,1092,o),
(1598,1076,o),
(1712,1042,c),
(1712,1518,l),
(1628,1544,o),
(1560,1556,o),
(1482,1556,cs),
(1206,1556,o),
(986,1404,o),
(910,1164,c),
(894,1164,l),
(894,1536,l),
(358,1536,l),
(358,0,l)
);
}
);
width = 1984;
},
{
layerId = "B1F27B51-9973-4381-9301-4FE46FE1CA59";
shapes = (
{
closed = 1;
nodes = (
(586,0,l),
(586,830,ls),
(586,1262,o),
(750,1492,o),
(1042,1492,cs),
(1138,1492,o),
(1246,1468,o),
(1330,1420,c),
(1330,1492,l),
(1244,1534,o),
(1140,1556,o),
(1042,1556,cs),
(822,1556,o),
(670,1442,o),
(594,1230,c),
(586,1230,l),
(586,1536,l),
(522,1536,l),
(522,0,l)
);
}
);
width = 1600;
},
{
layerId = "CD0E3B44-F66A-4791-B84C-A1128DC61275";
shapes = (
{
closed = 1;
nodes = (
(732,0,l),
(732,736,ls),
(732,1094,o),
(928,1322,o),
(1238,1326,cs),
(1322,1326,o),
(1410,1310,o),
(1520,1280,c),
(1520,1526,l),
(1442,1546,o),
(1358,1560,o),
(1270,1560,cs),
(990,1560,o),
(822,1418,o),
(740,1188,c),
(724,1188,l),
(724,1536,l),
(488,1536,l),
(488,0,l)
);
}
);
vertWidth = 0;
width = 1780;
},
{
associatedMasterId = "CD0E3B44-F66A-4791-B84C-A1128DC61275";
background = {
shapes = (
{
attr = {
lineCapEnd = "4";
lineCapStart = "4";
strokeHeight = 234;
strokeWidth = 244;
};
closed = 0;
nodes = (
(692,736,ls),
(692,1144,o),
(938,1442,o),
(1320,1442,cs),
(1404,1442,o),
(1494,1428,o),
(1602,1398,c)
);
}
);
};
layerId = "BE4EF599-E4E4-42AF-B4B0-FC20F1F7B10F";
name = Serif;
shapes = (
{
closed = 1;
nodes = (
(1280,0,l),
(1280,204,l),
(814,204,l),
(814,736,ls),
(814,1094,o),
(1010,1322,o),
(1320,1326,cs),
(1404,1326,o),
(1492,1310,o),
(1602,1280,c),
(1602,1526,l),
(1524,1546,o),
(1440,1560,o),
(1352,1560,cs),
(1072,1560,o),
(904,1418,o),
(822,1188,c),
(806,1188,l),
(806,1536,l),
(228,1536,l),
(228,1332,l),
(570,1332,l),
(570,204,l),
(228,204,l),
(228,0,l)
);
}
);
vertWidth = 0;
width = 1780;
},
{
associatedMasterId = "B1F27B51-9973-4381-9301-4FE46FE1CA59";
background = {
shapes = (
{
attr = {
lineCapEnd = "4";
lineCapStart = "4";
strokeHeight = 64;
strokeWidth = 64;
};
closed = 0;
nodes = (
(638,830,ls),
(638,1276,o),
(812,1524,o),
(1126,1524,cs),
(1224,1524,o),
(1328,1500,o),
(1414,1456,c)
);
}
);
};
layerId = "1CDA7DDE-4A32-45B2-968E-F0FC4CFFEA06";
name = Serif;
shapes = (
{
closed = 1;
nodes = (
(1152,0,l),
(1152,64,l),
(670,64,l),
(670,830,ls),
(670,1262,o),
(834,1492,o),
(1126,1492,cs),
(1222,1492,o),
(1330,1468,o),
(1414,1420,c),
(1414,1492,l),
(1328,1534,o),
(1224,1556,o),
(1126,1556,cs),
(906,1556,o),
(754,1442,o),
(678,1230,c),
(670,1230,l),
(670,1536,l),
(268,1536,l),
(268,1472,l),
(606,1472,l),
(606,64,l),
(268,64,l),
(268,0,l)
);
}
);
width = 1600;
},
{
associatedMasterId = "5C20EF92-B63D-42A8-8878-93C2863E0093";
background = {
shapes = (
{
closed = 0;
nodes = (
(1042,624,ls),
(1042,912,o),
(1162,1020,o),
(1570,1020,cs),
(1660,1020,o),
(1770,1002,o),
(1844,972,c),
(1844,1526,l),
(1778,1548,o),
(1700,1556,o),
(1616,1556,cs),
(1316,1556,o),
(1198,1438,o),
(1114,1104,c),
(1026,1104,l),
(1026,1512,l)
);
}
);
};
layerId = "B4966492-F974-4647-85A7-1A4305D9BDE8";
name = Serif;
shapes = (
{
closed = 1;
nodes = (
(1440,0,l),
(1440,400,l),
(1042,400,l),
(1042,636,ls),
(1042,916,o),
(1234,1092,o),
(1540,1092,cs),
(1632,1092,o),
(1730,1076,o),
(1844,1042,c),
(1844,1518,l),
(1760,1544,o),
(1692,1556,o),
(1614,1556,cs),
(1338,1556,o),
(1118,1404,o),
(1042,1164,c),
(1026,1164,l),
(1026,1536,l),
(164,1536,l),
(164,1136,l),
(490,1136,l),
(490,400,l),
(164,400,l),
(164,0,l)
);
}
);
width = 1984;
},
{
associatedMasterId = "CD0E3B44-F66A-4791-B84C-A1128DC61275";
layerId = "7D2BDA5E-6077-4168-9B6A-27F46E667552";
name = "Sans-serif";
shapes = (
{
closed = 1;
nodes = (
(732,0,l),
(732,736,ls),
(732,1094,o),
(928,1322,o),
(1238,1326,cs),
(1322,1326,o),
(1410,1310,o),
(1520,1280,c),
(1520,1526,l),
(1442,1546,o),
(1358,1560,o),
(1270,1560,cs),
(990,1560,o),
(822,1418,o),
(740,1188,c),
(724,1188,l),
(724,1536,l),
(488,1536,l),
(488,0,l)
);
}
);
vertWidth = 0;
width = 1780;
},
{
associatedMasterId = "5C20EF92-B63D-42A8-8878-93C2863E0093";
layerId = "04AD5293-947D-454B-86FD-8E0945040D88";
name = "Sans-serif";
shapes = (
{
closed = 1;
nodes = (
(910,0,l),
(910,636,ls),
(910,916,o),
(1102,1092,o),
(1408,1092,cs),
(1500,1092,o),
(1598,1076,o),
(1712,1042,c),
(1712,1518,l),
(1628,1544,o),
(1560,1556,o),
(1482,1556,cs),
(1206,1556,o),
(986,1404,o),
(910,1164,c),
(894,1164,l),
(894,1536,l),
(358,1536,l),
(358,0,l)
);
}
);
width = 1984;
},
{
associatedMasterId = "B1F27B51-9973-4381-9301-4FE46FE1CA59";
layerId = "B0C643D8-4081-4BF9-8BAB-13C8CAFE138C";
name = "Sans-serif";
shapes = (
{
closed = 1;
nodes = (
(586,0,l),
(586,830,ls),
(586,1262,o),
(750,1492,o),
(1042,1492,cs),
(1138,1492,o),
(1246,1468,o),
(1330,1420,c),
(1330,1492,l),
(1244,1534,o),
(1140,1556,o),
(1042,1556,cs),
(822,1556,o),
(670,1442,o),
(594,1230,c),
(586,1230,l),
(586,1536,l),
(522,1536,l),
(522,0,l)
);
}
);
width = 1600;
}
);
userData = {
RMXScaler = {
source = r;
};
};
}
